<?xml version="1.0" encoding="UTF-8"?><svg id="_レイヤー_2" xmlns="http://www.w3.org/2000/svg" viewBox="0 0 985.91115 1386.4054"><defs><style>.cls-1{fill:#fadce9;}.cls-2{fill:#ef93bb;}.cls-3{fill:#f6c3d9;}</style></defs><g id="_レイヤー_1-2"><path class="cls-3" d="M787.5507,108.45547c3.56939,12.77082-7.8083,22.48735-7.79277,20.68306.03415-3.94386-2.79687-4.34449-7.40916-12.42706-2.80116-4.91091-2.114-7.90369-3.40808-12.5385-.68841-2.46558,4.40547-.71055,5.47865,1.05907.6204-.93574.62247-9.04823,2.84554-8.31292,3.845,1.27226,8.69908,5.8571,10.28581,11.53635Z"/><path class="cls-3" d="M871.51516,160.45469c4.08795,10.34654-4.56207,19.44294-4.70585,17.936-.31412-3.29393-2.71128-3.38229-7.26218-9.72611-2.76407-3.85457-2.45066-6.4116-3.93315-10.1667-.78864-1.9976,3.61442-.97564,4.66367.40779.4364-.83472-.26664-7.60439,1.65229-7.18393,3.31899.72761,7.76779,4.13173,9.58523,8.73295Z"/><path class="cls-3" d="M806.26448,214.67605c-8.83111,7.9334-21.14428,2.66019-19.69027,1.95648,3.1783-1.53804,2.37606-3.96881,7.03113-10.87817,2.82888-4.19709,5.50319-4.83361,8.70872-7.71174,1.70525-1.53108,2.31885,3.25312,1.3248,4.81671.99714.12641,7.50781-3.09203,7.80017-1.01626.50528,3.59041-1.24707,9.30543-5.17455,12.83298Z"/><path class="cls-3" d="M758.72795,260.29815c-8.03742,12.13982-24.27951,9.676-22.77044,8.39242,3.29871-2.80553,1.59705-5.44369,4.99295-15.08056,2.06421-5.85426,5.04256-7.43427,7.96047-11.83896,1.55224-2.34317,3.75546,3.14682,3.05748,5.30933,1.22263-.15733,7.95905-5.98488,8.946-3.61094,1.70662,4.10628,1.38825,11.43055-2.18646,16.8287Z"/><path class="cls-3" d="M885.69895,306.80474c6.35894,14.12495-5.08052,27.33974-5.37854,25.25311-.65119-4.56106-3.99111-4.52801-10.7336-13.05551-4.09526-5.18146-3.82569-8.75839-6.13194-13.88488-1.22686-2.72714,4.96379-1.59213,6.51318.26381.55268-1.1894-.86555-10.55951,1.83081-10.09954,4.66368.79611,11.07291,5.24147,13.90008,11.52302Z"/><path class="cls-3" d="M737.23084,344.81111c-6.91501-6.45038-3.59525-16.59089-2.93478-15.48656,1.44354,2.41395,3.31599,1.60673,9.12526,4.81539,3.52892,1.95001,4.22174,4.02735,6.73053,6.36883,1.33461,1.2456-2.4185,2.06835-3.72897,1.38936-.0303.80009,2.98056,5.74025,1.354,6.11796-2.81346.653-7.47125-.33625-10.54603-3.20499Z"/><path class="cls-3" d="M821.21468,422.77721c-9.82497-2.19473-12.24279-13.29354-11.04124-12.63568,2.62632,1.43809,3.91025-.31219,10.97287-.49756,4.29075-.11181,6.04644,1.42188,9.61165,2.21929,1.89659.4242-1.10551,3.20238-2.67455,3.28535.40341.75085,5.8302,3.66339,4.5405,4.88683-2.23095,2.11589-7.04023,3.71817-11.40924,2.74176Z"/><path class="cls-3" d="M721.11779,411.7692c-3.39166,10.03838-15.27715,11.33233-14.45476,10.14807,1.79773-2.58851.10891-4.12729.70178-11.53974.36103-4.5032,2.16181-6.16984,3.3936-9.81238.65527-1.93773,3.22847,1.51383,3.1405,3.16524.8308-.33856,4.4837-5.69378,5.62048-4.20767,1.96595,2.57067,3.10709,7.78263,1.59841,12.24648Z"/><path class="cls-3" d="M699.29187,467.50083c-6.00947,8.03601-17.08811,5.69975-15.9991,4.8761,2.38049-1.80026,1.31372-3.68268,4.03067-10.17962,1.65137-3.94675,3.76306-4.91639,5.94465-7.83203,1.16054-1.55104,2.45988,2.31346,1.89427,3.77391.84748-.06001,5.71265-3.804,6.29807-2.13159,1.01225,2.8928.50416,7.91993-2.16856,11.49324Z"/><path class="cls-3" d="M783.41234,555.44451c9.11197,4.66279,8.66498,16.20347,7.64982,15.24989-2.21887-2.08449-3.92848-.68866-10.92762-2.30508-4.25198-.98282-5.58951-2.93965-8.89574-4.63264-1.75882-.90062,1.90384-2.87061,3.46943-2.55264-.20584-.84184-4.80573-5.09095-3.22464-5.96672,2.73491-1.51449,7.87692-1.86671,11.92876.2072Z"/><path class="cls-3" d="M643.02573,552.59746c-15.55494,1.98069-24.96702-13.00107-22.85875-12.67273,4.60829.71792,5.56367-2.52539,15.81283-6.53216,6.2271-2.43305,9.61041-1.11462,15.25541-1.83189,3.00297-.38157.07399,5.27637-2.18088,6.22774.98813.8867,10.47907,2.2837,9.23662,4.7582-2.14947,4.27979-8.34798,9.17072-15.26525,10.05085Z"/><path class="cls-3" d="M692.44182,650.10277c-7.88412-5.1988-6.30557-15.73712-5.47116-14.75982,1.82377,2.13631,3.53295,1.02936,9.78795,3.22047,3.79983,1.33188,4.82828,3.26186,7.68888,5.14925,1.52176,1.00403-2.03664,2.43975-3.44019,1.98962.10352.79286,3.89166,5.15538,2.35301,5.79842-2.66146,1.11194-7.4127.91427-10.91849-1.39795Z"/><path class="cls-3" d="M631.65866,673.59851c-12.38393-1.78689-16.43409-15.31144-14.8826-14.61028,3.39121,1.53277,4.81612-.75818,13.55083-1.65852,5.30668-.54598,7.62803,1.18792,12.12192,1.83758,2.39062.34559-1.06592,4.0735-3.00247,4.32531.57122.89219,7.57289,3.98623,6.09082,5.62484-2.56378,2.83394-8.37151,5.27622-13.87849,4.48107Z"/><path class="cls-3" d="M587.93115,691.30452c-12.34095.96588-19.18844-11.20782-17.53864-10.86815,3.60614.74262,4.4837-1.77813,12.71867-4.54483,5.00328-1.6799,7.62051-.51071,12.09908-.86002,2.38246-.18583-.14379,4.16325-1.9582,4.82703.74517.73702,8.17526,2.20214,7.1008,4.10569-1.85881,3.29227-6.93371,6.91131-12.42169,7.34029Z"/><path class="cls-3" d="M619.07486,762.94897c7.25847,5.93266,4.63171,16.17896,3.9068,15.12934-1.58442-2.29436-3.38436-1.3745-9.33893-4.17206-3.61724-1.70028-4.43722-3.71031-7.0707-5.86394-1.40094-1.14567,2.25837-2.20279,3.59871-1.61605-.02188-.79342-3.32044-5.48518-1.73589-5.96423,2.7408-.82829,7.41247-.15159,10.64001,2.48694Z"/><path class="cls-3" d="M559.18182,730.69624c.10867,12.57613-12.7127,18.65783-12.2521,17.00965,1.00698-3.60258-1.48601-4.66979-3.70944-13.21134-1.34981-5.18948.01977-7.75969-.01844-12.32351-.02033-2.42782,4.20947.43933,4.75428,2.32511.79954-.70328,2.80847-8.13064,4.66201-6.90739,3.20576,2.11614,6.51591,7.51495,6.56369,13.10748Z"/><path class="cls-3" d="M556.27182,810.67576c1.23931,11.25698-9.69502,17.86974-9.43202,16.35133.57502-3.31896-1.75534-4.04869-4.52289-11.4991-1.68051-4.52664-.68689-6.95364-1.13554-11.03886-.23867-2.17322,3.81112.01136,4.47045,1.65134.65244-.70266,1.7778-7.53919,3.54945-6.6116,3.06416,1.60474,6.51993,6.14092,7.07055,11.14688Z"/><path class="cls-3" d="M474.83427,758.79433c-5.44505-6.989-.8761-15.88056-.42814-14.76131.97904,2.44653,2.83062,1.97623,7.7314,5.80275,2.97692,2.32527,3.31112,4.3495,5.28642,6.8863,1.0508,1.3495-2.54301,1.55644-3.65517.73472-.14619.73575,1.90984,5.75096.34919,5.86019-2.6994.18865-6.86262-1.41445-9.2837-4.52265Z"/><path class="cls-3" d="M511.63733,807.67624c10.04516,6.44669,8.2152,19.78949,7.1454,18.56746-2.33828-2.67126-4.48097-1.24557-12.4202-3.91672-4.82299-1.62371-6.15294-4.04668-9.79765-6.38713-1.93888-1.24505,2.53566-3.11519,4.31648-2.56829-.14324-1.00038-4.9989-6.45433-3.06445-7.29108,3.34608-1.44692,9.35368-1.27148,13.82042,1.59576Z"/><path class="cls-3" d="M469.4316,818.04573c-10.39082.41648-15.75012-10.02188-14.37601-9.68402,3.00354.73865,3.82079-1.34943,10.82227-3.40886,4.25382-1.25036,6.41357-.18522,10.18439-.33534,2.00596-.07987-.25375,3.49036-1.79811,3.98961.602.64252,6.79258,2.10989,5.82976,3.67354-1.66564,2.70439-6.04155,5.58032-10.6623,5.76508Z"/><path class="cls-3" d="M410.80491,805.87739c7.02037,13.57529-3.54245,27.20617-3.94769,25.16642-.88556-4.45858-4.17419-4.24733-11.27294-12.28766-4.31176-4.88553-4.23756-8.42384-6.78389-13.35093-1.35458-2.62106,4.805-1.8341,6.43071-.08857.48085-1.20133-1.41767-10.35663,1.26332-10.04773,4.63712.53479,11.18916,4.57132,14.31048,10.60847Z"/><path class="cls-3" d="M325.66381,786.08097c5.75142,6.9261,1.3923,16.10141.90191,14.97882-1.07178-2.45385-2.93746-1.9176-8.03602-5.64894-3.09709-2.26748-3.50057-4.31282-5.58706-6.82682-1.10995-1.33738,2.53357-1.66126,3.68913-.86187.1252-.75189-2.1217-5.78054-.54008-5.94087,2.73569-.27701,7.01479,1.21945,9.57211,4.29969Z"/><path class="cls-3" d="M355.0334,908.70201c-13.86028,4.55785-25.10581-7.46576-23.12178-7.53831,4.33676-.15837,4.63649-3.29012,13.29168-8.76142,5.25889-3.32297,8.58267-2.71632,13.61294-4.36899,2.67595-.87918.99987,4.80716-.89197,6.0747,1.05937.63545,9.97667.23474,9.27886,2.71485-1.20746,4.2896-6.00595,9.85292-12.16972,11.87917Z"/><path class="cls-3" d="M299.22518,905.71235c6.68043,9.67229-.04865,21.10227-.5568,19.5856-1.11057-3.31525-3.599-2.83326-9.79928-8.27505-3.76621-3.30675-4.05477-6.01351-6.47812-9.52418-1.28916-1.86757,3.48701-1.86805,4.89761-.69491.24967-.96345-2.09191-7.7632-.01634-7.78907,3.59002-.04435,8.98261,2.39612,11.95293,6.69761Z"/><path class="cls-3" d="M352.55381,1032.33681c-13.42955,4.11821-24.02057-7.67321-22.10945-7.70455,4.17739-.0683,4.52666-3.07692,12.9638-8.17536,5.12638-3.09647,8.31389-2.44806,13.1878-3.94123,2.59278-.79433.86915,4.6465-.97642,5.82986,1.00736.63221,9.59842.41951,8.87863,2.79319-1.24546,4.1055-5.97215,9.36734-11.94436,11.1981Z"/><path class="cls-3" d="M288.4442,1059.8286c-13.81939-4.05847-16.22582-20.13078-14.57244-19.07847,3.61389,2.30036,5.61166-.07743,15.71169.32308,6.13599.24448,8.49796,2.5993,13.51255,4.07345,2.66762.7842-1.87981,4.46759-4.12758,4.43827.50519,1.10991,7.97816,5.77891,6.02178,7.40403-3.38417,2.81053-10.40077,4.64502-16.54599,2.83964Z"/><path class="cls-3" d="M271.06973,1098.94943c-6.20214-12.13587,3.27574-24.24585,3.62835-22.42517.77056,3.97974,3.7041,3.80547,9.99989,11.00588,3.82403,4.37517,3.74268,7.53013,5.99223,11.93478,1.1967,2.34314-4.29272,1.61493-5.73496.05139-.43396,1.06922,1.21976,9.24159-1.16969,8.95463-4.13285-.4968-9.95829-4.12449-12.71582-9.5215Z"/><path class="cls-3" d="M192.43982,1108.03349c8.67469,13.07883-.59457,28.16738-1.23482,26.13008-1.39926-4.45327-4.73305-3.87234-12.87299-11.29199-4.94438-4.50857-5.26163-8.12897-8.40836-12.87605-1.67397-2.52531,4.70156-2.40607,6.55508-.80469.35746-1.27981-2.59757-10.41529.17367-10.39773,4.79329.0309,11.9304,3.42393,15.78741,9.24038Z"/><path class="cls-3" d="M148.77015,1167.23331c-7.68673-11.55873.49558-24.91435,1.06406-23.11307,1.24242,3.93736,4.1905,3.41994,11.39815,9.97378,4.37809,3.98246,4.6626,7.18431,7.45095,11.37966,1.48333,2.2318-4.15588,2.1332-5.79702.71879-.31479,1.13236,2.30873,9.20941-.14242,9.19686-4.23964-.02217-10.55598-3.01559-13.97372-8.15601Z"/><path class="cls-3" d="M183.55773,1204.18059c-.83864,12.22251-13.74779,17.16665-13.17669,15.60047,1.24849-3.42335-1.09267-4.64702-2.61085-13.10979-.92137-5.14153.60178-7.53498.90731-11.97039.16253-2.35951,4.05539.74273,4.44295,2.61517.82934-.62302,3.33811-7.68589,5.0465-6.35867,2.95466,2.29595,5.76425,7.78797,5.39079,13.22321Z"/><path class="cls-3" d="M239.35775,1276.17731c-13.23048-4.05542-15.36044-19.52347-13.78394-18.49379,3.44586,2.25088,5.39205-.01087,15.09071.48821,5.89213.30432,8.13465,2.59336,12.93553,4.06633,2.55393.78358-1.85652,4.27078-4.01564,4.21717.47278,1.07202,7.59928,5.64215,5.70138,7.18128-3.28301,2.66179-10.04469,4.34479-15.92803,2.5408Z"/><path class="cls-3" d="M96.57555,1275.42136c-4.86141,7.18289-14.52177,5.61678-13.61505,4.86131,1.98202-1.65124.98434-3.23309,3.06566-8.95312,1.26511-3.47483,3.04887-4.39798,4.81375-7.00414.93886-1.3864,2.21803,1.89729,1.78914,3.18126.72927-.08631,4.77742-3.51691,5.35095-2.0968.99174,2.45642.7577,6.81751-1.40445,10.01148Z"/><path class="cls-2" d="M784.50375,29.79451c6.74501-7.16786,17.28422-3.66655,16.13183-2.98416-2.51902,1.49147-1.68737,3.444-5.05336,9.47574-2.04562,3.66406-4.21087,4.3757-6.6593,6.97623-1.30249,1.3834-2.14176-2.52659-1.42911-3.88745-.8326-.03518-5.98803,3.07609-6.37376,1.38144-.66685-2.93123.38392-7.77459,3.3837-10.9618Z"/><path class="cls-2" d="M820.4052,91.77629c1.40495-9.45133,11.74635-12.50019,11.20584-11.31767-1.18157,2.58474.56329,3.68036,1.22238,10.35367.39964,4.05429-.93204,5.82137-1.4428,9.25107-.27171,1.8245-3.10731-.82728-3.29329-2.30697-.68319.43331-3.06882,5.77014-4.31534,4.633-2.15582-1.9671-4.00197-6.41021-3.37679-10.6131Z"/><path class="cls-2" d="M872.49802,102.76269c-3.32262-6.74124,2.00034-13.34265,2.18019-12.33593.39301,2.20055,2.01193,2.12795,5.4257,6.14859,2.0735,2.44304,2.00338,4.182,3.20848,6.62868.64108,1.30156-2.37989.85608-3.1626-.01759-.24784.58608.59856,5.10547-.71665,4.92811-2.27483-.30702-5.45786-2.35393-6.93512-5.35186Z"/><path class="cls-2" d="M985.39311,144.37152c-3.17066,11.67851-16.63008,13.97733-15.77466,12.57032,1.86996-3.07541-.16189-4.71253.00022-13.2036.09946-5.15853,2.03678-7.18326,3.18853-11.42102.61269-2.25437,3.78528,1.50196,3.79945,3.39062.92362-.44353,4.71666-6.80149,6.11555-5.18616,2.41929,2.79424,4.08138,8.65662,2.6709,13.84984Z"/><path class="cls-2" d="M818.97359,201.39567c1.40222-9.02392,11.30484-11.87267,10.78083-10.74592-1.14552,2.46284.51518,3.52092,1.10307,9.90285.35642,3.87726-.92741,5.5577-1.43714,8.8323-.27116,1.74199-2.96449-.8102-3.13293-2.22554-.65566.40982-2.96924,5.49529-4.15339,4.40066-2.04796-1.89356-3.78438-6.15153-3.16043-10.16435Z"/><path class="cls-2" d="M912.44819,282.28035c-7.3115-8.45158-2.13154-19.948-1.4948-18.56708,1.39166,3.01852,3.69364,2.30623,10.11483,6.80927,3.90053,2.73645,4.45254,5.26474,7.10503,8.33248,1.41105,1.63195-3.10268,2.12524-4.55685,1.16211-.13654.93629,2.77807,7.12085.81919,7.35947-3.38822.41236-8.73638-1.33758-11.9874-5.09626Z"/><path class="cls-2" d="M915.3538,293.29809c2.21161-10.13283,13.63356-12.67953,12.96187-11.43837-1.46833,2.7129.34129,4.02682.56779,11.30187.13677,4.41982-1.43442,6.23626-2.23799,9.91319-.42747,1.95602-3.30469-1.1228-3.39806-2.73883-.77151.41937-3.74473,6.02476-5.01163,4.70226-2.19103-2.28771-3.86591-7.23422-2.88199-11.74013Z"/><path class="cls-2" d="M787.18349,304.55176c-4.82653,8.17635-15.48725,7.11758-14.54758,6.23092,2.05405-1.938.85717-3.59896,2.74495-9.98924,1.14761-3.88205,3.03421-5.01114,4.78653-7.97783.93218-1.57819,2.55155,1.92321,2.16965,3.35504.79097-.14355,4.98233-4.16522,5.70488-2.65232,1.24946,2.61693,1.28825,7.39768-.85843,11.03344Z"/><path class="cls-2" d="M766.66801,336.44771c7.62838-6.22479,17.62162-1.37155,16.38935-.84579-2.69359,1.14908-2.12466,3.19442-6.2531,8.73522-2.50878,3.36571-4.74936,3.78777-7.51826,6.04597-1.47297,1.2013-1.79299-2.78631-.90793-4.04253-.8211-.14398-6.34153,2.26606-6.50203.53489-.27727-2.99435,1.39941-7.65996,4.79197-10.42776Z"/><path class="cls-2" d="M923.14364,472.30602c-1.7662,6.92205-9.69013,8.40036-9.19789,7.56213,1.07604-1.83218-.13806-2.7802-.11896-7.79366.01218-3.04581,1.13746-4.25842,1.77908-6.77022.34132-1.33621,2.24787.85242,2.27327,1.96711.54118-.27013,2.72275-4.05724,3.56304-3.11638,1.45323,1.62753,2.48718,5.07291,1.70147,8.15102Z"/><path class="cls-2" d="M819.75666,466.2948c-3.05027,12.26528-17.05316,14.9659-16.19133,13.47763,1.88399-3.25302-.27416-4.91716-.29428-13.78704-.0112-5.38869,1.96656-7.5461,3.07468-11.99681.58948-2.36765,3.98604,1.4839,4.04296,3.4557.95454-.48373,4.77337-7.20724,6.27011-5.55173,2.58851,2.86375,4.45482,8.9481,3.09785,14.40226Z"/><path class="cls-2" d="M703.03797,485.98478c-3.81234-6.54413,1.07636-13.55325,1.32767-12.5538.54922,2.18465,2.1716,1.99827,5.88502,5.80104,2.25557,2.31071,2.30688,4.06377,3.68972,6.43897.73563,1.26354-2.3325,1.0273-3.18054.20384-.2081.60654.95932,5.09052-.37526,5.00434-2.30835-.14931-5.65157-1.98409-7.34661-4.89438Z"/><path class="cls-2" d="M646.61655,519.42845c-7.70917-6.19886-5.0239-17.03287-4.25012-15.93144,1.69123,2.40763,3.58276,1.4218,9.88961,4.32352,3.83124,1.7636,4.71344,3.87765,7.51046,6.12793,1.48793,1.19708-2.36443,2.34343-3.78371,1.73562.02978.83703,3.55,5.75991,1.88204,6.27878-2.88509.89714-7.82033.22251-11.24828-2.53442Z"/><path class="cls-2" d="M616.32684,543.34913c8.87186-7.36064,20.61811-1.77381,19.18039-1.14652-3.14267,1.37101-2.45706,3.76025-7.23777,10.28672-2.90516,3.96446-5.52437,4.47996-8.74464,7.15024-1.71308,1.42051-2.12578-3.24508-1.10154-4.72429-.9627-.16074-7.40298,2.71354-7.6074.68824-.35318-3.50311,1.56538-8.98154,5.51095-12.25438Z"/><path class="cls-2" d="M724.22742,710.4623c1.1629,9.23365-7.73662,14.80763-7.54003,13.55662.42985-2.73449-1.49432-3.30416-3.86404-9.39042-1.43897-3.69784-.65372-5.7048-1.07483-9.05576-.22402-1.78261,3.13164-.03962,3.69446,1.29945.52707-.58574,1.36394-6.21759,2.83157-5.47817,2.53836,1.27922,5.43613,4.96209,5.95286,9.06829Z"/><path class="cls-2" d="M562.52172,622.98874c-5.82335,9.35815-18.16699,7.84009-17.05239,6.83656,2.43644-2.19342,1.09246-4.15354,3.45675-11.5186,1.43722-4.4742,3.65736-5.73338,5.77154-9.12884,1.12468-1.80629,2.90903,2.30124,2.42696,3.95259.92186-.14513,5.89532-4.69877,6.69281-2.92336,1.37905,3.071,1.29434,8.62039-1.29567,12.78165Z"/><path class="cls-2" d="M602.52709,773.37741c-6.90774.17277-10.364-6.816-9.45443-6.57778,1.98814.5208,2.552-.85833,7.22432-2.15657,2.83871-.78818,4.26298-.0589,6.76978-.12093,1.33354-.033-.2035,2.31643-1.23456,2.63268.39354.43291,4.49183,1.46974,3.8365,2.49898-1.13369,1.78011-4.06977,3.64709-7.14161,3.72362Z"/><path class="cls-2" d="M531.94055,737.34349c-3.87824,8.19031-14.10305,8.10883-13.28682,7.18454,1.78423-2.02026.5025-3.49516,1.74243-9.73286.75401-3.78943,2.44925-5.0263,3.85744-7.99814.74911-1.58094,2.59209,1.60664,2.35331,3.00071.73936-.20506,4.37432-4.39126,5.19235-3.01595,1.41464,2.37898,1.86627,6.91969.14129,10.56169Z"/><path class="cls-2" d="M434.1825,677.15085c6.21613-8.60535,17.97568-6.32784,16.83815-5.43756-2.48654,1.94589-1.32523,3.91841-4.08554,10.8382-1.67776,4.20364-3.8945,5.26622-6.15114,8.38845-1.20046,1.66094-2.64245-2.40411-2.0697-3.95881-.89539.07829-5.97617,4.12366-6.62465,2.36487-1.12132-3.04223-.67177-8.36867,2.09288-12.19515Z"/><path class="cls-2" d="M468.21685,768.83018c-9.41109,10.45437-24.58008,5.78431-22.95506,4.77293,3.55211-2.21053,2.30222-4.97407,6.9212-13.69849,2.80715-5.29979,5.87841-6.38493,9.29466-10.17785,1.81734-2.01773,3.1399,3.54241,2.16461,5.5093,1.19073.02398,8.45865-4.58413,9.06327-2.17498,1.04532,4.16712-.30317,11.1205-4.48867,15.76908Z"/><path class="cls-2" d="M449.5831,804.08758c1.10036,7.06597-5.61,11.54684-5.48707,10.58157.2688-2.10992-1.22187-2.50429-3.17854-7.12577-1.18819-2.8079-.6301-4.367-1.02873-6.93131-.21206-1.36414,2.40442-.1007,2.86675.91517.39168-.46171.90809-4.80613,2.05192-4.27113,1.97833.92557,4.28665,3.68925,4.77567,6.83149Z"/><path class="cls-2" d="M364.9085,789.91693c8.03951,11.77691-.19866,25.59721-.80503,23.75409-1.32521-4.02882-4.34692-3.46063-11.83198-10.10268-4.54662-4.03608-4.87874-7.32136-7.79508-11.59592-1.55142-2.27394,4.24219-2.24291,5.94552-.81053.30923-1.16704-2.48616-9.43078.03172-9.44842,4.35507-.03004,10.88025,2.96599,14.45486,8.20346Z"/><path class="cls-2" d="M330.5183,781.83466c-4.40006,8.121-14.80164,7.47249-13.91982,6.57696,1.92762-1.95738.70475-3.52933,2.3117-9.80904.97699-3.81491,2.77071-4.97994,4.36826-7.92658.84985-1.56753,2.54917,1.7785,2.22905,3.18409.76381-.1678,4.69478-4.22716,5.45124-2.78221,1.30813,2.49941,1.5166,7.14561-.44043,10.75677Z"/><path class="cls-2" d="M361.78879,866.27561c-7.30701,3.957-14.82639-1.64391-13.72175-1.88533,2.41458-.52759,2.26568-2.31315,6.56299-6.25543,2.61118-2.39455,4.53544-2.39086,7.1875-3.82613,1.41082-.76352,1.04682,2.59307.11476,3.49492.65804.24896,5.61534-.87795,5.47519.58268-.24269,2.52635-2.36914,6.12995-5.61869,7.88929Z"/><path class="cls-2" d="M335.52464,940.25132c-2.44905,9.04872-12.87402,10.83769-12.21223,9.74722,1.4467-2.38351-.12828-3.65048-.00786-10.2282.07391-3.99613,1.57343-5.56577,2.46306-8.84926.47325-1.74672,2.93319,1.16119,2.94531,2.62424.71521-.34414,3.64964-5.27166,4.73427-4.02119,1.8758,2.16309,3.16692,6.70338,2.07745,10.72718Z"/><path class="cls-2" d="M333.88882,1019.09503c-7.95826-3.36597-8.29098-13.11005-7.37768-12.36955,1.99623,1.6187,3.34988.33845,9.34208,1.26935,3.64032.56624,4.88667,2.1316,7.77435,3.35387,1.53616.65021-1.42656,2.53387-2.76423,2.36234.22503.69613,4.35895,3.99103,3.08157,4.82553-2.20959,1.44315-6.51724,2.05563-10.05608.55846Z"/><path class="cls-2" d="M241.1129,965.48629c4.02369,13.11882-7.49455,23.46557-7.52527,21.59864-.06694-4.0808-3.00601-4.42183-7.987-12.66363-3.02514-5.00769-2.39188-8.12153-3.85078-12.88267-.7761-2.53279,4.53902-.8493,5.69511.95354.61754-.9841.40932-9.37651,2.72815-8.67348,4.01063,1.21645,9.15105,5.83358,10.93979,11.6676Z"/><path class="cls-2" d="M155.12826,960.61959c-12.893.55896-19.58604-12.37299-17.87944-11.95929,3.73029.90447,4.73601-1.69008,13.41628-4.27416,5.27379-1.5689,7.95829-.25585,12.63715-.45744,2.48901-.10724-.30074,4.33246-2.21523,4.95827.74967.79491,8.43793,2.59077,7.24945,4.53512-2.05604,3.36282-7.47475,6.9495-13.2082,7.19751Z"/><path class="cls-2" d="M101.63472,986.96268c-11.12992-6.14424-10.12453-20.45382-8.9015-19.23038,2.67322,2.67437,4.85008,1.00827,13.47597,3.28816,5.2402,1.38608,6.82428,3.86757,10.86267,6.09837,2.14831,1.18671-2.47555,3.48936-4.40671,3.03351.22268,1.05312,5.76729,6.50768,3.77028,7.53318-3.45434,1.77339-9.85157,2.00994-14.80071-.72285Z"/><path class="cls-2" d="M82.15442,1031.78436c-12.46262-1.75422-16.58356-15.34379-15.02056-14.64394,3.41638,1.52993,4.84166-.77939,13.62434-1.71541,5.33582-.56765,7.6768,1.16831,12.19924,1.80612,2.40581.33929-1.05797,4.10105-3.00497,4.36108.57767.89542,7.63108,3.98319,6.14604,5.63654-2.56892,2.85945-8.40212,5.33624-13.94409,4.55562Z"/><path class="cls-2" d="M150.05586,1109.9114c-8.47874-6.9532-5.38666-18.93306-4.54076-17.70396,1.84887,2.6867,3.95599,1.6142,10.91558,4.89784,4.22776,1.9957,5.18302,4.34836,8.25924,6.87246,1.63646,1.34275-2.64579,2.57223-4.21244,1.88338.02407.92809,3.87335,6.42226,2.01903,6.97956-3.20744.96359-8.67051.16312-12.44065-2.92929Z"/><path class="cls-2" d="M135.26336,1091.40561c-9.143.28421-13.77452-8.93967-12.56853-8.63163,2.63606.67345,3.37141-1.15675,9.54615-2.91289,3.75152-1.06619,5.64281-.11223,8.96078-.21448,1.76507-.0544-.25078,3.0681-1.61314,3.49503.52444.56992,5.95804,1.90953,5.0988,3.2773-1.48646,2.3656-5.35821,4.86068-9.42406,4.98667Z"/><path class="cls-2" d="M27.80138,1053.76563c-.07592,12.93934-13.35671,19.00452-12.85826,17.31583,1.08971-3.69113-1.45904-4.82624-3.6189-13.64656-1.31116-5.35883.13616-7.9825.16497-12.67811.01532-2.49793,4.32394.51479,4.85627,2.46293.83303-.71157,3.01058-8.32249,4.89916-7.0364,3.26634,2.22484,6.59108,7.82828,6.55676,13.58232Z"/><path class="cls-2" d="M163.09487,1156.40974c.69037-8.92682,10.15564-12.45812,9.72836-11.31719-.93409,2.49385.76905,3.40294,1.82488,9.59711.64073,3.76324-.48755,5.5027-.73895,8.74213-.13373,1.72328-2.95895-.56849-3.2303-1.93932-.61003.45004-2.4882,5.59564-3.72826,4.61488-2.14469-1.6966-4.16311-5.72795-3.85572-9.69762Z"/><path class="cls-2" d="M20.54723,1176.87609c5.151,9.17529-1.79545,18.8038-2.12242,17.40984-.71456-3.04699-2.97244-2.82402-8.04675-8.18893-3.08216-3.25991-3.11461-5.69633-4.98299-9.02649-.99393-1.77155,3.26297-1.37542,4.4228-.21271.30252-.83797-1.2199-7.0928.63215-6.94353,3.20336.25855,7.80699,2.8814,10.09721,6.96182Z"/><path class="cls-2" d="M99.84079,1212.7772c-7.63854,10.98816-22.51242,8.3859-21.09898,7.23782,3.08967-2.50937,1.58092-4.96906,4.90215-13.75386,2.01875-5.33662,4.78851-6.7265,7.56157-10.7133,1.47518-2.12087,3.38544,2.96987,2.69902,4.94252,1.12678-.11911,7.43836-5.3339,8.29585-3.13189,1.48275,3.80888,1.03767,10.53268-2.35961,15.41871Z"/><path class="cls-1" d="M109.33755,1320.3252c-7.11283-4.99735-5.37432-14.65053-4.63314-13.72869,1.62,2.01508,3.22263,1.04301,8.91821,3.22883,3.45997,1.3286,4.35382,3.13225,6.93454,4.94646,1.37287.9651-1.9401,2.18946-3.21925,1.73719.07372.73231,3.44065,4.849,2.00751,5.39887-2.47893.95081-6.84506.63993-10.00788-1.58266Z"/><path class="cls-1" d="M152.26083,1307.49388c-9.22554-4.94689-8.54167-16.73869-7.52239-15.74368,2.22787,2.17504,4.00342.78138,11.12842,2.57176,4.32842,1.08852,5.65762,3.11571,9.00504,4.9118,1.78073.95547-2.00314,2.89784-3.59773,2.54194.19393.86484,4.81391,5.30005,3.18,6.16448-2.82627,1.49485-8.09101,1.75395-12.19333-.4463Z"/><path class="cls-1" d="M188.28152,1270.65214c-3.43908,11.04141-16.37379,12.76301-15.50733,11.44941,1.89407-2.87121.01128-4.50618.46499-12.60947.27657-4.92291,2.19799-6.78834,3.44709-10.79487.66448-2.13136,3.56208,1.56762,3.50913,3.3718.89767-.39106,4.74385-6.32942,6.02293-4.73753,2.21207,2.75367,3.59301,8.41076,2.0632,13.32066Z"/><path class="cls-1" d="M186.7262,1255.36649c-10.44333-3.60475-11.71141-16.00591-10.48226-15.14038,2.68663,1.89205,4.30255.1417,12.02706.8104,4.69277.40714,6.41821,2.29607,10.20768,3.60523,2.01589.69643-1.6004,3.35582-3.32164,3.25284.34733.86853,5.90601,4.71373,4.34878,5.88885-2.69371,2.03225-8.1357,3.18652-12.77962,1.58306Z"/><path class="cls-1" d="M261.04541,1261.7c-9.38844,7.56664-21.59079,1.54882-20.07776.9141,3.30729-1.38724,2.62572-3.89632,7.72284-10.65129,3.09741-4.10324,5.8445-4.60348,9.25226-7.34846,1.81282-1.46025,2.17512,3.42561,1.08189,4.9575,1.0045.18242,7.78309-2.72807,7.96679-.60678.31733,3.66914-1.7707,9.3705-5.946,12.73493Z"/><path class="cls-1" d="M268.09094,1217.95048c2.13703,10.22167-7.31136,17.26183-7.20481,15.84487.23304-3.09722-1.97057-3.56004-5.17222-10.15232-1.94433-4.00535-1.2479-6.32109-2.02242-10.03069-.41203-1.9734,3.49887-.32799,4.24963,1.11865.53642-.70284.96221-7.07737,2.67061-6.38334,2.9548,1.20075,6.52932,5.05722,7.4792,9.60282Z"/><path class="cls-1" d="M272.96697,1207.48019c-4.50532,3.34471-10.06787.32094-9.35261.05378,1.56346-.58388,1.29294-1.76315,3.78789-4.80981,1.5161-1.85064,2.80268-2.03245,4.43797-3.24579.86992-.64546.94804,1.63305.41139,2.32513.4637.1034,3.6694-1.12458,3.71559-.13483.07971,1.71194-.9966,4.32433-3.00024,5.81151Z"/><path class="cls-1" d="M301.38118,1185.20514c-.65203,6.72845-7.84884,9.25533-7.50957,8.40034.74168-1.86883-.53064-2.58005-1.23682-7.27131-.42849-2.85015.44872-4.14667.686-6.58833.12622-1.29889,2.22528.47252,2.41002,1.51129.46709-.33078,1.96031-4.18748,2.88202-3.42896,1.59408,1.31216,3.05861,4.38489,2.76837,7.37696Z"/><path class="cls-1" d="M348.15818,1215.40151c-9.47773-4.93047-8.93039-16.97262-7.87752-15.97023,2.30129,2.19117,4.09543.74628,11.38928,2.48238,4.43101,1.05557,5.81332,3.10732,9.25226,4.89748,1.82942.95231-2.00719,2.98279-3.639,2.63996.20895.88009,4.98021,5.34719,3.32386,6.25019-2.8651,1.56156-8.2344,1.89318-12.44888-.29978Z"/><path class="cls-1" d="M346.99727,1146.30232c7.60304,8.51716,2.49436,20.34314,1.82198,18.94264-1.46955-3.06132-3.80972-2.29714-10.44056-6.79499-4.0279-2.73332-4.63196-5.30721-7.39023-8.39878-1.46733-1.64462,3.13564-2.22025,4.63638-1.25951.1246-.95859-2.95096-7.22985-.95375-7.50473,3.45454-.47507,8.94553,1.22752,12.32618,5.01538Z"/><path class="cls-1" d="M388.90469,1172.48561c-10.0453,1.82942-16.68686-7.58448-15.30457-7.44438,3.02143.30639,3.52974-1.83577,10.05454-4.79789,3.96433-1.79882,6.21015-1.05933,9.85572-1.72223,1.93933-.35265.2318,3.42826-1.20126,4.12537.67338.54216,6.89328,1.12012,6.17156,2.77236-1.24865,2.85767-5.10883,6.25367-9.57599,7.06677Z"/><path class="cls-1" d="M331.01095,1098.95813c-9.33955,2.99962-16.84388-5.13633-15.50967-5.17585,2.91635-.08625,3.13247-2.19033,8.97689-5.82834,3.55106-2.20952,5.78281-1.78616,9.17238-2.8738,1.80315-.57859.6498,3.23653-.628,4.07988.70926.43216,6.70625.20434,6.22553,1.86847-.83178,2.87827-4.08376,6.59613-8.23713,7.92964Z"/><path class="cls-1" d="M339.40479,1080.05898c-12.22585-6.311-11.57007-21.82153-10.21006-20.53491,2.97261,2.81248,5.27728.94439,14.67763,3.15047,5.71071,1.34133,7.49927,3.97802,11.93535,6.26943,2.35987,1.21896-2.57277,3.84953-4.67567,3.41466.27268,1.13255,6.43549,6.866,4.30606,8.03567-3.68341,2.02271-10.59684,2.47167-16.03332-.33531Z"/><path class="cls-1" d="M405.74653,1078.78595c-11.09819-9.06806-7.0849-24.73323-5.97641-23.12875,2.42282,3.50723,5.17434,2.1005,14.27836,6.37596,5.53044,2.5985,6.78451,5.67123,10.81111,8.96306,2.14203,1.75115-3.45206,3.36817-5.50131,2.47149.03364,1.21298,5.07761,8.38492,2.65529,9.11768-4.18993,1.26696-11.33214.23355-16.26704-3.79944Z"/><path class="cls-1" d="M411.65113,1051.73179c-11.30044,6.65224-23.47452-1.7568-21.74606-2.1998,3.77816-.96813,3.44269-3.77565,9.99752-10.23501,3.98298-3.92349,7.01781-4.02614,11.11933-6.4391,2.18188-1.28363,1.79704,4.03038.37799,5.50517,1.05179.35552,8.80614-1.70108,8.66746.61029-.24032,3.99785-3.39071,9.80074-8.41622,12.75846Z"/><path class="cls-1" d="M447.26036,1040.62726c-.08716,7.26589-7.56593,10.62612-7.28022,9.67955.62463-2.06903-.80272-2.71522-1.98525-7.67575-.71785-3.01379.10393-4.48215.13627-7.11889.0172-1.40267,2.42636.30396,2.71859,1.39978.47024-.39672,1.71925-4.66318,2.77536-3.93447,1.82658,1.26061,3.67432,4.4187,3.63524,7.64979Z"/><path class="cls-1" d="M450.08443,1004.12253c-9.02175-1.26505-12.00987-11.10033-10.87823-10.59433,2.47354,1.10614,3.50434-.566,9.86135-1.24688,3.86213-.41293,5.55731.84276,8.83113,1.30272,1.74158.24468-.76425,2.96895-2.1735,3.15792.41849.64793,5.52529,2.88033,4.45097,4.07768-1.85843,2.07079-6.07986,3.86584-10.09172,3.30289Z"/><path class="cls-1" d="M381.64678,957.20843c-5.55507-.35132-7.8327-6.20429-7.11975-5.94863,1.55836.5589,2.10862-.50772,5.9498-1.21804,2.3337-.4311,3.42482.2551,5.44069.38313,1.07238.06811-.32759,1.84428-1.17735,2.02491.28507.37528,3.50003,1.49792,2.90119,2.27731-1.03594,1.34796-3.52429,2.63779-5.99458,2.48132Z"/><path class="cls-1" d="M468.45584,954.0515c-9.00802-1.19708-12.0592-10.98602-10.92678-10.48943,2.47522,1.08559,3.49142-.58973,9.82746-1.31453,3.8494-.43961,5.5493.80073,8.81815,1.23602,1.73893.23156-.741,2.96693-2.14533,3.16554.42208.64329,5.53199,2.83338,4.46899,4.03541-1.83886,2.0789-6.03673,3.89972-10.04249,3.367Z"/><path class="cls-1" d="M397.73494,901.80199c-7.1267-7.95352-2.36882-19.02433-1.73744-17.7155,1.37996,2.86095,3.56759,2.14204,9.77786,6.33765,3.77243,2.54966,4.34197,4.95618,6.92744,7.84317,1.3754,1.53579-2.92915,2.08229-4.3346,1.18625-.11487.89687,2.77296,6.75754.90527,7.01816-3.2305.45043-8.36968-1.13254-11.53853-4.66973Z"/><path class="cls-1" d="M466.89259,878.865c3.61553,3.95954,1.27899,9.54018.95583,8.88605-.70631-1.42986-1.80124-1.05861-4.93896-3.13578-1.90601-1.26229-2.2033-2.46783-3.51497-3.90507-.69777-.76457,1.46079-1.05924,2.17064-.61601.05344-.45083-1.42405-3.37961-.48759-3.51927,1.61978-.24137,4.20742.52914,5.81505,2.29008Z"/><path class="cls-1" d="M498.93661,853.26393c-9.64639-5.85266-8.23516-18.50526-7.19506-17.37594,2.27336,2.4686,4.26422,1.07024,11.83049,3.40522,4.59644,1.41943,5.91101,3.67744,9.41106,5.80228,1.86193,1.13035-2.32194,3.00431-4.01785,2.52994.15921.94195,4.87784,5.98018,3.06973,6.81703-3.12756,1.44711-8.80894,1.42454-13.09837-1.17852Z"/><path class="cls-1" d="M499.91766,808.78782c-9.56616,4.09422-18.2985-3.75402-16.89335-3.92809,3.07146-.38033,3.09102-2.62391,8.9026-7.04571,3.5312-2.68569,5.93018-2.45992,9.40209-3.94476,1.84695-.7899,1.00725,3.3537-.25861,4.37111.79192.38607,7.10284-.4493,6.7602,1.35589-.593,3.12229-3.65874,7.3713-7.91293,9.19156Z"/><path class="cls-1" d="M531.27505,769.83693c3.22114,5.91014-1.29928,12.01312-1.49724,11.11888-.43261-1.95469-1.87862-1.83018-5.08127-5.30246-1.9453-2.10987-1.94651-3.66854-3.11487-5.81361-.62154-1.14111,2.09814-.85358,2.83067-.10058.20022-.53356-.72338-4.54657.46004-4.43623,2.0469.19107,4.97049,1.90567,6.40266,4.53401Z"/><path class="cls-1" d="M538.39932,738.3863c6.84389,7.76043,2.14939,18.45008,1.54768,17.17717-1.31509-2.78243-3.4401-2.10266-9.42487-6.21518-3.63544-2.49915-4.16882-4.8351-6.65167-7.65199-1.32081-1.4985,2.85388-1.99502,4.20872-1.11612.11816-.86807-2.63487-6.56835-.82334-6.80655,3.13335-.41166,8.10039,1.16136,11.14348,4.61267Z"/><path class="cls-1" d="M572.43427,717.54132c-4.56447,5.85122-12.72076,3.95685-11.90314,3.36425,1.78725-1.29523,1.02686-2.70316,3.13367-7.46601,1.28049-2.89332,2.85648-3.57844,4.51347-5.70138.88147-1.12934,1.78396,1.74763,1.34374,2.81895.62753-.0316,4.28123-2.72657,4.68888-1.48118.70486,2.15418.25342,5.86356-1.77663,8.46536Z"/><path class="cls-1" d="M556.52457,688.04789c-6.18963.4376-9.57606-5.69037-8.75037-5.51389,1.8048.38585,2.25419-.87439,6.39246-2.23016,2.51427-.82319,3.82176-.22725,6.06799-.38546,1.19493-.08416-.08778,2.08632-.99977,2.41219.37074.37225,4.0896,1.13467,3.54384,2.08479-.94416,1.64326-3.50164,3.43819-6.25415,3.63252Z"/><path class="cls-1" d="M552.71083,650.15143c-6.3072,6.90866-16.37323,3.73244-15.28786,3.0674,2.37251-1.45354,1.55415-3.29717,4.66644-9.07765,1.89146-3.51144,3.93897-4.21881,6.22849-6.72531,1.21796-1.33339,2.07164,2.37038,1.41391,3.67388.79175.02148,5.64651-3.00924,6.0374-1.40428.67579,2.77609-.25331,7.39399-3.05838,10.46595Z"/><path class="cls-1" d="M608.11718,626.42269c2.45404,5.41064-1.91926,10.49129-2.0358,9.69131-.25465-1.74864-1.5356-1.73239-4.13074-4.99578-1.57625-1.9829-1.47669-3.35508-2.36672-5.31881-.47347-1.04465,1.9021-.61597,2.49834.0942.2107-.45677-.34329-4.04905.69136-3.87552,1.78956.30034,4.25251,1.99843,5.34357,4.40462Z"/><path class="cls-1" d="M675.82222,635.28043c5.42456,11.17375-3.43765,22.03103-3.72494,20.36549-.62778-3.64063-3.304-3.53663-8.90607-10.21507-3.40264-4.05797-3.26959-6.93118-5.23704-10.9866-1.04663-2.15737,3.94159-1.3913,5.22651.0603.41538-.96614-.93879-8.44349,1.23305-8.13739,3.75647.52987,8.99671,3.94414,11.40849,8.91327Z"/><path class="cls-1" d="M677.65898,586.51355c4.98033,4.9231,2.30542,12.35819,1.84021,11.52657-1.01677-1.81785-2.42013-1.26048-6.6515-3.76024-2.57038-1.51916-3.03867-3.07172-4.84552-4.85877-.9612-.95066,1.83462-1.47918,2.7901-.94846.03959-.5916-2.08317-4.31304-.87103-4.55774,2.09662-.42302,5.52323.40917,7.73774,2.59865Z"/><path class="cls-1" d="M640.38006,542.78052c-7.16019-1.24863-9.28136-9.17061-8.39245-8.73704,1.94295.9478,2.80937-.35814,7.89647-.73203,3.09059-.22657,4.40892.81978,7.00719,1.2736,1.38221.24141-.68835,2.34709-1.81709,2.46029.31647.52778,4.3292,2.44366,3.44072,3.36984-1.53695,1.60181-4.9508,2.92091-8.13484,2.36534Z"/><path class="cls-1" d="M676.34988,496.5159c9.46924,9.90954,3.82127,24.3068,2.9575,22.65381-1.88789-3.61323-4.66458-2.60104-12.80366-7.72767-4.94412-3.1155-5.77371-6.17914-9.20908-9.77618-1.82752-1.91352,3.67183-2.79163,5.51159-1.70002.11046-1.15522-3.83509-8.55444-1.44997-8.96559,4.12552-.71069,10.78313,1.10852,14.99361,5.51564Z"/><path class="cls-1" d="M729.62835,508.26483c2.97967,9.83176-5.66957,17.54934-5.6879,16.15154-.03992-3.05536-2.23948-3.31802-5.94804-9.50087-2.25234-3.75668-1.77046-6.08635-2.85081-9.65453-.57472-1.89817,3.40036-.62451,4.2614.72811.46479-.73523.32986-7.01893,2.06415-6.48679,2.99962.92074,6.83659,4.3903,8.1612,8.76255Z"/><path class="cls-1" d="M693.01629,488.37054c-13.0092-5.95081-13.09398-22.09219-11.61796-20.82308,3.22618,2.77422,5.52753.72025,15.39952,2.54728,5.99729,1.1111,7.98504,3.76121,12.70543,5.92199,2.51111,1.14947-2.48195,4.12509-4.68746,3.77729.33912,1.16279,7.02282,6.81315,4.86898,8.13309-3.72565,2.28263-10.88366,3.09029-16.6685.44343Z"/><path class="cls-1" d="M742.56365,491.63434c-8.05276-6.84873-4.8654-18.34296-4.07124-17.1436,1.73577,2.62169,3.78539,1.62426,10.43717,4.90961,4.04076,1.9967,4.92094,4.28096,7.84258,6.76711,1.55423,1.32256-2.59474,2.43374-4.09297,1.74269.00718.89502,3.62271,6.25742,1.82567,6.7626-3.10836.87344-8.36049.00752-11.94121-3.03841Z"/><path class="cls-1" d="M727.9613,447.19043c-4.50888,13.53728-20.50625,15.34874-19.40571,13.74925,2.40577-3.4961.12269-5.5584.87799-15.54339.46001-6.06606,2.87524-8.3208,4.5128-13.23297.87113-2.61313,4.35622,2.01975,4.24735,4.24405,1.11678-.46072,6.00464-7.69324,7.54404-5.69865,2.66225,3.45023,4.22918,10.46197,2.22353,16.48172Z"/><path class="cls-1" d="M792.05537,432.8486c8.9792,11.4868,1.48411,26.13125.74395,24.29058-1.61768-4.02348-4.66343-3.2446-12.73853-9.52857-4.90512-3.81861-5.46049-7.14886-8.71788-11.31823-1.73284-2.21798,4.18072-2.56811,6.0131-1.21883.23862-1.21117-3.15824-9.45888-.59027-9.6428,4.44172-.31764,11.29714,2.30936,15.28963,7.41786Z"/><path class="cls-1" d="M834.5946,399.65296c.45805,14.86365-14.53897,22.38895-14.03768,20.42854,1.09596-4.28508-1.87903-5.48131-4.73124-15.52018-1.73164-6.09921-.17999-9.1734-.34477-14.56739-.08766-2.86944,4.98761.40902,5.68106,2.62396.92672-.85232,3.10687-9.68499,5.33004-8.28754,3.84505,2.41752,7.89953,8.71281,8.10257,15.3226Z"/><path class="cls-1" d="M822.3892,373.70042c-6.02298,4.74544-13.73981.83318-12.77327.44021,2.11275-.85887,1.69698-2.45911,4.98554-6.71858,1.99838-2.58737,3.74868-2.88616,5.93485-4.60767,1.16298-.9158,1.35903,2.19352.65312,3.15992.63745.12305,4.96819-1.68003,5.0701-.32987.17601,2.33533-1.19176,5.94598-3.87034,8.05599Z"/><path class="cls-1" d="M772.3317,311.25427c8.36033,6.23209,5.95018,17.74841,5.09253,16.61805-1.87456-2.47087-3.82902-1.35933-10.58476-4.17238-4.10397-1.70978-5.11495-3.90265-8.14827-6.16505-1.61364-1.20353,2.40017-2.55991,3.91872-1.97447-.0637-.88058-3.96209-5.93037-2.2251-6.54138,3.0045-1.0565,8.22936-.53649,11.94688,2.23524Z"/><path class="cls-1" d="M788.24773,291.34978c4.06003,3.70789,2.1921,9.62406,1.80133,8.98605-.8541-1.39464-1.93781-.91383-5.33507-2.74374-2.06372-1.11211-2.47927-2.31564-3.95228-3.66161-.7836-.71602,1.39345-1.2174,2.15954-.83067.01271-.46536-1.76815-3.31916-.82476-3.54874,1.63177-.39692,4.34593.14966,6.15124,1.79871Z"/><path class="cls-1" d="M866.00994,286.66896c-6.11449-6.84948-2.00616-16.36004-1.46542-15.23376,1.18185,2.46192,3.06382,1.84734,8.39642,5.46447,3.23928,2.19812,3.7251,4.26805,5.94334,6.75428,1.18005,1.3226-2.52168,1.78557-3.72859,1.01295-.10019.77091,2.37325,5.81426.76708,6.03534-2.77815.38209-7.19405-.9871-9.91283-4.03328Z"/><path class="cls-1" d="M871.15196,246.04403c-6.96774.85403-11.14984-5.87273-10.2067-5.72131,2.06152.33108,2.49603-1.11887,7.09276-2.89108,2.79284-1.07614,4.3047-.4788,6.83334-.78805,1.34516-.16451.02204,2.36226-.98941,2.78343.4405.39903,4.68644,1.04437,4.12502,2.14954-.97126,1.91145-3.75646,4.08798-6.85501,4.46746Z"/><path class="cls-1" d="M831.00077,219.21556c-6.3176-3.30741-5.93137-11.34431-5.23035-10.67341,1.53225,1.46654,2.73231.50523,7.59776,1.67669,2.95576.71225,3.87486,2.08415,6.16716,3.285,1.21944.63882-1.34492,1.98746-2.43352,1.75579.13794.5878,3.31489,3.57776,2.20775,4.17762-1.91509,1.03733-5.49955,1.24937-8.3088-.22169Z"/><path class="cls-1" d="M782.11424,192.40106c-9.29066-2.6691-10.96925-13.44619-9.85546-12.74649,2.43449,1.52954,3.76585-.07416,10.54586.15468,4.11901.13981,5.71352,1.71086,9.08479,2.68036,1.79342.51575-1.24393,3.00577-2.75259,2.99498.34344.74289,5.37724,3.84684,4.07068,4.94525-2.2601,1.89961-6.9619,3.15855-11.09328,1.97121Z"/><path class="cls-1" d="M863.14668,136.60284c4.6309,8.23591-1.60091,16.88607-1.89536,15.63455-.64348-2.73564-2.67082-2.53406-7.23056-7.34846-2.76961-2.9254-2.80021-5.11318-4.47994-8.1024-.89357-1.59018,2.92918-1.23703,3.97135-.19367.27114-.75264-1.09968-6.36829.56346-6.23536,2.87664.23023,7.01207,2.58267,9.07105,6.24533Z"/><path class="cls-2" d="M387.37749,1383.31924c-5.87657-5.69618-2.83582-14.41569-2.28264-13.44916,1.20906,2.11273,2.84268,1.44529,7.81622,4.31808,3.02123,1.74587,3.58628,3.55487,5.7183,5.62255,1.13418,1.09995-2.12703,1.74963-3.24972,1.14037-.03949.69181,2.48388,5.01646,1.07015,5.31632-2.44531.51838-6.45929-.41485-9.07232-2.94816Z"/><path class="cls-2" d="M349.59517,1324.07567c-11.26888-4.50398-12.00843-18.17709-10.70531-17.16283,2.84831,2.21714,4.71328.38161,13.15341,1.52128,5.12747.69335,6.92133,2.85656,11.01031,4.49213,2.17522.87007-1.93232,3.59787-3.81544,3.39441.33544.9712,6.23229,5.48228,4.46194,6.68976-3.06232,2.0882-9.0939,3.06863-14.10491,1.06525Z"/><path class="cls-2" d="M212.43486,1286.66118c-3.73228,10.97-16.73308,12.35758-15.83099,11.06439,1.97196-2.8266.12865-4.5133.79413-12.61809.40523-4.9238,2.37839-6.74226,3.73388-10.72285.72108-2.11756,3.52711,1.66296,3.42709,3.46873.90933-.36832,4.91648-6.21628,6.1562-4.58846,2.14399,2.8158,3.37989,8.51816,1.71969,13.39629Z"/><path class="cls-2" d="M361.7623,1195.88835c-2.33595,6.87939-10.4867,7.75425-9.92159,6.94311,1.23532-1.77297.07897-2.8298.49317-7.91161.25222-3.08729,1.48868-4.22816,2.33705-6.72443.45131-1.32794,2.21206,1.04132,2.15002,2.17354.56999-.23127,3.08021-3.89934,3.85811-2.87919,1.3453,1.76465,2.12232,5.33946,1.08324,8.39858Z"/><path class="cls-2" d="M206.36113,1182.30393c-5.70736,7.01478-15.59726,4.50293-14.58629,3.80138,2.20987-1.53338,1.31863-3.26774,4.00449-9.01792,1.63239-3.49309,3.56963-4.28842,5.64148-6.83349,1.10216-1.35391,2.12982,2.17382,1.56671,3.46806.76534-.02281,5.28419-3.21493,5.74973-1.68742.80493,2.64216.16221,7.15021-2.37612,10.26939Z"/><path class="cls-2" d="M174.6775,1163.23875c-1.00319-13.41322,12.25036-20.80796,11.87509-19.01658-.82047,3.91562,1.91528,4.87863,4.89065,13.83707,1.80659,5.44284.52633,8.28231.88908,13.15.19298,2.58947-4.52322-.17187-5.23766-2.14589-.80363.80693-2.42352,8.87491-4.48787,7.70027-3.57038-2.03213-7.48375-7.56006-7.92929-13.52488Z"/><path class="cls-2" d="M289.54919,1135.36128c-12.97232-3.35548-15.69619-18.22699-14.12701-17.29856,3.42986,2.02956,5.21548-.2418,14.61879-.17501,5.71275.04165,7.98021,2.15974,12.68747,3.37869,2.50413.64844-1.6127,4.21093-3.70361,4.25168.50332,1.01673,7.5931,5.13192,5.82319,6.70219-3.06162,2.71568-9.53027,4.63373-15.29884,3.14101Z"/><path class="cls-2" d="M131.16302,1077.87126c.24539-13.55886,14.24079-19.74469,13.69679-17.98141-1.18927,3.85417,1.46715,5.07638,3.61754,14.34735,1.30536,5.63262-.245,8.36355-.33537,13.28397-.04807,2.61752-4.5247-.59489-5.05758-2.64327-.8821.73501-3.26161,8.683-5.22427,7.31104-3.39446-2.37339-6.80682-8.28815-6.69711-14.31768Z"/><path class="cls-2" d="M293.50297,1012.14754c6.76873,12.21427-2.52042,24.94142-2.94414,23.0891-.92599-4.0489-3.92406-3.76953-10.6189-10.92646-4.06648-4.3488-4.0917-7.58241-6.54685-12.01556-1.30607-2.35831,4.34037-1.80143,5.87106-.24991.40761-1.10985-1.567-9.4218.88976-9.21014,4.2493.36657,10.33958,3.88107,13.34906,9.31297Z"/><path class="cls-2" d="M226.3891,977.21011c-10.01454-4.34039-10.32606-16.65187-9.18073-15.70636,2.50339,2.06686,4.22746.46488,11.78584,1.70758,4.59178.75584,6.14858,2.74697,9.78238,4.32304,1.93308.83842-1.83017,3.18462-3.51787,2.95303.27647.8818,5.46127,5.08973,3.83848,6.12953-2.80705,1.79819-8.25489,2.52374-12.7081.59317Z"/><path class="cls-2" d="M217.03945,830.85521c3.57494-6.50291,11.92853-5.93081,11.21566-5.21566-1.55829,1.56312-.58353,2.83205-1.90542,7.86936-.80366,3.06015-2.25048,3.98734-3.54844,6.34687-.69047,1.2552-2.03931-1.44139-1.77521-2.56909-.61448.13106-3.79261,3.3731-4.39326,2.20849-1.03869-2.01448-1.18336-5.74832.40667-8.63997Z"/><path class="cls-2" d="M421.97059,902.08482c-8.4801,3.34268-15.92756-3.75065-14.69276-3.86747,2.69908-.25522,2.77305-2.21927,7.97383-5.94389,3.16004-2.26221,5.25494-2.00375,8.33264-3.21597,1.63725-.64487.79702,2.96211-.33717,3.82091.68364.35811,6.23082-.21349,5.88506,1.3585-.59834,2.71894-3.39042,6.36183-7.1616,7.84793Z"/></g></svg>