<svg width="1613" height="2586" viewBox="0 0 1613 2586" fill="none" xmlns="http://www.w3.org/2000/svg">
<g clip-path="url(#clip0_191_370)">
<path d="M1091.55 108.455C1095.12 121.226 1083.74 130.943 1083.76 129.139C1083.79 125.195 1080.96 124.794 1076.35 116.711C1073.55 111.801 1074.23 108.808 1072.94 104.173C1072.25 101.707 1077.35 103.462 1078.42 105.232C1079.04 104.296 1079.04 96.1838 1081.26 96.9191C1085.11 98.1914 1089.96 102.776 1091.55 108.455Z" fill="#F6C3D9"/>
<path d="M1175.52 160.455C1179.6 170.801 1170.95 179.898 1170.81 178.391C1170.5 175.097 1168.1 175.008 1163.55 168.665C1160.78 164.81 1161.1 162.253 1159.61 158.498C1158.83 156.5 1163.23 157.522 1164.28 158.906C1164.71 158.071 1164.01 151.301 1165.93 151.722C1169.25 152.449 1173.7 155.854 1175.52 160.455Z" fill="#F6C3D9"/>
<path d="M1110.26 214.676C1101.43 222.609 1089.12 217.336 1090.57 216.633C1093.75 215.095 1092.95 212.664 1097.61 205.754C1100.43 201.557 1103.11 200.921 1106.31 198.043C1108.02 196.512 1108.63 201.296 1107.64 202.859C1108.64 202.986 1115.15 199.767 1115.44 201.843C1115.94 205.434 1114.19 211.149 1110.26 214.676Z" fill="#F6C3D9"/>
<path d="M1062.73 260.298C1054.69 272.438 1038.45 269.974 1039.96 268.691C1043.26 265.885 1041.55 263.247 1044.95 253.61C1047.01 247.756 1049.99 246.176 1052.91 241.771C1054.46 239.428 1056.67 244.918 1055.97 247.08C1057.19 246.923 1063.93 241.095 1064.91 243.469C1066.62 247.576 1066.3 254.9 1062.73 260.298Z" fill="#F6C3D9"/>
<path d="M1189.7 306.805C1196.06 320.93 1184.62 334.145 1184.32 332.058C1183.67 327.497 1180.33 327.53 1173.59 319.002C1169.49 313.821 1169.76 310.244 1167.46 305.117C1166.23 302.39 1172.42 303.525 1173.97 305.381C1174.52 304.192 1173.1 294.822 1175.8 295.282C1180.46 296.078 1186.87 300.523 1189.7 306.805Z" fill="#F6C3D9"/>
<path d="M1041.23 344.811C1034.32 338.361 1037.64 328.22 1038.3 329.325C1039.74 331.739 1041.61 330.931 1047.42 334.14C1050.95 336.09 1051.64 338.167 1054.15 340.509C1055.49 341.754 1051.73 342.577 1050.42 341.898C1050.39 342.698 1053.4 347.638 1051.78 348.016C1048.96 348.669 1044.31 347.68 1041.23 344.811Z" fill="#F6C3D9"/>
<path d="M1125.21 422.777C1115.39 420.582 1112.97 409.484 1114.17 410.142C1116.8 411.58 1118.08 409.829 1125.15 409.644C1129.44 409.532 1131.19 411.066 1134.76 411.863C1136.65 412.287 1133.65 415.066 1132.08 415.149C1132.49 415.899 1137.91 418.812 1136.62 420.035C1134.39 422.151 1129.58 423.754 1125.21 422.777Z" fill="#F6C3D9"/>
<path d="M1025.12 411.769C1021.73 421.808 1009.84 423.101 1010.66 421.917C1012.46 419.329 1010.77 417.79 1011.37 410.377C1011.73 405.874 1013.53 404.208 1014.76 400.565C1015.41 398.627 1017.99 402.079 1017.9 403.73C1018.73 403.392 1022.38 398.037 1023.52 399.523C1025.49 402.093 1026.63 407.305 1025.12 411.769Z" fill="#F6C3D9"/>
<path d="M1003.29 467.501C997.283 475.537 986.204 473.201 987.293 472.377C989.673 470.577 988.607 468.694 991.324 462.197C992.975 458.251 995.087 457.281 997.268 454.365C998.429 452.814 999.728 456.679 999.163 458.139C1000.01 458.079 1004.88 454.335 1005.46 456.008C1006.47 458.9 1005.96 463.928 1003.29 467.501Z" fill="#F6C3D9"/>
<path d="M1087.41 555.444C1096.52 560.107 1096.08 571.648 1095.06 570.694C1092.84 568.61 1091.13 570.006 1084.13 568.389C1079.88 567.406 1078.55 565.45 1075.24 563.757C1073.48 562.856 1077.14 560.886 1078.71 561.204C1078.5 560.362 1073.9 556.113 1075.48 555.237C1078.22 553.723 1083.36 553.371 1087.41 555.444Z" fill="#F6C3D9"/>
<path d="M947.026 552.597C931.471 554.578 922.059 539.596 924.167 539.925C928.775 540.643 929.731 537.399 939.98 533.393C946.207 530.96 949.59 532.278 955.235 531.561C958.238 531.179 955.309 536.837 953.054 537.788C954.043 538.675 963.534 540.072 962.291 542.547C960.142 546.826 953.943 551.717 947.026 552.597Z" fill="#F6C3D9"/>
<path d="M996.442 650.103C988.558 644.904 990.136 634.366 990.971 635.343C992.794 637.479 994.504 636.372 1000.76 638.563C1004.56 639.895 1005.59 641.825 1008.45 643.713C1009.97 644.717 1006.41 646.152 1005.01 645.702C1005.11 646.495 1008.9 650.858 1007.36 651.501C1004.7 652.613 999.948 652.415 996.442 650.103Z" fill="#F6C3D9"/>
<path d="M935.659 673.598C923.275 671.812 919.225 658.287 920.776 658.988C924.168 660.521 925.592 658.23 934.327 657.33C939.634 656.784 941.955 658.518 946.449 659.167C948.84 659.513 945.383 663.241 943.447 663.493C944.018 664.385 951.019 667.479 949.537 669.117C946.974 671.951 941.166 674.394 935.659 673.598Z" fill="#F6C3D9"/>
<path d="M891.931 691.305C879.59 692.27 872.743 680.097 874.392 680.436C877.999 681.179 878.876 678.658 887.111 675.892C892.114 674.212 894.732 675.381 899.21 675.032C901.593 674.846 899.066 679.195 897.252 679.859C897.997 680.596 905.427 682.061 904.353 683.964C902.494 687.257 897.419 690.876 891.931 691.305Z" fill="#F6C3D9"/>
<path d="M923.075 762.949C930.333 768.882 927.707 779.128 926.982 778.078C925.397 775.784 923.597 776.704 917.643 773.906C914.025 772.206 913.206 770.196 910.572 768.042C909.171 766.897 912.83 765.84 914.171 766.426C914.149 765.633 910.85 760.941 912.435 760.462C915.176 759.634 919.847 760.31 923.075 762.949Z" fill="#F6C3D9"/>
<path d="M863.182 730.696C863.29 743.272 850.469 749.354 850.93 747.706C851.937 744.103 849.444 743.036 847.22 734.495C845.87 729.305 847.24 726.735 847.202 722.171C847.181 719.743 851.411 722.61 851.956 724.496C852.756 723.793 854.765 716.366 856.618 717.589C859.824 719.705 863.134 725.104 863.182 730.696Z" fill="#F6C3D9"/>
<path d="M860.272 810.676C861.511 821.933 850.577 828.545 850.84 827.027C851.415 823.708 849.085 822.978 846.317 815.528C844.637 811.001 845.63 808.574 845.182 804.489C844.943 802.316 848.993 804.5 849.652 806.14C850.304 805.438 851.43 798.601 853.201 799.529C856.266 801.134 859.721 805.67 860.272 810.676Z" fill="#F6C3D9"/>
<path d="M778.834 758.794C773.389 751.805 777.958 742.914 778.406 744.033C779.385 746.48 781.237 746.009 786.138 749.836C789.115 752.161 789.449 754.185 791.424 756.722C792.475 758.072 788.881 758.279 787.769 757.457C787.623 758.193 789.679 763.208 788.118 763.317C785.419 763.506 781.255 761.903 778.834 758.794Z" fill="#F6C3D9"/>
<path d="M815.637 807.676C825.683 814.123 823.853 827.466 822.783 826.244C820.445 823.572 818.302 824.998 810.363 822.327C805.54 820.703 804.21 818.28 800.565 815.94C798.626 814.695 803.101 812.825 804.881 813.372C804.738 812.371 799.883 806.917 801.817 806.08C805.163 804.634 811.171 804.809 815.637 807.676Z" fill="#F6C3D9"/>
<path d="M773.432 818.046C763.041 818.462 757.682 808.024 759.056 808.362C762.059 809.1 762.877 807.012 769.878 804.953C774.132 803.702 776.292 804.768 780.063 804.617C782.069 804.538 779.809 808.108 778.264 808.607C778.866 809.25 785.057 810.717 784.094 812.281C782.429 814.985 778.053 817.861 773.432 818.046Z" fill="#F6C3D9"/>
<path d="M714.805 805.877C721.825 819.453 711.263 833.084 710.857 831.044C709.972 826.585 706.683 826.796 699.584 818.756C695.273 813.871 695.347 810.332 692.801 805.405C691.446 802.784 697.606 803.571 699.231 805.317C699.712 804.115 697.814 794.96 700.495 795.269C705.132 795.804 711.684 799.84 714.805 805.877Z" fill="#F6C3D9"/>
<path d="M629.664 786.081C635.415 793.007 631.056 802.182 630.566 801.06C629.494 798.606 627.628 799.142 622.53 795.411C619.433 793.143 619.029 791.098 616.943 788.584C615.833 787.247 619.476 786.923 620.632 787.722C620.757 786.97 618.51 781.942 620.092 781.781C622.827 781.504 627.107 783.001 629.664 786.081Z" fill="#F6C3D9"/>
<path d="M659.034 908.702C645.173 913.26 633.928 901.236 635.912 901.164C640.249 901.005 640.548 897.874 649.204 892.402C654.463 889.079 657.786 889.686 662.817 888.033C665.493 887.154 663.816 892.84 661.925 894.108C662.984 894.743 671.901 894.343 671.203 896.823C669.996 901.112 665.197 906.676 659.034 908.702Z" fill="#F6C3D9"/>
<path d="M603.226 905.712C609.906 915.385 603.177 926.815 602.669 925.298C601.558 921.983 599.07 922.465 592.869 917.023C589.103 913.716 588.815 911.009 586.391 907.499C585.102 905.631 589.878 905.631 591.289 906.804C591.539 905.84 589.197 899.041 591.273 899.015C594.863 898.97 600.255 901.411 603.226 905.712Z" fill="#F6C3D9"/>
<path d="M656.554 1032.34C643.124 1036.45 632.533 1024.66 634.444 1024.63C638.622 1024.56 638.971 1021.56 647.408 1016.46C652.535 1013.36 655.722 1014.01 660.596 1012.52C663.189 1011.72 661.465 1017.16 659.619 1018.35C660.627 1018.98 669.218 1018.76 668.498 1021.14C667.253 1025.24 662.526 1030.51 656.554 1032.34Z" fill="#F6C3D9"/>
<path d="M592.445 1059.83C578.625 1055.77 576.219 1039.7 577.872 1040.75C581.486 1043.05 583.484 1040.67 593.584 1041.07C599.72 1041.32 602.082 1043.67 607.096 1045.15C609.764 1045.93 605.217 1049.61 602.969 1049.58C603.474 1050.69 610.947 1055.36 608.991 1056.99C605.606 1059.8 598.59 1061.63 592.445 1059.83Z" fill="#F6C3D9"/>
<path d="M575.07 1098.95C568.868 1086.81 578.346 1074.7 578.698 1076.52C579.469 1080.5 582.402 1080.33 588.698 1087.53C592.522 1091.91 592.441 1095.06 594.69 1099.47C595.887 1101.81 590.398 1101.08 588.955 1099.52C588.522 1100.59 590.175 1108.76 587.786 1108.47C583.653 1107.97 577.828 1104.35 575.07 1098.95Z" fill="#F6C3D9"/>
<path d="M496.44 1108.03C505.115 1121.11 495.845 1136.2 495.205 1134.16C493.806 1129.71 490.472 1130.29 482.332 1122.87C477.388 1118.36 477.071 1114.74 473.924 1110C472.25 1107.47 478.625 1107.59 480.479 1109.19C480.836 1107.91 477.881 1098.78 480.653 1098.79C485.446 1098.82 492.583 1102.22 496.44 1108.03Z" fill="#F6C3D9"/>
<path d="M452.77 1167.23C445.084 1155.67 453.266 1142.32 453.834 1144.12C455.077 1148.06 458.025 1147.54 465.232 1154.09C469.611 1158.08 469.895 1161.28 472.683 1165.47C474.167 1167.71 468.528 1167.61 466.886 1166.19C466.572 1167.32 469.195 1175.4 466.744 1175.39C462.504 1175.37 456.188 1172.37 452.77 1167.23Z" fill="#F6C3D9"/>
<path d="M487.558 1204.18C486.719 1216.4 473.81 1221.35 474.381 1219.78C475.63 1216.36 473.289 1215.13 471.77 1206.67C470.849 1201.53 472.372 1199.14 472.678 1194.7C472.84 1192.34 476.733 1195.44 477.121 1197.32C477.95 1196.69 480.459 1189.63 482.167 1190.96C485.122 1193.25 487.931 1198.75 487.558 1204.18Z" fill="#F6C3D9"/>
<path d="M543.358 1276.18C530.127 1272.12 527.997 1256.65 529.574 1257.68C533.02 1259.93 534.966 1257.67 544.665 1258.17C550.557 1258.48 552.799 1260.76 557.6 1262.24C560.154 1263.02 555.744 1266.51 553.585 1266.46C554.057 1267.53 561.184 1272.1 559.286 1273.64C556.003 1276.3 549.241 1277.98 543.358 1276.18Z" fill="#F6C3D9"/>
<path d="M400.576 1275.42C395.714 1282.6 386.054 1281.04 386.961 1280.28C388.943 1278.63 387.945 1277.05 390.026 1271.33C391.291 1267.85 393.075 1266.93 394.84 1264.33C395.779 1262.94 397.058 1266.22 396.629 1267.51C397.358 1267.42 401.406 1263.99 401.98 1265.41C402.972 1267.87 402.738 1272.23 400.576 1275.42Z" fill="#F6C3D9"/>
<path d="M1088.5 29.7945C1095.25 22.6267 1105.79 26.128 1104.64 26.8104C1102.12 28.3018 1102.95 30.2544 1099.58 36.2861C1097.54 39.9502 1095.37 40.6618 1092.92 43.2623C1091.62 44.6457 1090.78 40.7357 1091.49 39.3749C1090.66 39.3397 1085.51 42.451 1085.12 40.7563C1084.45 37.8251 1085.5 32.9817 1088.5 29.7945Z" fill="#EF93BB"/>
<path d="M1124.41 91.7763C1125.81 82.325 1136.15 79.2761 1135.61 80.4587C1134.43 83.0434 1136.17 84.139 1136.83 90.8123C1137.23 94.8666 1135.9 96.6337 1135.39 100.063C1135.12 101.888 1132.28 99.2361 1132.1 97.7564C1131.41 98.1897 1129.03 103.527 1127.78 102.389C1125.63 100.422 1123.78 95.9792 1124.41 91.7763Z" fill="#EF93BB"/>
<path d="M1176.5 102.763C1173.18 96.0215 1178.5 89.42 1178.68 90.4268C1179.07 92.6273 1180.69 92.5547 1184.1 96.5754C1186.18 99.0184 1186.11 100.757 1187.31 103.204C1187.95 104.506 1184.93 104.06 1184.15 103.186C1183.9 103.773 1184.75 108.292 1183.43 108.115C1181.16 107.808 1177.98 105.761 1176.5 102.763Z" fill="#EF93BB"/>
<path d="M1289.39 144.372C1286.22 156.05 1272.76 158.349 1273.62 156.942C1275.49 153.866 1273.46 152.229 1273.62 143.738C1273.72 138.58 1275.66 136.555 1276.81 132.317C1277.42 130.063 1280.59 133.819 1280.61 135.708C1281.53 135.264 1285.32 128.906 1286.72 130.522C1289.14 133.316 1290.8 139.178 1289.39 144.372Z" fill="#EF93BB"/>
<path d="M1122.97 201.396C1124.38 192.372 1134.28 189.523 1133.75 190.65C1132.61 193.113 1134.27 194.171 1134.86 200.553C1135.21 204.43 1133.93 206.11 1133.42 209.385C1133.15 211.127 1130.46 208.575 1130.29 207.159C1129.63 207.569 1127.32 212.655 1126.13 211.56C1124.09 209.666 1122.35 205.408 1122.97 201.396Z" fill="#EF93BB"/>
<path d="M1216.45 282.28C1209.14 273.829 1214.32 262.332 1214.95 263.713C1216.35 266.732 1218.65 266.02 1225.07 270.523C1228.97 273.259 1229.52 275.787 1232.17 278.855C1233.58 280.487 1229.07 280.98 1227.62 280.017C1227.48 280.953 1230.39 287.138 1228.44 287.377C1225.05 287.789 1219.7 286.039 1216.45 282.28Z" fill="#EF93BB"/>
<path d="M1219.35 293.298C1221.57 283.165 1232.99 280.619 1232.32 281.86C1230.85 284.573 1232.66 285.886 1232.88 293.162C1233.02 297.581 1231.45 299.398 1230.65 303.075C1230.22 305.031 1227.34 301.952 1227.25 300.336C1226.48 300.755 1223.5 306.361 1222.24 305.038C1220.04 302.75 1218.37 297.804 1219.35 293.298Z" fill="#EF93BB"/>
<path d="M1091.18 304.552C1086.36 312.728 1075.7 311.669 1076.64 310.783C1078.69 308.845 1077.49 307.184 1079.38 300.793C1080.53 296.911 1082.42 295.782 1084.17 292.816C1085.1 291.237 1086.72 294.739 1086.34 296.171C1087.13 296.027 1091.32 292.005 1092.04 293.518C1093.29 296.135 1093.33 300.916 1091.18 304.552Z" fill="#EF93BB"/>
<path d="M1070.67 336.448C1078.3 330.223 1088.29 335.076 1087.06 335.602C1084.36 336.751 1084.93 338.796 1080.8 344.337C1078.3 347.703 1076.06 348.125 1073.29 350.383C1071.81 351.584 1071.49 347.597 1072.38 346.341C1071.56 346.197 1066.04 348.607 1065.88 346.876C1065.6 343.881 1067.28 339.216 1070.67 336.448Z" fill="#EF93BB"/>
<path d="M1227.14 472.306C1225.38 479.228 1217.45 480.706 1217.95 479.868C1219.02 478.036 1217.81 477.088 1217.83 472.074C1217.84 469.029 1218.96 467.816 1219.61 465.304C1219.95 463.968 1221.85 466.157 1221.88 467.271C1222.42 467.001 1224.6 463.214 1225.44 464.155C1226.9 465.782 1227.93 469.228 1227.14 472.306Z" fill="#EF93BB"/>
<path d="M1123.76 466.295C1120.71 478.56 1106.7 481.261 1107.57 479.772C1109.45 476.519 1107.29 474.855 1107.27 465.985C1107.26 460.597 1109.24 458.439 1110.35 453.989C1110.94 451.621 1114.33 455.473 1114.39 457.444C1115.34 456.961 1119.16 450.237 1120.66 451.893C1123.25 454.756 1125.11 460.841 1123.76 466.295Z" fill="#EF93BB"/>
<path d="M1007.04 485.985C1003.23 479.441 1008.11 472.432 1008.37 473.431C1008.91 475.616 1010.54 475.429 1014.25 479.232C1016.51 481.543 1016.56 483.296 1017.94 485.671C1018.68 486.935 1015.61 486.698 1014.76 485.875C1014.55 486.481 1015.72 490.965 1014.38 490.879C1012.08 490.73 1008.73 488.895 1007.04 485.985Z" fill="#EF93BB"/>
<path d="M950.617 519.428C942.908 513.23 945.593 502.396 946.367 503.497C948.058 505.905 949.949 504.919 956.256 507.821C960.088 509.584 960.97 511.698 963.767 513.948C965.255 515.146 961.402 516.292 959.983 515.684C960.013 516.521 963.533 521.444 961.865 521.963C958.98 522.86 954.045 522.185 950.617 519.428Z" fill="#EF93BB"/>
<path d="M920.327 543.349C929.199 535.989 940.945 541.575 939.507 542.203C936.364 543.574 937.05 545.963 932.269 552.489C929.364 556.454 926.745 556.969 923.525 559.64C921.812 561.06 921.399 556.395 922.423 554.915C921.46 554.755 915.02 557.629 914.816 555.604C914.463 552.1 916.381 546.622 920.327 543.349Z" fill="#EF93BB"/>
<path d="M1028.23 710.462C1029.39 719.696 1020.49 725.27 1020.69 724.019C1021.12 721.284 1019.19 720.715 1016.82 714.628C1015.38 710.931 1016.17 708.924 1015.75 705.573C1015.52 703.79 1018.88 705.533 1019.44 706.872C1019.97 706.286 1020.81 700.655 1022.27 701.394C1024.81 702.673 1027.71 706.356 1028.23 710.462Z" fill="#EF93BB"/>
<path d="M866.522 622.989C860.699 632.347 848.355 630.829 849.47 629.825C851.906 627.632 850.562 625.672 852.926 618.307C854.364 613.833 856.584 612.573 858.698 609.178C859.823 607.372 861.607 611.479 861.125 613.13C862.047 612.985 867.02 608.432 867.818 610.207C869.197 613.278 869.112 618.828 866.522 622.989Z" fill="#EF93BB"/>
<path d="M906.527 773.377C899.62 773.55 896.163 766.561 897.073 766.8C899.061 767.321 899.625 765.941 904.297 764.643C907.136 763.855 908.56 764.584 911.067 764.522C912.401 764.489 910.864 766.839 909.832 767.155C910.226 767.588 914.324 768.625 913.669 769.654C912.535 771.434 909.599 773.301 906.527 773.377Z" fill="#EF93BB"/>
<path d="M835.94 737.343C832.062 745.534 821.837 745.452 822.654 744.528C824.438 742.508 823.156 741.033 824.396 734.795C825.15 731.006 826.845 729.769 828.253 726.797C829.003 725.216 830.846 728.404 830.607 729.798C831.346 729.593 834.981 725.406 835.799 726.782C837.214 729.161 837.665 733.701 835.94 737.343Z" fill="#EF93BB"/>
<path d="M738.183 677.151C744.399 668.546 756.158 670.823 755.021 671.713C752.534 673.659 753.695 675.632 750.935 682.552C749.257 686.755 747.041 687.818 744.784 690.94C743.584 692.601 742.142 688.536 742.714 686.981C741.819 687.059 736.738 691.105 736.09 689.346C734.968 686.304 735.418 680.977 738.183 677.151Z" fill="#EF93BB"/>
<path d="M772.217 768.83C762.806 779.284 747.637 774.614 749.262 773.603C752.814 771.392 751.564 768.629 756.183 759.905C758.99 754.605 762.061 753.52 765.478 749.727C767.295 747.709 768.618 753.269 767.642 755.236C768.833 755.26 776.101 750.652 776.705 753.061C777.751 757.228 776.402 764.182 772.217 768.83Z" fill="#EF93BB"/>
<path d="M753.583 804.088C754.684 811.154 747.973 815.634 748.096 814.669C748.365 812.559 746.875 812.165 744.918 807.543C743.73 804.736 744.288 803.176 743.889 800.612C743.677 799.248 746.294 800.511 746.756 801.527C747.148 801.066 747.664 796.721 748.808 797.256C750.786 798.182 753.094 800.945 753.583 804.088Z" fill="#EF93BB"/>
<path d="M668.909 789.917C676.948 801.694 668.71 815.514 668.104 813.671C666.778 809.642 663.757 810.21 656.272 803.568C651.725 799.532 651.393 796.247 648.477 791.972C646.925 789.698 652.719 789.729 654.422 791.162C654.731 789.995 651.936 781.731 654.454 781.713C658.809 781.683 665.334 784.679 668.909 789.917Z" fill="#EF93BB"/>
<path d="M634.518 781.835C630.118 789.956 619.717 789.307 620.599 788.412C622.526 786.454 621.303 784.882 622.91 778.603C623.887 774.788 625.681 773.623 627.279 770.676C628.128 769.108 629.828 772.455 629.508 773.86C630.271 773.692 634.202 769.633 634.959 771.078C636.267 773.577 636.476 778.223 634.518 781.835Z" fill="#EF93BB"/>
<path d="M665.789 866.276C658.482 870.233 650.962 864.632 652.067 864.39C654.482 863.863 654.333 862.077 658.63 858.135C661.241 855.74 663.165 855.744 665.818 854.309C667.228 853.545 666.864 856.902 665.932 857.804C666.59 858.053 671.548 856.926 671.407 858.386C671.165 860.913 669.038 864.516 665.789 866.276Z" fill="#EF93BB"/>
<path d="M639.525 940.251C637.076 949.3 626.651 951.089 627.312 949.999C628.759 947.615 627.184 946.348 627.305 939.77C627.378 935.774 628.878 934.205 629.768 930.921C630.241 929.174 632.701 932.082 632.713 933.545C633.428 933.201 636.363 928.274 637.447 929.524C639.323 931.687 640.614 936.228 639.525 940.251Z" fill="#EF93BB"/>
<path d="M637.889 1019.1C629.93 1015.73 629.598 1005.99 630.511 1006.73C632.507 1008.34 633.861 1007.06 639.853 1007.99C643.493 1008.56 644.74 1010.13 647.627 1011.35C649.164 1012 646.201 1013.88 644.863 1013.71C645.088 1014.41 649.222 1017.7 647.945 1018.54C645.735 1019.98 641.428 1020.59 637.889 1019.1Z" fill="#EF93BB"/>
<path d="M545.113 965.486C549.137 978.605 537.618 988.952 537.588 987.085C537.521 983.004 534.582 982.663 529.601 974.421C526.576 969.414 527.209 966.3 525.75 961.539C524.974 959.006 530.289 960.689 531.445 962.492C532.063 961.508 531.854 953.116 534.173 953.819C538.184 955.035 543.324 959.652 545.113 965.486Z" fill="#EF93BB"/>
<path d="M459.128 960.62C446.235 961.179 439.542 948.247 441.249 948.66C444.979 949.565 445.985 946.97 454.665 944.386C459.939 942.817 462.623 944.13 467.302 943.929C469.791 943.821 467.001 948.261 465.087 948.887C465.837 949.682 473.525 951.478 472.336 953.422C470.28 956.785 464.862 960.372 459.128 960.62Z" fill="#EF93BB"/>
<path d="M405.635 986.963C394.505 980.818 395.51 966.509 396.733 967.732C399.407 970.407 401.584 968.74 410.209 971.02C415.45 972.406 417.034 974.888 421.072 977.119C423.22 978.305 418.597 980.608 416.665 980.152C416.888 981.205 422.433 986.66 420.436 987.685C416.981 989.459 410.584 989.695 405.635 986.963Z" fill="#EF93BB"/>
<path d="M386.155 1031.78C373.692 1030.03 369.571 1016.44 371.134 1017.14C374.55 1018.67 375.976 1016.36 384.758 1015.42C390.094 1014.86 392.435 1016.59 396.958 1017.23C399.364 1017.57 395.9 1021.33 393.953 1021.59C394.53 1022.49 401.584 1025.58 400.099 1027.23C397.53 1030.09 391.697 1032.56 386.155 1031.78Z" fill="#EF93BB"/>
<path d="M454.056 1109.91C445.577 1102.96 448.67 1090.98 449.515 1092.21C451.364 1094.89 453.471 1093.82 460.431 1097.11C464.659 1099.1 465.614 1101.45 468.69 1103.98C470.327 1105.32 466.044 1106.55 464.478 1105.86C464.502 1106.79 468.351 1112.28 466.497 1112.84C463.289 1113.8 457.826 1113 454.056 1109.91Z" fill="#EF93BB"/>
<path d="M439.264 1091.41C430.121 1091.69 425.489 1082.47 426.695 1082.77C429.331 1083.45 430.067 1081.62 436.241 1079.86C439.993 1078.79 441.884 1079.75 445.202 1079.65C446.967 1079.59 444.951 1082.71 443.589 1083.14C444.113 1083.71 449.547 1085.05 448.688 1086.42C447.201 1088.78 443.33 1091.28 439.264 1091.41Z" fill="#EF93BB"/>
<path d="M331.802 1053.77C331.726 1066.71 318.445 1072.77 318.943 1071.08C320.033 1067.39 317.484 1066.26 315.324 1057.43C314.013 1052.08 315.461 1049.45 315.489 1044.76C315.505 1042.26 319.813 1045.27 320.346 1047.22C321.179 1046.51 323.356 1038.9 325.245 1040.18C328.511 1042.41 331.836 1048.01 331.802 1053.77Z" fill="#EF93BB"/>
<path d="M467.095 1156.41C467.785 1147.48 477.251 1143.95 476.823 1145.09C475.889 1147.59 477.593 1148.5 478.648 1154.69C479.289 1158.45 478.161 1160.19 477.909 1163.43C477.776 1165.15 474.95 1162.86 474.679 1161.49C474.069 1161.94 472.191 1167.09 470.951 1166.11C468.806 1164.41 466.788 1160.38 467.095 1156.41Z" fill="#EF93BB"/>
<path d="M324.547 1176.88C329.698 1186.05 322.752 1195.68 322.425 1194.29C321.71 1191.24 319.453 1191.46 314.378 1186.1C311.296 1182.84 311.264 1180.4 309.395 1177.07C308.401 1175.3 312.658 1175.7 313.818 1176.86C314.121 1176.02 312.598 1169.76 314.45 1169.91C317.654 1170.17 322.257 1172.8 324.547 1176.88Z" fill="#EF93BB"/>
<path d="M403.841 1212.78C396.202 1223.77 381.329 1221.16 382.742 1220.01C385.832 1217.51 384.323 1215.05 387.644 1206.26C389.663 1200.92 392.433 1199.53 395.206 1195.55C396.681 1193.43 398.591 1198.52 397.905 1200.49C399.031 1200.37 405.343 1195.16 406.201 1197.36C407.683 1201.17 407.238 1207.89 403.841 1212.78Z" fill="#EF93BB"/>
<path d="M413.338 1320.33C406.225 1315.33 407.963 1305.67 408.704 1306.6C410.324 1308.61 411.927 1307.64 417.623 1309.83C421.083 1311.15 421.977 1312.96 424.557 1314.77C425.93 1315.74 422.617 1316.96 421.338 1316.51C421.412 1317.24 424.779 1321.36 423.345 1321.91C420.867 1322.86 416.5 1322.55 413.338 1320.33Z" fill="#FADCE9"/>
<path d="M456.261 1307.49C447.036 1302.55 447.719 1290.76 448.739 1291.75C450.967 1293.93 452.742 1292.53 459.867 1294.32C464.196 1295.41 465.525 1297.44 468.872 1299.23C470.653 1300.19 466.869 1302.13 465.274 1301.78C465.468 1302.64 470.088 1307.08 468.454 1307.94C465.628 1309.43 460.363 1309.69 456.261 1307.49Z" fill="#FADCE9"/>
<path d="M492.282 1270.65C488.843 1281.69 475.908 1283.42 476.774 1282.1C478.669 1279.23 476.786 1277.6 477.239 1269.49C477.516 1264.57 479.437 1262.7 480.687 1258.7C481.351 1256.57 484.249 1260.26 484.196 1262.07C485.093 1261.68 488.94 1255.74 490.219 1257.33C492.431 1260.09 493.812 1265.74 492.282 1270.65Z" fill="#FADCE9"/>
<path d="M490.726 1255.37C480.283 1251.76 479.015 1239.36 480.244 1240.23C482.931 1242.12 484.547 1240.37 492.271 1241.04C496.964 1241.44 498.689 1243.33 502.479 1244.64C504.495 1245.34 500.878 1248 499.157 1247.89C499.504 1248.76 505.063 1252.61 503.506 1253.78C500.812 1255.82 495.37 1256.97 490.726 1255.37Z" fill="#FADCE9"/>
<path d="M565.046 1261.7C555.657 1269.27 543.455 1263.25 544.968 1262.61C548.275 1261.23 547.594 1258.72 552.691 1251.96C555.788 1247.86 558.535 1247.36 561.943 1244.61C563.756 1243.15 564.118 1248.04 563.025 1249.57C564.029 1249.75 570.808 1246.84 570.992 1248.97C571.309 1252.63 569.221 1258.34 565.046 1261.7Z" fill="#FADCE9"/>
<path d="M572.091 1217.95C574.228 1228.17 564.78 1235.21 564.886 1233.8C565.119 1230.7 562.916 1230.24 559.714 1223.64C557.77 1219.64 558.466 1217.32 557.691 1213.61C557.279 1211.64 561.19 1213.28 561.941 1214.73C562.478 1214.03 562.903 1207.65 564.612 1208.35C567.566 1209.55 571.141 1213.4 572.091 1217.95Z" fill="#FADCE9"/>
<path d="M576.967 1207.48C572.462 1210.82 566.899 1207.8 567.614 1207.53C569.178 1206.95 568.907 1205.77 571.402 1202.72C572.918 1200.87 574.205 1200.69 575.84 1199.48C576.71 1198.83 576.788 1201.11 576.252 1201.8C576.715 1201.91 579.921 1200.68 579.967 1201.67C580.047 1203.38 578.971 1205.99 576.967 1207.48Z" fill="#FADCE9"/>
<path d="M605.381 1185.21C604.729 1191.93 597.532 1194.46 597.872 1193.61C598.613 1191.74 597.341 1191.03 596.635 1186.33C596.206 1183.48 597.083 1182.19 597.321 1179.75C597.447 1178.45 599.546 1180.22 599.731 1181.26C600.198 1180.93 601.691 1177.07 602.613 1177.83C604.207 1179.14 605.671 1182.21 605.381 1185.21Z" fill="#FADCE9"/>
<path d="M652.158 1215.4C642.681 1210.47 643.228 1198.43 644.281 1199.43C646.582 1201.62 648.376 1200.18 655.67 1201.91C660.101 1202.97 661.483 1205.02 664.922 1206.81C666.752 1207.76 662.915 1209.79 661.283 1209.45C661.492 1210.33 666.264 1214.8 664.607 1215.7C661.742 1217.26 656.373 1217.59 652.158 1215.4Z" fill="#FADCE9"/>
<path d="M650.997 1146.3C658.6 1154.82 653.492 1166.65 652.819 1165.24C651.35 1162.18 649.01 1162.95 642.379 1158.45C638.351 1155.72 637.747 1153.14 634.989 1150.05C633.521 1148.41 638.124 1147.83 639.625 1148.79C639.75 1147.83 636.674 1141.56 638.671 1141.29C642.126 1140.81 647.617 1142.51 650.997 1146.3Z" fill="#FADCE9"/>
<path d="M692.905 1172.49C682.859 1174.32 676.218 1164.9 677.6 1165.04C680.622 1165.35 681.13 1163.21 687.655 1160.24C691.619 1158.44 693.865 1159.18 697.51 1158.52C699.45 1158.17 697.742 1161.95 696.309 1162.65C696.982 1163.19 703.202 1163.77 702.481 1165.42C701.232 1168.28 697.372 1171.67 692.905 1172.49Z" fill="#FADCE9"/>
<path d="M635.011 1098.96C625.672 1101.96 618.167 1093.82 619.501 1093.78C622.418 1093.7 622.634 1091.59 628.478 1087.95C632.029 1085.74 634.261 1086.17 637.651 1085.08C639.454 1084.5 638.3 1088.32 637.023 1089.16C637.732 1089.59 643.729 1089.36 643.248 1091.03C642.416 1093.91 639.164 1097.62 635.011 1098.96Z" fill="#FADCE9"/>
<path d="M643.405 1080.06C631.179 1073.75 631.835 1058.24 633.195 1059.52C636.167 1062.34 638.472 1060.47 647.872 1062.67C653.583 1064.02 655.372 1066.65 659.808 1068.94C662.168 1070.16 657.235 1072.79 655.132 1072.36C655.405 1073.49 661.568 1079.22 659.438 1080.39C655.755 1082.42 648.841 1082.87 643.405 1080.06Z" fill="#FADCE9"/>
<path d="M709.747 1078.79C698.648 1069.72 702.662 1054.05 703.77 1055.66C706.193 1059.16 708.944 1057.76 718.048 1062.03C723.579 1064.63 724.833 1067.7 728.86 1071C731.002 1072.75 725.408 1074.36 723.358 1073.47C723.392 1074.68 728.436 1081.85 726.014 1082.59C721.824 1083.85 714.681 1082.82 709.747 1078.79Z" fill="#FADCE9"/>
<path d="M715.651 1051.73C704.351 1058.38 692.177 1049.97 693.905 1049.53C697.683 1048.56 697.348 1045.76 703.903 1039.3C707.886 1035.37 710.92 1035.27 715.022 1032.86C717.204 1031.57 716.819 1036.89 715.4 1038.36C716.452 1038.72 724.206 1036.66 724.067 1038.97C723.827 1042.97 720.677 1048.77 715.651 1051.73Z" fill="#FADCE9"/>
<path d="M751.26 1040.63C751.173 1047.89 743.694 1051.25 743.98 1050.31C744.605 1048.24 743.177 1047.59 741.995 1042.63C741.277 1039.62 742.099 1038.15 742.131 1035.51C742.148 1034.11 744.558 1035.82 744.85 1036.91C745.32 1036.52 746.569 1032.25 747.625 1032.98C749.452 1034.24 751.299 1037.4 751.26 1040.63Z" fill="#FADCE9"/>
<path d="M754.085 1004.12C745.063 1002.86 742.075 993.022 743.206 993.528C745.68 994.634 746.711 992.962 753.068 992.281C756.93 991.868 758.625 993.124 761.899 993.584C763.64 993.829 761.135 996.553 759.725 996.742C760.144 997.39 765.251 999.622 764.176 1000.82C762.318 1002.89 758.097 1004.69 754.085 1004.12Z" fill="#FADCE9"/>
<path d="M685.647 957.208C680.092 956.857 677.814 951.004 678.527 951.26C680.086 951.819 680.636 950.752 684.477 950.042C686.811 949.611 687.902 950.297 689.918 950.425C690.99 950.493 689.59 952.269 688.741 952.45C689.026 952.825 692.241 953.948 691.642 954.727C690.606 956.075 688.117 957.365 685.647 957.208Z" fill="#FADCE9"/>
<path d="M772.456 954.052C763.448 952.855 760.397 943.066 761.529 943.562C764.005 944.648 765.021 942.972 771.357 942.248C775.206 941.808 776.906 943.048 780.175 943.484C781.914 943.715 779.434 946.451 778.03 946.649C778.452 947.292 783.562 949.483 782.499 950.685C780.66 952.763 776.462 954.584 772.456 954.052Z" fill="#FADCE9"/>
<path d="M701.735 901.802C694.608 893.848 699.366 882.778 699.998 884.086C701.378 886.947 703.565 886.228 709.776 890.424C713.548 892.974 714.117 895.38 716.703 898.267C718.078 899.803 713.774 900.35 712.368 899.453C712.253 900.35 715.141 906.211 713.274 906.472C710.043 906.922 704.904 905.339 701.735 901.802Z" fill="#FADCE9"/>
<path d="M770.893 878.865C774.508 882.825 772.172 888.405 771.849 887.751C771.142 886.321 770.048 886.693 766.91 884.615C765.004 883.353 764.707 882.148 763.395 880.71C762.697 879.946 764.856 879.651 765.565 880.094C765.619 879.643 764.141 876.715 765.078 876.575C766.698 876.334 769.285 877.104 770.893 878.865Z" fill="#FADCE9"/>
<path d="M802.937 853.264C793.29 847.411 794.701 834.759 795.742 835.888C798.015 838.357 800.006 836.958 807.572 839.293C812.169 840.713 813.483 842.971 816.983 845.096C818.845 846.226 814.661 848.1 812.965 847.625C813.124 848.567 817.843 853.606 816.035 854.442C812.907 855.89 807.226 855.867 802.937 853.264Z" fill="#FADCE9"/>
<path d="M803.918 808.788C794.352 812.882 785.619 805.034 787.024 804.86C790.096 804.479 790.115 802.236 795.927 797.814C799.458 795.128 801.857 795.354 805.329 793.869C807.176 793.079 806.336 797.223 805.07 798.24C805.862 798.626 812.173 797.791 811.831 799.596C811.238 802.719 808.172 806.968 803.918 808.788Z" fill="#FADCE9"/>
<path d="M835.275 769.837C838.496 775.747 833.976 781.85 833.778 780.956C833.345 779.001 831.899 779.126 828.697 775.653C826.751 773.543 826.75 771.985 825.582 769.84C824.96 768.699 827.68 768.986 828.412 769.739C828.613 769.206 827.689 765.193 828.873 765.303C830.919 765.494 833.843 767.209 835.275 769.837Z" fill="#FADCE9"/>
<path d="M842.399 738.386C849.243 746.147 844.549 756.836 843.947 755.563C842.632 752.781 840.507 753.461 834.522 749.348C830.887 746.849 830.354 744.513 827.871 741.696C826.55 740.198 830.725 739.701 832.079 740.58C832.198 739.712 829.445 734.012 831.256 733.774C834.389 733.362 839.356 734.935 842.399 738.386Z" fill="#FADCE9"/>
<path d="M876.434 717.541C871.87 723.393 863.714 721.498 864.531 720.906C866.318 719.61 865.558 718.202 867.665 713.44C868.945 710.546 870.521 709.861 872.178 707.738C873.06 706.609 873.962 709.486 873.522 710.557C874.15 710.526 877.803 707.831 878.211 709.076C878.916 711.23 878.464 714.94 876.434 717.541Z" fill="#FADCE9"/>
<path d="M860.525 688.048C854.335 688.486 850.948 682.358 851.774 682.534C853.579 682.92 854.028 681.66 858.167 680.304C860.681 679.481 861.988 680.077 864.235 679.918C865.43 679.834 864.147 682.005 863.235 682.331C863.606 682.703 867.324 683.465 866.779 684.415C865.835 686.059 863.277 687.854 860.525 688.048Z" fill="#FADCE9"/>
<path d="M856.711 650.151C850.403 657.06 840.337 653.884 841.423 653.219C843.795 651.765 842.977 649.922 846.089 644.141C847.981 640.63 850.028 639.922 852.318 637.416C853.536 636.082 854.389 639.786 853.732 641.09C854.523 641.111 859.378 638.081 859.769 639.685C860.445 642.462 859.516 647.079 856.711 650.151Z" fill="#FADCE9"/>
<path d="M912.117 626.423C914.571 631.833 910.198 636.914 910.081 636.114C909.827 634.365 908.546 634.382 905.951 631.118C904.374 629.135 904.474 627.763 903.584 625.799C903.11 624.755 905.486 625.183 906.082 625.894C906.293 625.437 905.739 621.845 906.774 622.018C908.563 622.318 911.026 624.016 912.117 626.423Z" fill="#FADCE9"/>
<path d="M979.822 635.28C985.247 646.454 976.385 657.311 976.097 655.646C975.47 652.005 972.793 652.109 967.191 645.431C963.789 641.373 963.922 638.5 961.954 634.444C960.908 632.287 965.896 633.053 967.181 634.505C967.596 633.538 966.242 626.061 968.414 626.367C972.17 626.897 977.411 630.311 979.822 635.28Z" fill="#FADCE9"/>
<path d="M981.659 586.514C986.64 591.437 983.965 598.872 983.499 598.04C982.483 596.222 981.079 596.78 976.848 594.28C974.278 592.761 973.809 591.208 972.002 589.421C971.041 588.47 973.837 587.942 974.793 588.473C974.832 587.881 972.709 584.16 973.922 583.915C976.018 583.492 979.445 584.324 981.659 586.514Z" fill="#FADCE9"/>
<path d="M944.38 542.781C937.22 541.532 935.099 533.61 935.988 534.043C937.931 534.991 938.797 533.685 943.884 533.311C946.975 533.085 948.293 534.131 950.891 534.585C952.274 534.826 950.203 536.932 949.074 537.045C949.391 537.573 953.403 539.489 952.515 540.415C950.978 542.017 947.564 543.336 944.38 542.781Z" fill="#FADCE9"/>
<path d="M980.35 496.516C989.819 506.425 984.171 520.823 983.307 519.17C981.419 515.557 978.643 516.569 970.504 511.442C965.56 508.327 964.73 505.263 961.295 501.666C959.467 499.752 964.966 498.874 966.806 499.966C966.917 498.811 962.971 491.411 965.356 491C969.482 490.29 976.139 492.109 980.35 496.516Z" fill="#FADCE9"/>
<path d="M1033.63 508.265C1036.61 518.097 1027.96 525.814 1027.94 524.416C1027.9 521.361 1025.7 521.098 1021.99 514.916C1019.74 511.159 1020.22 508.829 1019.14 505.261C1018.57 503.363 1022.54 504.636 1023.4 505.989C1023.87 505.254 1023.73 498.97 1025.47 499.502C1028.47 500.423 1032.3 503.893 1033.63 508.265Z" fill="#FADCE9"/>
<path d="M997.017 488.371C984.007 482.42 983.923 466.278 985.399 467.547C988.625 470.322 990.926 468.268 1000.8 470.095C1006.8 471.206 1008.78 473.856 1013.5 476.017C1016.01 477.166 1011.02 480.142 1008.82 479.794C1009.16 480.957 1015.84 486.607 1013.69 487.927C1009.96 490.21 1002.8 491.017 997.017 488.371Z" fill="#FADCE9"/>
<path d="M1046.56 491.634C1038.51 484.786 1041.7 473.291 1042.49 474.491C1044.23 477.112 1046.28 476.115 1052.93 479.4C1056.97 481.397 1057.85 483.681 1060.77 486.167C1062.33 487.49 1058.18 488.601 1056.68 487.91C1056.69 488.805 1060.3 494.168 1058.51 494.673C1055.4 495.546 1050.14 494.68 1046.56 491.634Z" fill="#FADCE9"/>
<path d="M1031.96 447.19C1027.45 460.728 1011.46 462.539 1012.56 460.94C1014.96 457.444 1012.68 455.381 1013.43 445.396C1013.89 439.33 1016.31 437.075 1017.95 432.163C1018.82 429.55 1022.3 434.183 1022.19 436.407C1023.31 435.947 1028.2 428.714 1029.74 430.709C1032.4 434.159 1033.97 441.171 1031.96 447.19Z" fill="#FADCE9"/>
<path d="M1096.06 432.849C1105.03 444.335 1097.54 458.98 1096.8 457.139C1095.18 453.116 1092.14 453.895 1084.06 447.611C1079.16 443.792 1078.6 440.462 1075.34 436.292C1073.61 434.074 1079.52 433.724 1081.36 435.074C1081.59 433.862 1078.2 425.615 1080.77 425.431C1085.21 425.113 1092.06 427.74 1096.06 432.849Z" fill="#FADCE9"/>
<path d="M1138.59 399.653C1139.05 414.517 1124.06 422.042 1124.56 420.082C1125.65 415.796 1122.68 414.6 1119.83 404.561C1118.09 398.462 1119.65 395.388 1119.48 389.994C1119.39 387.124 1124.47 390.403 1125.16 392.618C1126.09 391.766 1128.27 382.933 1130.49 384.33C1134.34 386.748 1138.39 393.043 1138.59 399.653Z" fill="#FADCE9"/>
<path d="M1126.39 373.7C1120.37 378.446 1112.65 374.534 1113.62 374.141C1115.73 373.282 1115.31 371.682 1118.6 367.422C1120.6 364.835 1122.35 364.536 1124.54 362.814C1125.7 361.899 1125.9 365.008 1125.19 365.974C1125.83 366.097 1130.16 364.294 1130.26 365.644C1130.44 367.98 1129.07 371.59 1126.39 373.7Z" fill="#FADCE9"/>
<path d="M1076.33 311.254C1084.69 317.486 1082.28 329.003 1081.42 327.872C1079.55 325.402 1077.6 326.513 1070.84 323.7C1066.74 321.99 1065.72 319.797 1062.69 317.535C1061.08 316.331 1065.09 314.975 1066.61 315.56C1066.55 314.68 1062.65 309.63 1064.38 309.019C1067.39 307.963 1072.61 308.483 1076.33 311.254Z" fill="#FADCE9"/>
<path d="M1092.25 291.35C1096.31 295.058 1094.44 300.974 1094.05 300.336C1093.2 298.941 1092.11 299.422 1088.71 297.592C1086.65 296.48 1086.23 295.276 1084.76 293.93C1083.98 293.214 1086.16 292.713 1086.92 293.1C1086.93 292.634 1085.15 289.781 1086.1 289.551C1087.73 289.154 1090.44 289.701 1092.25 291.35Z" fill="#FADCE9"/>
<path d="M1170.01 286.669C1163.9 279.82 1168 270.309 1168.54 271.435C1169.73 273.897 1171.61 273.283 1176.94 276.9C1180.18 279.098 1180.67 281.168 1182.88 283.654C1184.06 284.977 1180.36 285.44 1179.16 284.667C1179.06 285.438 1181.53 290.481 1179.92 290.702C1177.14 291.084 1172.73 289.715 1170.01 286.669Z" fill="#FADCE9"/>
<path d="M1175.15 246.044C1168.18 246.898 1164 240.171 1164.95 240.323C1167.01 240.654 1167.44 239.204 1172.04 237.432C1174.83 236.355 1176.34 236.953 1178.87 236.644C1180.22 236.479 1178.89 239.006 1177.88 239.427C1178.32 239.826 1182.57 240.471 1182.01 241.577C1181.04 243.488 1178.25 245.665 1175.15 246.044Z" fill="#FADCE9"/>
<path d="M1135 219.216C1128.68 215.908 1129.07 207.871 1129.77 208.542C1131.3 210.009 1132.5 209.047 1137.37 210.219C1140.32 210.931 1141.24 212.303 1143.54 213.504C1144.76 214.143 1142.19 215.491 1141.1 215.26C1141.24 215.847 1144.42 218.837 1143.31 219.437C1141.39 220.475 1137.81 220.687 1135 219.216Z" fill="#FADCE9"/>
<path d="M1086.11 192.401C1076.82 189.732 1075.15 178.955 1076.26 179.655C1078.69 181.184 1080.02 179.58 1086.8 179.809C1090.92 179.949 1092.52 181.52 1095.89 182.49C1097.68 183.005 1094.65 185.495 1093.14 185.485C1093.48 186.228 1098.51 189.331 1097.21 190.43C1094.95 192.33 1090.25 193.588 1086.11 192.401Z" fill="#FADCE9"/>
<path d="M1167.15 136.603C1171.78 144.839 1165.55 153.489 1165.25 152.237C1164.61 149.502 1162.58 149.703 1158.02 144.889C1155.25 141.964 1155.22 139.776 1153.54 136.787C1152.65 135.196 1156.47 135.55 1157.51 136.593C1157.78 135.84 1156.41 130.225 1158.08 130.358C1160.95 130.588 1165.09 132.94 1167.15 136.603Z" fill="#FADCE9"/>
<path d="M691.377 1383.32C685.501 1377.62 688.542 1368.9 689.095 1369.87C690.304 1371.98 691.938 1371.32 696.911 1374.19C699.932 1375.93 700.497 1377.74 702.629 1379.81C703.764 1380.91 700.502 1381.56 699.38 1380.95C699.34 1381.64 701.864 1385.97 700.45 1386.27C698.004 1386.79 693.991 1385.85 691.377 1383.32Z" fill="#EF93BB"/>
<path d="M653.595 1324.08C642.327 1319.57 641.587 1305.9 642.89 1306.91C645.738 1309.13 647.603 1307.29 656.044 1308.43C661.171 1309.13 662.965 1311.29 667.054 1312.93C669.229 1313.8 665.121 1316.52 663.238 1316.32C663.574 1317.29 669.471 1321.8 667.7 1323.01C664.638 1325.1 658.606 1326.08 653.595 1324.08Z" fill="#EF93BB"/>
<path d="M516.435 1286.66C512.703 1297.63 499.702 1299.02 500.604 1297.73C502.576 1294.9 500.732 1293.21 501.398 1285.11C501.803 1280.18 503.776 1278.37 505.132 1274.38C505.853 1272.27 508.659 1276.05 508.559 1277.85C509.468 1277.49 513.475 1271.64 514.715 1273.26C516.859 1276.08 518.095 1281.78 516.435 1286.66Z" fill="#EF93BB"/>
<path d="M665.763 1195.89C663.427 1202.77 655.276 1203.64 655.841 1202.83C657.076 1201.06 655.92 1200 656.334 1194.92C656.586 1191.83 657.823 1190.69 658.671 1188.2C659.123 1186.87 660.883 1189.24 660.821 1190.37C661.391 1190.14 663.901 1186.47 664.679 1187.49C666.025 1189.25 666.802 1192.83 665.763 1195.89Z" fill="#EF93BB"/>
<path d="M510.361 1182.3C504.654 1189.32 494.764 1186.81 495.775 1186.11C497.985 1184.57 497.094 1182.84 499.78 1177.09C501.412 1173.59 503.349 1172.8 505.421 1170.25C506.523 1168.9 507.551 1172.43 506.988 1173.72C507.753 1173.7 512.272 1170.51 512.737 1172.03C513.542 1174.68 512.9 1179.18 510.361 1182.3Z" fill="#EF93BB"/>
<path d="M478.678 1163.24C477.675 1149.83 490.928 1142.43 490.553 1144.22C489.732 1148.14 492.468 1149.1 495.443 1158.06C497.25 1163.5 495.97 1166.34 496.333 1171.21C496.526 1173.8 491.809 1171.04 491.095 1169.06C490.291 1169.87 488.671 1177.94 486.607 1176.76C483.037 1174.73 479.123 1169.2 478.678 1163.24Z" fill="#EF93BB"/>
<path d="M593.549 1135.36C580.577 1132.01 577.853 1117.13 579.422 1118.06C582.852 1120.09 584.638 1117.82 594.041 1117.89C599.754 1117.93 602.021 1120.05 606.729 1121.27C609.233 1121.91 605.116 1125.48 603.025 1125.52C603.528 1126.53 610.618 1130.65 608.848 1132.22C605.787 1134.94 599.318 1136.85 593.549 1135.36Z" fill="#EF93BB"/>
<path d="M435.163 1077.87C435.409 1064.31 449.404 1058.13 448.86 1059.89C447.671 1063.74 450.327 1064.97 452.478 1074.24C453.783 1079.87 452.233 1082.6 452.142 1087.52C452.094 1090.14 447.617 1086.93 447.085 1084.88C446.202 1085.61 443.823 1093.56 441.86 1092.19C438.466 1089.82 435.054 1083.9 435.163 1077.87Z" fill="#EF93BB"/>
<path d="M597.503 1012.15C604.272 1024.36 594.983 1037.09 594.559 1035.24C593.633 1031.19 590.635 1031.47 583.94 1024.31C579.874 1019.96 579.848 1016.73 577.393 1012.29C576.087 1009.94 581.734 1010.49 583.264 1012.04C583.672 1010.93 581.697 1002.62 584.154 1002.83C588.403 1003.2 594.494 1006.72 597.503 1012.15Z" fill="#EF93BB"/>
<path d="M530.389 977.21C520.375 972.87 520.063 960.558 521.209 961.504C523.712 963.571 525.436 961.969 532.994 963.211C537.586 963.967 539.143 965.958 542.777 967.534C544.71 968.373 540.947 970.719 539.259 970.487C539.535 971.369 544.72 975.577 543.097 976.617C540.29 978.415 534.843 979.141 530.389 977.21Z" fill="#EF93BB"/>
<path d="M521.04 830.855C524.615 824.352 532.968 824.924 532.255 825.64C530.697 827.203 531.672 828.472 530.35 833.509C529.546 836.569 528.099 837.496 526.802 839.856C526.111 841.111 524.762 838.414 525.026 837.287C524.412 837.418 521.234 840.66 520.633 839.495C519.594 837.481 519.45 833.747 521.04 830.855Z" fill="#EF93BB"/>
<path d="M725.971 902.085C717.491 905.427 710.043 898.334 711.278 898.217C713.977 897.962 714.051 895.998 719.252 892.273C722.412 890.011 724.507 890.27 727.585 889.057C729.222 888.413 728.382 892.02 727.247 892.878C727.931 893.236 733.478 892.665 733.133 894.237C732.534 896.956 729.742 900.599 725.971 902.085Z" fill="#EF93BB"/>
</g>
<g clip-path="url(#clip1_191_370)">
<path d="M1280.57 2364.23C1267.31 2363.94 1261.31 2350.24 1263.04 2350.78C1266.8 2351.95 1268 2349.36 1277.08 2347.29C1282.59 2346.03 1285.25 2347.56 1290.06 2347.66C1292.62 2347.72 1289.47 2352.08 1287.46 2352.6C1288.18 2353.46 1295.94 2355.82 1294.59 2357.73C1292.26 2361.04 1286.47 2364.36 1280.57 2364.23Z" fill="#F6C3D9"/>
<path d="M1206.46 2429.51C1195.37 2430.43 1189.18 2419.51 1190.66 2419.81C1193.9 2420.46 1194.68 2418.19 1202.07 2415.68C1206.56 2414.15 1208.92 2415.19 1212.94 2414.86C1215.09 2414.69 1212.83 2418.6 1211.2 2419.21C1211.87 2419.87 1218.56 2421.16 1217.6 2422.87C1215.94 2425.84 1211.39 2429.11 1206.46 2429.51Z" fill="#F6C3D9"/>
<path d="M1173.49 2351.34C1168.45 2340.59 1177.07 2330.34 1177.32 2331.93C1177.87 2335.42 1180.43 2335.36 1185.7 2341.82C1188.89 2345.74 1188.73 2348.48 1190.55 2352.39C1191.52 2354.46 1186.77 2353.66 1185.56 2352.26C1185.15 2353.18 1186.34 2360.34 1184.27 2360.02C1180.69 2359.46 1175.72 2356.13 1173.49 2351.34Z" fill="#F6C3D9"/>
<path d="M1143.61 2292.62C1134.32 2281.41 1141.39 2266.58 1142.18 2268.4C1143.9 2272.37 1146.92 2271.5 1155.16 2277.55C1160.17 2281.22 1160.81 2284.53 1164.18 2288.6C1165.98 2290.76 1160.08 2291.28 1158.22 2289.99C1158.01 2291.2 1161.64 2299.34 1159.08 2299.59C1154.65 2300.04 1147.74 2297.61 1143.61 2292.62Z" fill="#F6C3D9"/>
<path d="M1062.29 2400.66C1046.92 2402.65 1037.59 2387.87 1039.68 2388.19C1044.23 2388.89 1045.17 2385.68 1055.28 2381.7C1061.43 2379.28 1064.77 2380.58 1070.35 2379.86C1073.32 2379.47 1070.43 2385.07 1068.21 2386.02C1069.19 2386.89 1078.57 2388.25 1077.34 2390.7C1075.23 2394.93 1069.12 2399.77 1062.29 2400.66Z" fill="#F6C3D9"/>
<path d="M1068.96 2247.55C1077.13 2242.8 1085.88 2248.92 1084.63 2249.23C1081.9 2249.91 1082.13 2251.94 1077.37 2256.57C1074.48 2259.38 1072.3 2259.44 1069.33 2261.16C1067.75 2262.08 1068.05 2258.25 1069.08 2257.19C1068.32 2256.93 1062.72 2258.38 1062.83 2256.71C1063.02 2253.83 1065.32 2249.66 1068.96 2247.55Z" fill="#F6C3D9"/>
<path d="M969.99 2305.32C974.939 2296.55 986.262 2297.46 985.284 2298.42C983.146 2300.51 984.449 2302.25 982.579 2309.06C981.442 2313.2 979.465 2314.44 977.668 2317.62C976.712 2319.31 974.924 2315.63 975.299 2314.11C974.464 2314.27 970.103 2318.62 969.306 2317.03C967.928 2314.29 967.788 2309.22 969.99 2305.32Z" fill="#F6C3D9"/>
<path d="M1009.54 2212.71C1000.92 2206.56 1003.13 2194.81 1004.02 2195.94C1005.98 2198.41 1007.94 2197.24 1014.86 2199.95C1019.07 2201.61 1020.14 2203.81 1023.27 2206.05C1024.94 2207.24 1020.89 2208.7 1019.33 2208.14C1019.41 2209.03 1023.48 2214.08 1021.73 2214.73C1018.7 2215.87 1013.38 2215.45 1009.54 2212.71Z" fill="#F6C3D9"/>
<path d="M962.535 2175.67C956.586 2167.59 962.034 2157.66 962.506 2158.94C963.539 2161.74 965.65 2161.27 971.08 2165.75C974.379 2168.48 974.695 2170.78 976.852 2173.71C978 2175.27 973.925 2175.39 972.691 2174.43C972.503 2175.26 974.676 2181 972.905 2181.07C969.843 2181.21 965.18 2179.26 962.535 2175.67Z" fill="#F6C3D9"/>
<path d="M853.98 2230.68C846.876 2238.05 835.96 2234.27 837.167 2233.58C839.805 2232.06 838.965 2230.02 842.541 2223.79C844.715 2220 846.975 2219.29 849.554 2216.62C850.926 2215.2 851.749 2219.27 850.991 2220.68C851.857 2220.73 857.257 2217.55 857.637 2219.32C858.293 2222.38 857.139 2227.4 853.98 2230.68Z" fill="#F6C3D9"/>
<path d="M897.406 2097.15C900.02 2081.69 917.087 2077.02 916.161 2078.94C914.138 2083.15 916.965 2085 917.829 2095.97C918.352 2102.64 916.109 2105.49 915.159 2111.1C914.653 2114.09 910.088 2109.64 909.831 2107.21C908.696 2107.9 904.607 2116.58 902.599 2114.67C899.126 2111.37 896.243 2104.02 897.406 2097.15Z" fill="#F6C3D9"/>
<path d="M789.762 2116.17C797.023 2110.13 806.651 2114.7 805.474 2115.21C802.9 2116.34 803.464 2118.3 799.554 2123.65C797.177 2126.9 795.032 2127.32 792.396 2129.51C790.994 2130.68 790.652 2126.86 791.49 2125.64C790.701 2125.51 785.427 2127.87 785.258 2126.22C784.966 2123.35 786.532 2118.86 789.762 2116.17Z" fill="#F6C3D9"/>
<path d="M784.897 2051.19C790.198 2039.85 804.316 2039.9 803.195 2041.18C800.745 2043.98 802.524 2046.01 800.853 2054.63C799.837 2059.87 797.505 2061.58 795.58 2065.7C794.556 2067.89 791.991 2063.5 792.311 2061.57C791.292 2061.86 786.301 2067.66 785.162 2065.77C783.193 2062.49 782.54 2056.23 784.897 2051.19Z" fill="#F6C3D9"/>
<path d="M780.629 2004.2C783.283 1992.11 796.919 1989.09 796.115 1990.57C794.359 1993.81 796.517 1995.38 796.777 2004.06C796.935 2009.34 795.057 2011.5 794.093 2015.89C793.58 2018.22 790.15 2014.54 790.041 2012.61C789.119 2013.11 785.563 2019.8 784.053 2018.22C781.441 2015.49 779.448 2009.58 780.629 2004.2Z" fill="#F6C3D9"/>
<path d="M703.033 2013.24C695.25 2018.47 686.206 2012.98 687.42 2012.59C690.076 2011.74 689.717 2009.75 694.121 2004.86C696.797 2001.89 698.958 2001.69 701.783 1999.8C703.285 1998.79 703.236 2002.6 702.286 2003.71C703.052 2003.92 708.498 2002.12 708.497 2003.78C708.496 2006.64 706.494 2010.92 703.033 2013.24Z" fill="#F6C3D9"/>
<path d="M751.264 1965.27C739.197 1961.73 737.094 1947.69 738.537 1948.61C741.693 1950.62 743.437 1948.54 752.257 1948.89C757.615 1949.1 759.677 1951.16 764.056 1952.45C766.386 1953.13 762.415 1956.35 760.453 1956.32C760.894 1957.29 767.42 1961.37 765.712 1962.79C762.757 1965.24 756.631 1966.84 751.264 1965.27Z" fill="#F6C3D9"/>
<path d="M675.564 1939.3C664.431 1937.22 661.272 1924.84 662.649 1925.53C665.659 1927.04 667.033 1925.02 674.966 1924.53C679.785 1924.24 681.82 1925.89 685.86 1926.65C688.009 1927.05 684.744 1930.29 682.983 1930.45C683.466 1931.28 689.683 1934.33 688.282 1935.76C685.857 1938.23 680.514 1940.22 675.564 1939.3Z" fill="#F6C3D9"/>
<path d="M748.827 1876.4C757.095 1873.21 764.28 1880.16 763.079 1880.27C760.453 1880.5 760.367 1882.4 755.284 1885.98C752.195 1888.16 750.161 1887.89 747.16 1889.05C745.564 1889.66 746.408 1886.16 747.517 1885.34C746.855 1884.98 741.459 1885.5 741.807 1883.97C742.409 1881.33 745.151 1877.81 748.827 1876.4Z" fill="#F6C3D9"/>
<path d="M691.375 1897.45C682.292 1905.19 670.053 1899.57 671.533 1898.9C674.767 1897.44 674.024 1894.98 678.882 1888.15C681.835 1884.01 684.539 1883.44 687.836 1880.63C689.589 1879.13 690.082 1883.96 689.042 1885.5C690.041 1885.66 696.669 1882.59 696.909 1884.68C697.323 1888.31 695.414 1894 691.375 1897.45Z" fill="#F6C3D9"/>
<path d="M693.687 1854.05C696.301 1843.98 707.845 1841.88 707.123 1843.1C705.545 1845.76 707.307 1847.15 707.248 1854.44C707.211 1858.88 705.566 1860.64 704.616 1864.29C704.111 1866.23 701.349 1863.03 701.319 1861.41C700.53 1861.8 697.331 1867.3 696.113 1865.92C694.008 1863.55 692.524 1858.52 693.687 1854.05Z" fill="#F6C3D9"/>
<path d="M722.33 1801.47C707.302 1804.25 697.319 1790.19 699.389 1790.39C703.912 1790.84 704.664 1787.63 714.417 1783.17C720.342 1780.46 723.707 1781.55 729.161 1780.55C732.062 1780.01 729.523 1785.68 727.381 1786.73C728.392 1787.53 737.704 1788.37 736.631 1790.85C734.775 1795.13 729.012 1800.23 722.33 1801.47Z" fill="#F6C3D9"/>
<path d="M765.96 1725.72C757.664 1729.22 750.146 1722.39 751.363 1722.24C754.022 1721.93 754.05 1719.99 759.099 1716.19C762.167 1713.88 764.242 1714.09 767.253 1712.82C768.854 1712.15 768.108 1715.73 767.008 1716.6C767.691 1716.94 773.155 1716.25 772.85 1717.81C772.322 1720.51 769.649 1724.17 765.96 1725.72Z" fill="#F6C3D9"/>
<path d="M640.09 1718.28C639.747 1703.69 654.514 1696.42 654.008 1698.34C652.903 1702.53 655.813 1703.73 658.54 1713.6C660.196 1719.6 658.651 1722.6 658.775 1727.89C658.84 1730.71 653.884 1727.46 653.22 1725.28C652.304 1726.11 650.102 1734.76 647.931 1733.37C644.176 1730.97 640.243 1724.77 640.09 1718.28Z" fill="#F6C3D9"/>
<path d="M659.132 1665.74C647.938 1669.33 638.95 1659.57 640.549 1659.53C644.044 1659.42 644.304 1656.9 651.31 1652.55C655.566 1649.9 658.24 1650.41 662.303 1649.11C664.464 1648.42 663.08 1652.99 661.548 1654C662.398 1654.51 669.584 1654.24 669.007 1656.24C668.009 1659.69 664.11 1664.14 659.132 1665.74Z" fill="#F6C3D9"/>
<path d="M522.485 1680.06C522.437 1666.02 536.793 1659.3 536.268 1661.14C535.123 1665.16 537.901 1666.36 540.334 1675.91C541.811 1681.72 540.267 1684.58 540.283 1689.68C540.291 1692.39 535.584 1689.16 534.986 1687.05C534.089 1687.83 531.802 1696.12 529.739 1694.74C526.171 1692.36 522.505 1686.31 522.485 1680.06Z" fill="#F6C3D9"/>
<path d="M514.761 1610.74C522.651 1598.69 538.731 1601.04 537.244 1602.32C533.995 1605.11 535.692 1607.71 532.38 1617.27C530.367 1623.07 527.429 1624.64 524.564 1629.02C523.04 1631.34 520.833 1625.92 521.513 1623.78C520.304 1623.94 513.669 1629.74 512.681 1627.4C510.972 1623.34 511.251 1616.1 514.761 1610.74Z" fill="#F6C3D9"/>
<path d="M482.357 1582.77C495.77 1580.35 504.612 1592.93 502.767 1592.74C498.735 1592.32 498.051 1595.18 489.335 1599.12C484.039 1601.51 481.043 1600.52 476.175 1601.4C473.586 1601.86 475.874 1596.82 477.789 1595.89C476.891 1595.17 468.591 1594.38 469.558 1592.18C471.232 1588.36 476.392 1583.84 482.357 1582.77Z" fill="#F6C3D9"/>
<path d="M496.46 1504.88C481.428 1509.39 469.675 1496.15 471.81 1496.12C476.478 1496.07 476.888 1492.72 486.349 1487.08C492.098 1483.65 495.654 1484.4 501.11 1482.76C504.012 1481.89 502.05 1487.96 499.98 1489.27C501.101 1489.98 510.701 1489.8 509.88 1492.45C508.461 1497.03 503.145 1502.88 496.46 1504.88Z" fill="#F6C3D9"/>
<path d="M452.463 1445.92C465.754 1441.92 476.164 1453.62 474.275 1453.64C470.147 1453.69 469.787 1456.66 461.425 1461.66C456.344 1464.69 453.197 1464.04 448.374 1465.49C445.808 1466.26 447.537 1460.9 449.367 1459.73C448.374 1459.11 439.883 1459.27 440.606 1456.93C441.857 1452.88 446.553 1447.7 452.463 1445.92Z" fill="#F6C3D9"/>
<path d="M407.017 1468.5C395.563 1464.16 394.573 1450.37 395.907 1451.37C398.821 1453.56 400.671 1451.67 409.21 1452.67C414.398 1453.28 416.247 1455.43 420.404 1457.01C422.615 1457.85 418.517 1460.68 416.613 1460.51C416.968 1461.48 423.001 1465.93 421.235 1467.18C418.181 1469.34 412.11 1470.44 407.017 1468.5Z" fill="#F6C3D9"/>
<path d="M321.935 1501.03C329.652 1489.55 345.073 1491.99 343.631 1493.2C340.478 1495.85 342.078 1498.37 338.788 1507.51C336.789 1513.06 333.948 1514.54 331.146 1518.71C329.656 1520.92 327.597 1515.69 328.275 1513.64C327.112 1513.78 320.672 1519.28 319.749 1517.02C318.153 1513.1 318.503 1506.14 321.935 1501.03Z" fill="#F6C3D9"/>
<path d="M364.054 1364.6C358.589 1357.87 362.889 1349.08 363.349 1350.16C364.354 1352.54 366.158 1352.04 371.029 1355.69C373.987 1357.91 374.354 1359.89 376.336 1362.33C377.391 1363.63 373.877 1363.9 372.773 1363.12C372.644 1363.84 374.754 1368.71 373.228 1368.85C370.59 1369.09 366.484 1367.6 364.054 1364.6Z" fill="#F6C3D9"/>
<path d="M1356.74 2384.12C1361.64 2392.65 1355.23 2401.72 1354.92 2400.42C1354.22 2397.58 1352.11 2397.81 1347.31 2392.84C1344.4 2389.82 1344.35 2387.54 1342.57 2384.44C1341.62 2382.8 1345.61 2383.13 1346.7 2384.2C1346.98 2383.42 1345.49 2377.58 1347.23 2377.7C1350.23 2377.91 1354.56 2380.32 1356.74 2384.12Z" fill="#EF93BB"/>
<path d="M1287.01 2400.51C1295.65 2404.59 1295.57 2415.38 1294.59 2414.52C1292.46 2412.63 1290.91 2413.99 1284.33 2412.68C1280.33 2411.89 1279.03 2410.1 1275.89 2408.62C1274.23 2407.83 1277.59 2405.89 1279.06 2406.14C1278.84 2405.36 1274.42 2401.53 1275.87 2400.66C1278.38 2399.17 1283.17 2398.69 1287.01 2400.51Z" fill="#EF93BB"/>
<path d="M1261.39 2447.18C1268.81 2445.95 1273.58 2452.96 1272.57 2452.84C1270.35 2452.58 1269.95 2454.15 1265.11 2456.25C1262.17 2457.53 1260.52 2456.96 1257.83 2457.4C1256.4 2457.64 1257.7 2454.88 1258.77 2454.38C1258.28 2453.97 1253.71 2453.47 1254.26 2452.27C1255.21 2450.18 1258.09 2447.72 1261.39 2447.18Z" fill="#EF93BB"/>
<path d="M1188.84 2543.16C1178.58 2536.74 1180.28 2523.19 1181.38 2524.42C1183.78 2527.1 1185.94 2525.63 1194.02 2528.25C1198.93 2529.84 1200.3 2532.28 1204.02 2534.61C1206 2535.85 1201.49 2537.8 1199.68 2537.27C1199.83 2538.28 1204.82 2543.75 1202.87 2544.62C1199.49 2546.13 1193.4 2546.02 1188.84 2543.16Z" fill="#EF93BB"/>
<path d="M1182.51 2367.36C1190.74 2371.32 1190.6 2381.62 1189.67 2380.79C1187.65 2378.98 1186.15 2380.26 1179.87 2378.98C1176.06 2378.19 1174.82 2376.48 1171.84 2375.04C1170.25 2374.28 1173.47 2372.44 1174.88 2372.69C1174.67 2371.94 1170.48 2368.25 1171.87 2367.44C1174.27 2366.03 1178.85 2365.6 1182.51 2367.36Z" fill="#EF93BB"/>
<path d="M1078 2433.37C1088.21 2428.82 1097.71 2437.11 1096.2 2437.32C1092.91 2437.78 1092.93 2440.19 1086.76 2445.03C1083.01 2447.97 1080.43 2447.76 1076.72 2449.41C1074.75 2450.29 1075.59 2445.83 1076.93 2444.71C1076.07 2444.31 1069.31 2445.31 1069.65 2443.36C1070.24 2440 1073.46 2435.39 1078 2433.37Z" fill="#EF93BB"/>
<path d="M1066.61 2432.95C1075.67 2438.01 1074.8 2449.68 1073.8 2448.68C1071.63 2446.48 1069.85 2447.84 1062.82 2445.94C1058.55 2444.79 1057.27 2442.76 1053.98 2440.93C1052.24 2439.95 1056.02 2438.09 1057.59 2438.47C1057.41 2437.61 1052.91 2433.14 1054.54 2432.31C1057.37 2430.88 1062.59 2430.71 1066.61 2432.95Z" fill="#EF93BB"/>
<path d="M1093 2307.03C1086.58 2300.04 1090.68 2290.14 1091.26 2291.3C1092.52 2293.82 1094.45 2293.16 1100.02 2296.82C1103.4 2299.04 1103.94 2301.18 1106.27 2303.71C1107.51 2305.06 1103.69 2305.6 1102.43 2304.82C1102.34 2305.62 1104.97 2310.79 1103.31 2311.05C1100.45 2311.48 1095.86 2310.13 1093 2307.03Z" fill="#EF93BB"/>
<path d="M1068.43 2278.14C1072.17 2287.25 1064.63 2295.41 1064.48 2294.08C1064.16 2291.16 1062.04 2291.12 1057.94 2285.56C1055.44 2282.18 1055.69 2279.91 1054.33 2276.61C1053.61 2274.85 1057.52 2275.7 1058.46 2276.91C1058.84 2276.17 1058.13 2270.19 1059.83 2270.54C1062.78 2271.14 1066.76 2274.1 1068.43 2278.14Z" fill="#EF93BB"/>
<path d="M893.037 2388.51C886.924 2384.81 887.806 2376.8 888.466 2377.52C889.907 2379.08 891.167 2378.19 895.959 2379.66C898.871 2380.56 899.705 2381.99 901.923 2383.33C903.103 2384.04 900.455 2385.23 899.381 2384.93C899.483 2385.53 902.475 2388.71 901.331 2389.25C899.352 2390.17 895.755 2390.16 893.037 2388.51Z" fill="#EF93BB"/>
<path d="M928.764 2291.31C917.909 2284.83 919.384 2270.65 920.559 2271.9C923.126 2274.65 925.344 2273.07 933.839 2275.62C939 2277.17 940.491 2279.69 944.429 2282.04C946.524 2283.29 941.854 2285.43 939.95 2284.91C940.136 2285.96 945.464 2291.57 943.445 2292.52C939.954 2294.17 933.59 2294.19 928.764 2291.31Z" fill="#EF93BB"/>
<path d="M943.758 2173.89C951.127 2172.14 956.418 2178.85 955.388 2178.8C953.138 2178.7 952.846 2180.3 948.13 2182.75C945.265 2184.24 943.572 2183.78 940.898 2184.42C939.475 2184.76 940.591 2181.89 941.625 2181.32C941.105 2180.94 936.475 2180.76 936.944 2179.51C937.756 2177.34 940.482 2174.67 943.758 2173.89Z" fill="#EF93BB"/>
<path d="M928.109 2110.2C936.277 2104.62 945.867 2110.33 944.589 2110.75C941.794 2111.67 942.189 2113.77 937.584 2118.96C934.785 2122.12 932.506 2122.35 929.541 2124.37C927.964 2125.45 927.984 2121.43 928.977 2120.25C928.168 2120.03 922.436 2121.98 922.423 2120.23C922.4 2117.21 924.477 2112.68 928.109 2110.2Z" fill="#EF93BB"/>
<path d="M913.997 2074.28C918.47 2084.9 909.717 2094.52 909.534 2092.96C909.133 2089.56 906.647 2089.52 901.787 2083.06C898.835 2079.13 899.101 2076.47 897.479 2072.61C896.616 2070.56 901.201 2071.52 902.32 2072.93C902.753 2072.05 901.869 2065.06 903.867 2065.45C907.322 2066.13 912.009 2069.55 913.997 2074.28Z" fill="#EF93BB"/>
<path d="M722.779 2129.09C713.605 2127.53 710.85 2117.39 711.991 2117.95C714.483 2119.15 715.586 2117.47 722.098 2116.97C726.054 2116.67 727.747 2118 731.076 2118.57C732.847 2118.87 730.206 2121.58 728.762 2121.73C729.169 2122.4 734.317 2124.83 733.184 2126.02C731.223 2128.08 726.859 2129.79 722.779 2129.09Z" fill="#EF93BB"/>
<path d="M853.378 1999.69C846.11 1991.41 851.141 1980.03 851.779 1981.39C853.171 1984.36 855.437 1983.64 861.8 1988.04C865.666 1990.71 866.227 1993.2 868.864 1996.21C870.266 1997.81 865.818 1998.33 864.377 1997.38C864.249 1998.31 867.165 2004.39 865.235 2004.64C861.896 2005.07 856.609 2003.38 853.378 1999.69Z" fill="#EF93BB"/>
<path d="M697.849 1994.38C699.687 1987.72 707.377 1986.44 706.886 1987.24C705.811 1988.99 706.967 1989.93 706.855 1994.78C706.786 1997.72 705.676 1998.87 705.008 2001.29C704.653 2002.58 702.85 2000.42 702.846 1999.35C702.318 1999.6 700.138 2003.22 699.343 2002.29C697.968 2000.69 697.032 1997.34 697.849 1994.38Z" fill="#EF93BB"/>
<path d="M752.8 1937.27C746.086 1931.18 749.128 1921.42 749.776 1922.47C751.193 1924.76 752.976 1923.97 758.586 1926.96C761.994 1928.78 762.686 1930.76 765.122 1932.97C766.418 1934.15 762.833 1934.99 761.568 1934.35C761.55 1935.12 764.503 1939.81 762.949 1940.2C760.262 1940.86 755.786 1939.98 752.8 1937.27Z" fill="#EF93BB"/>
<path d="M838.75 1861.16C845.183 1869.61 839.594 1880.2 839.072 1878.85C837.931 1875.91 835.706 1876.45 829.884 1871.8C826.347 1868.98 825.973 1866.55 823.639 1863.48C822.397 1861.85 826.706 1861.65 828.028 1862.65C828.213 1861.77 825.814 1855.73 827.685 1855.62C830.922 1855.43 835.889 1857.41 838.75 1861.16Z" fill="#EF93BB"/>
<path d="M741.141 1867.16C733.864 1855.12 742.731 1841.95 743.228 1843.8C744.314 1847.84 747.321 1847.45 754.331 1854.4C758.59 1858.62 758.738 1861.87 761.377 1866.24C762.782 1868.57 757.077 1868.22 755.477 1866.72C755.109 1867.85 757.412 1876.14 754.931 1876.02C750.64 1875.82 744.376 1872.51 741.141 1867.16Z" fill="#EF93BB"/>
<path d="M712.8 1839.1C705.718 1838.1 703.376 1830.38 704.264 1830.78C706.205 1831.65 707.015 1830.34 712.005 1829.8C715.037 1829.48 716.367 1830.47 718.937 1830.83C720.304 1831.02 718.336 1833.16 717.23 1833.31C717.558 1833.82 721.566 1835.57 720.723 1836.51C719.263 1838.13 715.949 1839.54 712.8 1839.1Z" fill="#EF93BB"/>
<path d="M750.911 1762.17C737.309 1766.45 726.471 1754.56 728.41 1754.51C732.65 1754.41 732.983 1751.36 741.51 1746.12C746.69 1742.94 749.931 1743.57 754.867 1742.02C757.493 1741.19 755.784 1746.73 753.919 1747.94C754.947 1748.58 763.666 1748.3 762.953 1750.71C761.719 1754.89 756.96 1760.27 750.911 1762.17Z" fill="#EF93BB"/>
<path d="M768.617 1731.6C762.12 1725.03 765.756 1715.27 766.358 1716.37C767.672 1718.78 769.531 1718.07 775.075 1721.43C778.443 1723.47 779.038 1725.52 781.395 1727.91C782.649 1729.17 778.954 1729.83 777.701 1729.12C777.641 1729.9 780.386 1734.84 778.784 1735.14C776.012 1735.67 771.505 1734.52 768.617 1731.6Z" fill="#EF93BB"/>
<path d="M678.736 1737.05C677.068 1728.91 684.608 1723.33 684.519 1724.46C684.324 1726.92 686.076 1727.3 688.603 1732.56C690.138 1735.75 689.576 1737.59 690.181 1740.54C690.503 1742.12 687.396 1740.79 686.803 1739.64C686.374 1740.2 686.015 1745.27 684.658 1744.71C682.31 1743.75 679.478 1740.67 678.736 1737.05Z" fill="#EF93BB"/>
<path d="M615.552 1690.46C607.602 1685.5 608.912 1675 609.764 1675.95C611.626 1678.03 613.295 1676.89 619.555 1678.91C623.358 1680.14 624.426 1682.03 627.31 1683.83C628.845 1684.79 625.349 1686.3 623.945 1685.89C624.067 1686.67 627.932 1690.91 626.421 1691.59C623.807 1692.75 619.087 1692.67 615.552 1690.46Z" fill="#EF93BB"/>
<path d="M540.569 1666.04C546.098 1659.4 555.52 1661.91 554.546 1662.56C552.418 1664.01 553.251 1665.67 550.623 1671.14C549.026 1674.46 547.166 1675.2 545.159 1677.61C544.092 1678.89 543.148 1675.51 543.7 1674.28C542.968 1674.29 538.616 1677.29 538.188 1675.83C537.448 1673.29 538.11 1668.99 540.569 1666.04Z" fill="#EF93BB"/>
<path d="M618.773 1592.79C605.051 1592.84 598.488 1578.81 600.284 1579.33C604.209 1580.45 605.387 1577.73 614.719 1575.35C620.389 1573.91 623.185 1575.42 628.165 1575.4C630.814 1575.4 627.662 1579.99 625.601 1580.58C626.364 1581.45 634.456 1583.69 633.111 1585.7C630.784 1589.19 624.875 1592.77 618.773 1592.79Z" fill="#EF93BB"/>
<path d="M648.36 1511.91C651.563 1499.41 665.88 1496.75 664.989 1498.27C663.042 1501.57 665.233 1503.29 665.19 1512.34C665.162 1517.85 663.127 1520.04 661.964 1524.57C661.345 1526.98 657.905 1523.03 657.861 1521.01C656.883 1521.5 652.935 1528.34 651.419 1526.64C648.796 1523.69 646.935 1517.47 648.36 1511.91Z" fill="#EF93BB"/>
<path d="M638.657 1453.08C647.764 1444.21 661.167 1449.32 659.642 1450.13C656.307 1451.92 657.271 1454.48 652.588 1462.08C649.742 1466.69 646.908 1467.49 643.602 1470.7C641.844 1472.42 640.98 1467.32 641.977 1465.61C640.904 1465.52 634.076 1469.24 633.674 1467.03C632.978 1463.21 634.606 1457.02 638.657 1453.08Z" fill="#EF93BB"/>
<path d="M601.408 1421.44C606.7 1410.02 620.901 1410.02 619.778 1411.31C617.323 1414.13 619.12 1416.17 617.47 1424.84C616.466 1430.12 614.126 1431.85 612.204 1436C611.182 1438.2 608.586 1433.79 608.902 1431.86C607.877 1432.15 602.877 1438 601.725 1436.1C599.733 1432.82 599.054 1426.52 601.408 1421.44Z" fill="#EF93BB"/>
<path d="M506.95 1463.77C516.063 1457.67 526.632 1464.11 525.21 1464.56C522.103 1465.55 522.519 1467.88 517.358 1473.59C514.223 1477.05 511.694 1477.29 508.386 1479.5C506.627 1480.68 506.692 1476.22 507.805 1474.92C506.91 1474.67 500.536 1476.77 500.54 1474.83C500.548 1471.48 502.898 1466.48 506.95 1463.77Z" fill="#EF93BB"/>
<path d="M528.95 1454.98C531.329 1446.15 541.499 1444.39 540.855 1445.45C539.446 1447.78 540.985 1449.02 540.875 1455.43C540.808 1459.33 539.346 1460.87 538.482 1464.07C538.023 1465.78 535.619 1462.94 535.605 1461.52C534.908 1461.85 532.05 1466.66 530.99 1465.45C529.157 1463.34 527.892 1458.91 528.95 1454.98Z" fill="#EF93BB"/>
<path d="M596.129 1363.05C583.767 1359.22 581.813 1344.75 583.285 1345.72C586.501 1347.83 588.326 1345.72 597.394 1346.21C602.903 1346.51 604.994 1348.66 609.48 1350.05C611.866 1350.79 607.734 1354.04 605.715 1353.98C606.154 1354.98 612.807 1359.27 611.029 1360.71C607.952 1363.19 601.626 1364.75 596.129 1363.05Z" fill="#EF93BB"/>
<path d="M458.669 1462.77C467.012 1466.02 467.648 1476.1 466.68 1475.36C464.564 1473.75 463.2 1475.11 456.966 1474.33C453.178 1473.85 451.841 1472.26 448.813 1471.08C447.203 1470.46 450.215 1468.42 451.606 1468.56C451.352 1467.84 446.972 1464.55 448.27 1463.65C450.516 1462.09 454.959 1461.33 458.669 1462.77Z" fill="#EF93BB"/>
<path d="M480.409 1320.41C470.135 1322.68 462.934 1313.24 464.363 1313.33C467.486 1313.53 467.927 1311.31 474.533 1308.01C478.546 1306 480.887 1306.68 484.616 1305.85C486.6 1305.42 484.986 1309.38 483.537 1310.15C484.252 1310.68 490.679 1311.04 489.999 1312.77C488.823 1315.76 484.978 1319.4 480.409 1320.41Z" fill="#EF93BB"/>
<path d="M423.061 1385.89C414.759 1375.39 421.562 1361.91 422.251 1363.6C423.757 1367.28 426.548 1366.55 433.993 1372.28C438.515 1375.76 439.042 1378.81 442.054 1382.62C443.656 1384.65 438.23 1385 436.541 1383.77C436.329 1384.88 439.489 1392.44 437.133 1392.62C433.058 1392.93 426.752 1390.56 423.061 1385.89Z" fill="#EF93BB"/>
<path d="M317.379 1363.8C324.224 1358.44 332.958 1362.9 331.861 1363.35C329.463 1364.31 329.929 1366.13 326.186 1370.94C323.911 1373.87 321.926 1374.2 319.441 1376.15C318.119 1377.18 317.908 1373.66 318.712 1372.56C317.99 1372.42 313.074 1374.45 312.963 1372.92C312.772 1370.27 314.335 1366.18 317.379 1363.8Z" fill="#FADCE9"/>
<path d="M317.215 1408.6C324.624 1401.2 335.711 1405.28 334.463 1405.96C331.735 1407.47 332.555 1409.57 328.775 1415.87C326.479 1419.7 324.153 1420.38 321.464 1423.06C320.033 1424.49 319.271 1420.31 320.074 1418.88C319.19 1418.82 313.606 1421.95 313.252 1420.14C312.641 1417 313.919 1411.89 317.215 1408.6Z" fill="#FADCE9"/>
<path d="M342.031 1453.75C332.461 1447.26 334.563 1434.38 335.569 1435.59C337.768 1438.24 339.879 1436.91 347.502 1439.69C352.134 1441.39 353.362 1443.77 356.834 1446.12C358.681 1447.38 354.301 1449.08 352.59 1448.5C352.704 1449.48 357.272 1454.88 355.378 1455.64C352.101 1456.96 346.287 1456.64 342.031 1453.75Z" fill="#FADCE9"/>
<path d="M357.111 1456.7C363.589 1447.75 375.825 1450.13 374.64 1451.05C372.05 1453.08 373.257 1455.13 370.378 1462.33C368.627 1466.7 366.319 1467.81 363.968 1471.05C362.717 1472.78 361.22 1468.55 361.818 1466.93C360.886 1467.01 355.594 1471.22 354.921 1469.39C353.757 1466.22 354.23 1460.68 357.111 1456.7Z" fill="#FADCE9"/>
<path d="M329.503 1525.99C324.983 1514.81 334.28 1504.88 334.449 1506.51C334.818 1510.08 337.417 1510.15 342.404 1516.99C345.433 1521.14 345.115 1523.92 346.754 1527.97C347.626 1530.13 342.845 1529.06 341.696 1527.57C341.23 1528.48 342.05 1535.81 339.967 1535.37C336.363 1534.61 331.512 1530.96 329.503 1525.99Z" fill="#FADCE9"/>
<path d="M369.331 1545.41C358.928 1544.5 354.93 1533.41 356.255 1533.93C359.152 1535.05 360.233 1533.07 367.471 1531.92C371.868 1531.22 373.882 1532.56 377.657 1532.89C379.665 1533.07 376.957 1536.34 375.354 1536.63C375.872 1537.35 381.849 1539.61 380.689 1541.04C378.683 1543.52 373.956 1545.82 369.331 1545.41Z" fill="#FADCE9"/>
<path d="M377.938 1553.12C376.043 1547.84 380.55 1543.39 380.598 1544.15C380.703 1545.82 381.91 1545.9 384.103 1549.17C385.435 1551.16 385.235 1552.44 385.923 1554.36C386.288 1555.38 384.085 1554.79 383.578 1554.08C383.345 1554.49 383.591 1557.92 382.63 1557.67C380.968 1557.25 378.78 1555.47 377.938 1553.12Z" fill="#FADCE9"/>
<path d="M391.018 1586.77C384.768 1584.19 384.436 1576.57 385.156 1577.15C386.729 1578.4 387.779 1577.39 392.473 1578.07C395.325 1578.49 396.312 1579.7 398.58 1580.64C399.786 1581.14 397.483 1582.63 396.435 1582.51C396.616 1583.05 399.874 1585.6 398.881 1586.26C397.163 1587.4 393.798 1587.91 391.018 1586.77Z" fill="#FADCE9"/>
<path d="M348.557 1622.78C356.023 1615.14 367.39 1619.16 366.125 1619.87C363.361 1621.44 364.223 1623.58 360.447 1630.05C358.152 1633.99 355.788 1634.72 353.078 1637.49C351.636 1638.96 350.805 1634.7 351.606 1633.24C350.703 1633.19 345.045 1636.46 344.661 1634.61C343.997 1631.41 345.236 1626.18 348.557 1622.78Z" fill="#FADCE9"/>
<path d="M415.025 1641.7C404.67 1646.51 394.833 1638.19 396.368 1637.96C399.724 1637.44 399.671 1634.98 405.898 1629.93C409.682 1626.87 412.32 1627.04 416.079 1625.3C418.078 1624.37 417.294 1628.94 415.94 1630.1C416.821 1630.5 423.715 1629.37 423.399 1631.36C422.852 1634.81 419.63 1639.57 415.025 1641.7Z" fill="#FADCE9"/>
<path d="M377.817 1674.22C378.978 1664.08 389.913 1660.45 389.378 1661.73C388.209 1664.53 390.112 1665.64 391.055 1672.75C391.628 1677.06 390.269 1679 389.846 1682.68C389.621 1684.64 386.498 1681.91 386.246 1680.33C385.532 1680.82 383.176 1686.6 381.804 1685.43C379.431 1683.41 377.3 1678.73 377.817 1674.22Z" fill="#FADCE9"/>
<path d="M464.971 1640.13C464.807 1630.32 474.77 1625.5 474.421 1626.79C473.658 1629.6 475.609 1630.42 477.396 1637.07C478.481 1641.11 477.429 1643.12 477.487 1646.68C477.518 1648.57 474.201 1646.36 473.765 1644.9C473.145 1645.45 471.625 1651.26 470.172 1650.31C467.658 1648.68 465.043 1644.49 464.971 1640.13Z" fill="#FADCE9"/>
<path d="M480.625 1653.64C490.209 1643.77 504.863 1648.9 503.238 1649.83C499.684 1651.86 500.804 1654.6 495.967 1662.96C493.028 1668.04 489.986 1668.98 486.507 1672.56C484.656 1674.47 483.568 1668.99 484.594 1667.1C483.431 1667.03 476.157 1671.27 475.655 1668.89C474.787 1664.78 476.362 1658.03 480.625 1653.64Z" fill="#FADCE9"/>
<path d="M462.609 1717.51C474.505 1709.51 488.334 1717.9 486.477 1718.49C482.418 1719.79 482.967 1722.83 476.235 1730.31C472.145 1734.85 468.841 1735.16 464.523 1738.06C462.226 1739.6 462.3 1733.78 463.753 1732.07C462.582 1731.75 454.256 1734.5 454.256 1731.97C454.259 1727.59 457.318 1721.06 462.609 1717.51Z" fill="#FADCE9"/>
<path d="M486.789 1731C483.699 1718.26 495.276 1709.04 495.199 1710.83C495.03 1714.72 497.814 1715.21 502.096 1723.36C504.696 1728.31 503.915 1731.24 505.035 1735.87C505.631 1738.33 500.657 1736.42 499.657 1734.64C499.011 1735.54 498.731 1743.56 496.559 1742.75C492.803 1741.36 488.163 1736.67 486.789 1731Z" fill="#FADCE9"/>
<path d="M487.093 1768.3C480.164 1766.11 479.117 1757.98 479.94 1758.53C481.739 1759.72 482.771 1758.54 487.861 1758.85C490.954 1759.04 492.121 1760.25 494.635 1761.04C495.972 1761.47 493.64 1763.28 492.507 1763.24C492.75 1763.81 496.471 1766.24 495.468 1767.04C493.732 1768.42 490.174 1769.27 487.093 1768.3Z" fill="#FADCE9"/>
<path d="M521.211 1781.59C525.037 1773.32 535.317 1773.31 534.504 1774.25C532.728 1776.29 534.03 1777.76 532.838 1784.05C532.114 1787.86 530.421 1789.12 529.031 1792.12C528.292 1793.72 526.412 1790.53 526.639 1789.12C525.898 1789.34 522.281 1793.58 521.446 1792.2C520.003 1789.82 519.509 1785.26 521.211 1781.59Z" fill="#FADCE9"/>
<path d="M585.952 1729.69C587.899 1724.47 594.161 1723.99 593.709 1724.6C592.723 1725.93 593.584 1726.76 593.15 1730.65C592.886 1733 591.913 1733.85 591.206 1735.74C590.83 1736.75 589.536 1734.89 589.609 1734.03C589.168 1734.19 587.161 1736.94 586.589 1736.14C585.599 1734.76 585.086 1732.01 585.952 1729.69Z" fill="#FADCE9"/>
<path d="M563.805 1813.68C567.562 1805.41 577.816 1805.33 577.012 1806.27C575.255 1808.32 576.564 1809.78 575.421 1816.05C574.726 1819.87 573.046 1821.13 571.681 1824.14C570.956 1825.73 569.057 1822.57 569.274 1821.16C568.536 1821.38 564.958 1825.64 564.116 1824.27C562.66 1821.91 562.134 1817.36 563.805 1813.68Z" fill="#FADCE9"/>
<path d="M634.314 1761.15C643.993 1756.63 653.208 1764.4 651.773 1764.62C648.635 1765.11 648.688 1767.42 642.873 1772.14C639.339 1775.01 636.87 1774.86 633.358 1776.5C631.489 1777.37 632.214 1773.09 633.479 1772.01C632.654 1771.64 626.208 1772.7 626.5 1770.84C627.005 1767.62 630.01 1763.16 634.314 1761.15Z" fill="#FADCE9"/>
<path d="M636.216 1833.99C631.378 1836.3 626.715 1832.44 627.434 1832.32C629.008 1832.06 628.97 1830.91 631.867 1828.51C633.628 1827.05 634.868 1827.11 636.624 1826.28C637.558 1825.83 637.214 1827.98 636.584 1828.53C637 1828.71 640.231 1828.15 640.094 1829.09C639.855 1830.71 638.367 1832.96 636.216 1833.99Z" fill="#FADCE9"/>
<path d="M651.427 1872.08C659.825 1864.54 671.525 1869.56 670.143 1870.23C667.121 1871.69 667.882 1874 663.454 1880.56C660.763 1884.55 658.221 1885.15 655.172 1887.89C653.551 1889.34 652.97 1884.79 653.916 1883.31C652.968 1883.19 646.778 1886.24 646.502 1884.27C646.023 1880.86 647.692 1875.43 651.427 1872.08Z" fill="#FADCE9"/>
<path d="M693.708 1885.91C692.563 1875.57 702.606 1869.49 702.366 1870.88C701.839 1873.93 703.981 1874.6 706.528 1881.44C708.074 1885.6 707.163 1887.83 707.577 1891.59C707.798 1893.58 704.075 1891.58 703.469 1890.07C702.87 1890.72 701.839 1897 700.211 1896.15C697.395 1894.67 694.217 1890.51 693.708 1885.91Z" fill="#FADCE9"/>
<path d="M721.895 1927.21C715.305 1928.58 710.775 1922.49 711.688 1922.56C713.684 1922.71 713.984 1921.29 718.236 1919.23C720.819 1917.98 722.311 1918.43 724.703 1917.94C725.975 1917.67 724.912 1920.19 723.979 1920.67C724.431 1921.02 728.54 1921.3 728.091 1922.4C727.315 1924.3 724.826 1926.6 721.895 1927.21Z" fill="#FADCE9"/>
<path d="M749.93 1943.15C740.518 1947.45 731.649 1939.86 733.042 1939.65C736.086 1939.2 736.051 1936.97 741.722 1932.43C745.168 1929.68 747.558 1929.84 750.974 1928.29C752.791 1927.46 752.056 1931.59 750.822 1932.64C751.619 1933 757.872 1932.02 757.575 1933.82C757.061 1936.94 754.115 1941.24 749.93 1943.15Z" fill="#FADCE9"/>
<path d="M760.012 1981.77C755.736 1975.7 759.913 1968.44 760.243 1969.4C760.965 1971.48 762.533 1971.17 766.48 1974.56C768.878 1976.63 769.077 1978.33 770.628 1980.54C771.453 1981.71 768.438 1981.74 767.541 1981C767.389 1981.61 768.909 1985.89 767.599 1985.92C765.333 1985.97 761.914 1984.46 760.012 1981.77Z" fill="#FADCE9"/>
<path d="M792.851 1975.09C794.227 1969.04 801.074 1967.58 800.665 1968.31C799.773 1969.93 800.849 1970.73 800.946 1975.08C801.005 1977.72 800.056 1978.8 799.556 1981C799.29 1982.17 797.585 1980.31 797.537 1979.34C797.074 1979.59 795.266 1982.93 794.515 1982.13C793.216 1980.75 792.239 1977.78 792.851 1975.09Z" fill="#FADCE9"/>
<path d="M830.226 1982.43C825.443 1974.39 831.401 1965.68 831.722 1966.91C832.426 1969.6 834.427 1969.35 839.057 1974C841.87 1976.83 841.953 1979 843.688 1981.92C844.611 1983.47 840.819 1983.21 839.762 1982.2C839.512 1982.96 841.005 1988.48 839.356 1988.39C836.503 1988.23 832.353 1986 830.226 1982.43Z" fill="#FADCE9"/>
<path d="M836.872 2042.33C830.982 2043.11 827.387 2037.46 828.187 2037.58C829.934 2037.84 830.29 2036.61 834.166 2035.07C836.52 2034.14 837.805 2034.63 839.942 2034.35C841.079 2034.2 839.98 2036.35 839.128 2036.71C839.504 2037.05 843.102 2037.56 842.636 2038.5C841.83 2040.12 839.491 2041.99 836.872 2042.33Z" fill="#FADCE9"/>
<path d="M808.765 2104.56C796.499 2106.51 788.677 2094.89 790.354 2095.09C794.021 2095.55 794.697 2092.96 802.713 2089.53C807.583 2087.45 810.294 2088.41 814.746 2087.7C817.114 2087.33 814.935 2091.88 813.173 2092.69C813.977 2093.37 821.526 2094.24 820.603 2096.23C819.007 2099.67 814.22 2103.7 808.765 2104.56Z" fill="#FADCE9"/>
<path d="M854.905 2120.46C848.75 2123.8 842.41 2119.08 843.34 2118.88C845.375 2118.43 845.248 2116.93 848.868 2113.6C851.067 2111.58 852.688 2111.59 854.923 2110.37C856.111 2109.73 855.806 2112.56 855.021 2113.32C855.576 2113.53 859.753 2112.58 859.636 2113.81C859.433 2115.94 857.643 2118.97 854.905 2120.46Z" fill="#FADCE9"/>
<path d="M907.568 2097.46C910.839 2090.97 919.035 2091.24 918.363 2091.96C916.892 2093.55 917.891 2094.75 916.774 2099.73C916.095 2102.75 914.711 2103.71 913.524 2106.07C912.892 2107.32 911.477 2104.73 911.696 2103.62C911.099 2103.77 908.102 2107.05 907.473 2105.93C906.386 2104 906.113 2100.35 907.568 2097.46Z" fill="#FADCE9"/>
<path d="M941.417 2145.3C929.188 2151.49 917.046 2141.91 918.879 2141.56C922.884 2140.8 922.72 2137.85 929.986 2131.55C934.402 2127.72 937.574 2127.81 942.013 2125.57C944.374 2124.37 943.62 2129.89 942.042 2131.34C943.115 2131.78 951.341 2130.15 951.043 2132.55C950.527 2136.7 946.855 2142.55 941.417 2145.3Z" fill="#FADCE9"/>
<path d="M914.726 2192.88C904.453 2192.88 899.574 2182.37 900.917 2182.76C903.853 2183.6 904.742 2181.58 911.735 2179.82C915.983 2178.75 918.073 2179.89 921.801 2179.89C923.784 2179.89 921.413 2183.32 919.869 2183.76C920.438 2184.41 926.491 2186.11 925.478 2187.61C923.728 2190.22 919.295 2192.88 914.726 2192.88Z" fill="#FADCE9"/>
<path d="M944.381 2163.61C953.848 2152.89 969.32 2157.48 967.678 2158.53C964.087 2160.81 965.386 2163.61 960.775 2172.53C957.973 2177.95 954.861 2179.08 951.424 2182.97C949.596 2185.04 948.196 2179.4 949.168 2177.39C947.957 2177.38 940.611 2182.14 939.973 2179.69C938.868 2175.46 940.17 2168.38 944.381 2163.61Z" fill="#FADCE9"/>
<path d="M926.892 2210.08C935.781 2204.36 945.858 2210.75 944.48 2211.16C941.467 2212.06 941.828 2214.31 936.755 2219.72C933.673 2223.01 931.231 2223.19 928.005 2225.27C926.288 2226.37 926.428 2222.08 927.524 2220.84C926.665 2220.59 920.485 2222.5 920.522 2220.63C920.587 2217.4 922.939 2212.63 926.892 2210.08Z" fill="#FADCE9"/>
<path d="M973.661 2208.99C962.012 2200.75 964.917 2184.92 966.128 2186.44C968.777 2189.75 971.412 2188.16 980.749 2191.78C986.422 2193.98 987.879 2196.95 992.106 2199.94C994.354 2201.53 988.91 2203.52 986.813 2202.77C986.93 2203.97 992.435 2210.75 990.079 2211.64C986.005 2213.19 978.841 2212.66 973.661 2208.99Z" fill="#FADCE9"/>
<path d="M968.804 2274.49C955.208 2279.76 943.365 2268.34 945.341 2268.16C949.661 2267.78 949.799 2264.64 958.154 2258.73C963.231 2255.15 966.579 2255.58 971.513 2253.67C974.139 2252.66 972.759 2258.42 970.937 2259.78C972.027 2260.36 980.905 2259.5 980.336 2262.01C979.353 2266.35 974.851 2272.15 968.804 2274.49Z" fill="#FADCE9"/>
<path d="M988.242 2324.83C973.883 2320.96 971.029 2304.42 972.76 2305.47C976.543 2307.76 978.551 2305.26 988.985 2305.44C995.325 2305.55 997.817 2307.93 1003.03 2309.34C1005.8 2310.08 1001.19 2313.99 998.869 2314.01C999.416 2315.15 1007.24 2319.79 1005.26 2321.52C1001.83 2324.5 994.626 2326.55 988.242 2324.83Z" fill="#FADCE9"/>
<path d="M1016.62 2320.67C1013.82 2313.53 1019.8 2307.28 1019.9 2308.32C1020.11 2310.59 1021.76 2310.66 1024.88 2315.04C1026.78 2317.7 1026.56 2319.46 1027.57 2322.06C1028.11 2323.43 1025.08 2322.72 1024.36 2321.76C1024.06 2322.34 1024.53 2327.01 1023.21 2326.71C1020.92 2326.2 1017.86 2323.85 1016.62 2320.67Z" fill="#FADCE9"/>
<path d="M1090.89 2290.87C1082.51 2297.06 1072.18 2291.42 1073.51 2290.93C1076.42 2289.85 1075.92 2287.65 1080.58 2282C1083.4 2278.57 1085.79 2278.24 1088.84 2275.99C1090.46 2274.8 1090.59 2279.03 1089.59 2280.32C1090.45 2280.51 1096.42 2278.24 1096.5 2280.08C1096.64 2283.27 1094.62 2288.12 1090.89 2290.87Z" fill="#FADCE9"/>
<path d="M1105.33 2311.87C1100.6 2314.68 1095.48 2311.18 1096.21 2310.99C1097.79 2310.58 1097.64 2309.4 1100.38 2306.68C1102.04 2305.03 1103.32 2304.98 1105.03 2303.96C1105.94 2303.42 1105.79 2305.65 1105.2 2306.27C1105.64 2306.41 1108.89 2305.54 1108.83 2306.51C1108.74 2308.18 1107.43 2310.62 1105.33 2311.87Z" fill="#FADCE9"/>
<path d="M1087.27 2387.65C1095.59 2383.79 1103.5 2390.48 1102.27 2390.67C1099.57 2391.08 1099.61 2393.06 1094.61 2397.12C1091.56 2399.58 1089.44 2399.45 1086.42 2400.85C1084.81 2401.59 1085.44 2397.92 1086.53 2396.99C1085.82 2396.67 1080.28 2397.57 1080.53 2395.97C1080.97 2393.2 1083.56 2389.37 1087.27 2387.65Z" fill="#FADCE9"/>
<path d="M1124.65 2404.35C1125.86 2397.44 1133.51 2395.38 1133.09 2396.24C1132.17 2398.12 1133.44 2398.95 1133.8 2403.87C1134.02 2406.85 1133.01 2408.13 1132.57 2410.64C1132.34 2411.97 1130.31 2409.97 1130.2 2408.88C1129.69 2409.19 1127.84 2413.06 1126.94 2412.21C1125.39 2410.72 1124.12 2407.43 1124.65 2404.35Z" fill="#FADCE9"/>
<path d="M1161.97 2373.7C1166.97 2368.62 1174.55 2371.31 1173.7 2371.79C1171.85 2372.83 1172.43 2374.26 1169.9 2378.58C1168.36 2381.2 1166.78 2381.68 1164.96 2383.53C1164 2384.51 1163.45 2381.66 1163.99 2380.69C1163.39 2380.65 1159.6 2382.82 1159.35 2381.59C1158.91 2379.46 1159.75 2375.96 1161.97 2373.7Z" fill="#FADCE9"/>
<path d="M1201.81 2334.69C1207.06 2326.57 1217.86 2328.09 1216.86 2328.95C1214.69 2330.84 1215.84 2332.58 1213.66 2339C1212.33 2342.9 1210.36 2343.97 1208.46 2346.92C1207.45 2348.49 1205.94 2344.86 1206.39 2343.42C1205.58 2343.53 1201.15 2347.45 1200.48 2345.88C1199.31 2343.16 1199.47 2338.3 1201.81 2334.69Z" fill="#FADCE9"/>
<path d="M1231.72 2428.42C1222.49 2430.46 1216.02 2421.99 1217.3 2422.07C1220.11 2422.25 1220.5 2420.25 1226.43 2417.28C1230.03 2415.48 1232.14 2416.09 1235.48 2415.34C1237.27 2414.95 1235.82 2418.51 1234.52 2419.2C1235.16 2419.68 1240.93 2419.99 1240.32 2421.55C1239.27 2424.23 1235.82 2427.51 1231.72 2428.42Z" fill="#FADCE9"/>
<path d="M176.481 1611.63C183.636 1607.66 191.1 1613.1 190.014 1613.35C187.642 1613.89 187.807 1615.65 183.616 1619.58C181.069 1621.96 179.174 1621.98 176.577 1623.42C175.195 1624.19 175.519 1620.88 176.427 1619.98C175.777 1619.74 170.906 1620.9 171.029 1619.46C171.242 1616.97 173.299 1613.4 176.481 1611.63Z" fill="#EF93BB"/>
<path d="M244.134 1592.65C251.711 1583.17 265.012 1586.43 263.663 1587.38C260.715 1589.46 261.931 1591.78 258.394 1599.53C256.244 1604.23 253.653 1605.32 250.902 1608.76C249.439 1610.59 248.019 1605.87 248.76 1604.13C247.733 1604.17 241.706 1608.5 241.064 1606.46C239.953 1602.92 240.764 1596.87 244.134 1592.65Z" fill="#EF93BB"/>
<path d="M319.707 1472.23C310.29 1465.48 312.731 1452.63 313.707 1453.87C315.841 1456.58 317.99 1455.3 325.553 1458.29C330.148 1460.1 331.317 1462.52 334.733 1464.97C336.551 1466.27 332.119 1467.86 330.42 1467.24C330.509 1468.22 334.944 1473.75 333.026 1474.47C329.71 1475.7 323.894 1475.23 319.707 1472.23Z" fill="#EF93BB"/>
<path d="M363.288 1641.46C357.382 1637.23 358.907 1629.18 359.52 1629.95C360.859 1631.65 362.205 1630.85 366.949 1632.72C369.83 1633.85 370.564 1635.37 372.707 1636.9C373.847 1637.72 371.069 1638.72 370.003 1638.33C370.059 1638.94 372.842 1642.41 371.64 1642.86C369.561 1643.63 365.915 1643.34 363.288 1641.46Z" fill="#EF93BB"/>
<path d="M421.343 1496.67C416.284 1489.18 421.556 1480.44 421.934 1481.61C422.761 1484.17 424.679 1483.82 429.403 1488.06C432.273 1490.63 432.473 1492.72 434.308 1495.44C435.284 1496.88 431.61 1496.84 430.535 1495.93C430.335 1496.67 432.079 1501.92 430.483 1501.92C427.721 1501.93 423.592 1500 421.343 1496.67Z" fill="#EF93BB"/>
<path d="M448.775 1471.88C461.903 1474.8 465.138 1489.63 463.532 1488.75C460.022 1486.83 458.308 1489.17 448.871 1489.42C443.138 1489.57 440.792 1487.53 436.028 1486.46C433.494 1485.9 437.504 1482.18 439.601 1482.07C439.061 1481.07 431.809 1477.18 433.532 1475.54C436.512 1472.72 442.937 1470.57 448.775 1471.88Z" fill="#EF93BB"/>
<path d="M442.151 1589.9C449.124 1578.45 464.146 1580.16 462.803 1581.39C459.866 1584.09 461.522 1586.45 458.732 1595.43C457.036 1600.89 454.351 1602.44 451.82 1606.6C450.473 1608.8 448.257 1603.83 448.825 1601.82C447.706 1602.01 441.712 1607.6 440.722 1605.45C439.011 1601.73 439.05 1594.98 442.151 1589.9Z" fill="#EF93BB"/>
<path d="M543.092 1454.98C555.998 1459.15 557.86 1474.33 556.33 1473.3C552.986 1471.05 551.047 1473.23 541.55 1472.6C535.781 1472.22 533.617 1469.95 528.934 1468.43C526.443 1467.63 530.815 1464.27 532.93 1464.36C532.482 1463.3 525.566 1458.72 527.448 1457.24C530.703 1454.68 537.353 1453.13 543.092 1454.98Z" fill="#EF93BB"/>
<path d="M558.927 1629.4C545.275 1632.34 535.788 1619.76 537.683 1619.89C541.827 1620.18 542.428 1617.23 551.219 1612.9C556.56 1610.26 559.662 1611.18 564.617 1610.11C567.252 1609.55 565.082 1614.79 563.154 1615.8C564.098 1616.52 572.625 1617.04 571.71 1619.33C570.127 1623.29 564.998 1628.1 558.927 1629.4Z" fill="#EF93BB"/>
<path d="M611.822 1575.3C618.879 1566.97 630.752 1570.25 629.515 1571.07C626.811 1572.86 627.845 1574.98 624.464 1581.85C622.409 1586.03 620.052 1586.94 617.491 1589.96C616.128 1591.57 614.973 1587.29 615.684 1585.74C614.76 1585.75 609.23 1589.49 608.705 1587.63C607.798 1584.43 608.683 1579 611.822 1575.3Z" fill="#EF93BB"/>
<path d="M754.601 1608.78C759.788 1614.09 756.819 1621.92 756.341 1621.03C755.297 1619.08 753.8 1619.65 749.362 1616.92C746.667 1615.27 746.199 1613.61 744.317 1611.69C743.316 1610.66 746.288 1610.15 747.29 1610.73C747.343 1610.11 745.162 1606.13 746.45 1605.89C748.679 1605.48 752.295 1606.42 754.601 1608.78Z" fill="#EF93BB"/>
<path d="M627.017 1784.26C626.276 1775.18 635.224 1770.11 634.978 1771.32C634.44 1773.98 636.298 1774.62 638.355 1780.68C639.604 1784.36 638.749 1786.29 639.017 1789.58C639.159 1791.34 635.951 1789.49 635.458 1788.15C634.917 1788.7 633.856 1794.18 632.451 1793.39C630.023 1792.03 627.346 1788.3 627.017 1784.26Z" fill="#EF93BB"/>
</g>
<defs>
<clipPath id="clip0_191_370">
<rect width="985.911" height="1386.41" fill="white" transform="translate(304)"/>
</clipPath>
<clipPath id="clip1_191_370">
<rect width="985.911" height="1386.41" fill="white" transform="translate(1612.7 1641.95) rotate(106.853)"/>
</clipPath>
</defs>
</svg>
