<svg width="28" height="241" viewBox="0 0 28 241" fill="none" xmlns="http://www.w3.org/2000/svg">
<circle cx="13.5" cy="50.5" r="2.5" transform="rotate(90 13.5 50.5)" fill="#C69C6D"/>
<circle cx="13.5" cy="70.5" r="2.5" transform="rotate(90 13.5 70.5)" fill="#C69C6D"/>
<circle cx="13.5" cy="90.5" r="2.5" transform="rotate(90 13.5 90.5)" fill="#C69C6D"/>
<circle cx="13.5" cy="110.5" r="2.5" transform="rotate(90 13.5 110.5)" fill="#C69C6D"/>
<circle cx="13.5" cy="130.5" r="2.5" transform="rotate(90 13.5 130.5)" fill="#C69C6D"/>
<circle cx="13.5" cy="150.5" r="2.5" transform="rotate(90 13.5 150.5)" fill="#C69C6D"/>
<circle cx="13.5" cy="170.5" r="2.5" transform="rotate(90 13.5 170.5)" fill="#C69C6D"/>
<circle cx="13.5" cy="190.5" r="2.5" transform="rotate(90 13.5 190.5)" fill="#C69C6D"/>
<path d="M14 0L16.0464 9.05953L23.8995 4.1005L18.9405 11.9536L28 14L18.9405 16.0464L23.8995 23.8995L16.0464 18.9405L14 28L11.9536 18.9405L4.1005 23.8995L9.05953 16.0464L0 14L9.05953 11.9536L4.1005 4.1005L11.9536 9.05953L14 0Z" fill="#C69C6D"/>
<path d="M14 0L16.0464 9.05953L23.8995 4.1005L18.9405 11.9536L28 14L18.9405 16.0464L23.8995 23.8995L16.0464 18.9405L14 28L11.9536 18.9405L4.1005 23.8995L9.05953 16.0464L0 14L9.05953 11.9536L4.1005 4.1005L11.9536 9.05953L14 0Z" fill="#C69C6D"/>
<path d="M14 0L16.0464 9.05953L23.8995 4.1005L18.9405 11.9536L28 14L18.9405 16.0464L23.8995 23.8995L16.0464 18.9405L14 28L11.9536 18.9405L4.1005 23.8995L9.05953 16.0464L0 14L9.05953 11.9536L4.1005 4.1005L11.9536 9.05953L14 0Z" fill="#C69C6D"/>
<path d="M14 213L16.0464 222.06L23.8995 217.101L18.9405 224.954L28 227L18.9405 229.046L23.8995 236.899L16.0464 231.94L14 241L11.9536 231.94L4.1005 236.899L9.05953 229.046L0 227L9.05953 224.954L4.1005 217.101L11.9536 222.06L14 213Z" fill="#C69C6D"/>
</svg>
