<svg width="111" height="111" viewBox="0 0 111 111" fill="none" xmlns="http://www.w3.org/2000/svg">
<circle cx="55.5" cy="55.5" r="55.5" fill="white"/>
<path d="M33.352 83.16C32.552 83.16 31.8107 83.016 31.128 82.728C30.4453 82.4293 29.848 82.0187 29.336 81.496C28.8347 80.9733 28.4453 80.3653 28.168 79.672C27.8907 78.9787 27.752 78.2373 27.752 77.448C27.752 76.648 27.8907 75.9013 28.168 75.208C28.4453 74.5147 28.8347 73.912 29.336 73.4C29.848 72.8773 30.44 72.472 31.112 72.184C31.7947 71.8853 32.536 71.736 33.336 71.736C34.2107 71.736 34.9787 71.8853 35.64 72.184C36.3013 72.4827 36.888 72.888 37.4 73.4L36.36 74.44C36.008 74.0453 35.576 73.736 35.064 73.512C34.5627 73.288 33.9867 73.176 33.336 73.176C32.7493 73.176 32.2107 73.2827 31.72 73.496C31.2293 73.6987 30.8027 73.992 30.44 74.376C30.0773 74.76 29.7947 75.2133 29.592 75.736C29.4 76.2587 29.304 76.8293 29.304 77.448C29.304 78.0667 29.4 78.6373 29.592 79.16C29.7947 79.6827 30.0773 80.136 30.44 80.52C30.8027 80.904 31.2293 81.2027 31.72 81.416C32.2107 81.6187 32.7493 81.72 33.336 81.72C34.0293 81.72 34.632 81.608 35.144 81.384C35.656 81.1493 36.088 80.8347 36.44 80.44L37.48 81.464C36.968 81.9973 36.3653 82.4133 35.672 82.712C34.9893 83.0107 34.216 83.16 33.352 83.16ZM40.9276 83V71.896H42.4316V83H40.9276ZM41.9516 83V81.624H47.9036V83H41.9516ZM55.443 83.16C54.6537 83.16 53.9177 83.016 53.235 82.728C52.5523 82.4293 51.955 82.0187 51.443 81.496C50.931 80.9627 50.531 80.3493 50.243 79.656C49.9657 78.9627 49.827 78.2213 49.827 77.432C49.827 76.632 49.9657 75.8907 50.243 75.208C50.531 74.5147 50.9257 73.9067 51.427 73.384C51.939 72.8613 52.531 72.456 53.203 72.168C53.8857 71.88 54.6217 71.736 55.411 71.736C56.2003 71.736 56.931 71.88 57.603 72.168C58.2857 72.456 58.883 72.8613 59.395 73.384C59.907 73.9067 60.307 74.5147 60.595 75.208C60.883 75.9013 61.027 76.648 61.027 77.448C61.027 78.2373 60.883 78.9787 60.595 79.672C60.307 80.3653 59.907 80.9733 59.395 81.496C58.8937 82.0187 58.3017 82.4293 57.619 82.728C56.947 83.016 56.2217 83.16 55.443 83.16ZM55.411 81.72C56.211 81.72 56.9097 81.5387 57.507 81.176C58.115 80.8027 58.595 80.296 58.947 79.656C59.299 79.0053 59.475 78.264 59.475 77.432C59.475 76.8133 59.3737 76.248 59.171 75.736C58.9683 75.2133 58.6857 74.76 58.323 74.376C57.9603 73.992 57.5337 73.6987 57.043 73.496C56.5523 73.2827 56.0083 73.176 55.411 73.176C54.6217 73.176 53.923 73.3573 53.315 73.72C52.7177 74.0827 52.243 74.584 51.891 75.224C51.5497 75.864 51.379 76.6 51.379 77.432C51.379 78.0507 51.475 78.6267 51.667 79.16C51.8697 79.6827 52.147 80.136 52.499 80.52C52.8617 80.8933 53.2883 81.1867 53.779 81.4C54.2803 81.6133 54.8243 81.72 55.411 81.72ZM67.4656 83.16C66.591 83.16 65.8443 83 65.2256 82.68C64.607 82.36 64.0576 81.896 63.5776 81.288L64.6016 80.264C64.9536 80.7547 65.359 81.128 65.8176 81.384C66.2763 81.6293 66.8416 81.752 67.5136 81.752C68.175 81.752 68.703 81.608 69.0976 81.32C69.503 81.032 69.7056 80.6373 69.7056 80.136C69.7056 79.72 69.6096 79.384 69.4176 79.128C69.2256 78.872 68.9643 78.664 68.6336 78.504C68.3136 78.3333 67.9616 78.184 67.5776 78.056C67.1936 77.9173 66.8096 77.7733 66.4256 77.624C66.0416 77.464 65.6896 77.272 65.3696 77.048C65.0496 76.8133 64.7883 76.5093 64.5856 76.136C64.3936 75.7627 64.2976 75.2933 64.2976 74.728C64.2976 74.0987 64.447 73.5653 64.7456 73.128C65.055 72.68 65.471 72.3387 65.9936 72.104C66.527 71.8587 67.1243 71.736 67.7856 71.736C68.511 71.736 69.1616 71.88 69.7376 72.168C70.3136 72.4453 70.783 72.8133 71.1456 73.272L70.1216 74.296C69.791 73.912 69.4336 73.624 69.0496 73.432C68.6763 73.24 68.2443 73.144 67.7536 73.144C67.1563 73.144 66.6816 73.2773 66.3296 73.544C65.9776 73.8 65.8016 74.1627 65.8016 74.632C65.8016 75.0053 65.8976 75.3093 66.0896 75.544C66.2923 75.768 66.5536 75.96 66.8736 76.12C67.1936 76.28 67.5456 76.4293 67.9296 76.568C68.3243 76.696 68.7136 76.84 69.0976 77C69.4816 77.16 69.8336 77.3627 70.1536 77.608C70.4736 77.8533 70.7296 78.1733 70.9216 78.568C71.1243 78.952 71.2256 79.4373 71.2256 80.024C71.2256 81.0053 70.8843 81.7733 70.2016 82.328C69.5296 82.8827 68.6176 83.16 67.4656 83.16ZM74.8526 83V71.896H76.3566V83H74.8526ZM75.8766 83V81.624H82.2446V83H75.8766ZM75.8766 77.976V76.664H81.7166V77.976H75.8766ZM75.8766 73.272V71.896H82.1646V73.272H75.8766Z" fill="#434A53"/>
<rect x="40" y="60.4056" width="43" height="3" transform="rotate(-45 40 60.4056)" fill="#C69C6D"/>
<rect x="49.8423" y="38.7218" width="19" height="3" transform="rotate(45 49.8423 38.7218)" fill="#C69C6D"/>
<circle cx="45.5996" cy="36.6004" r="1.5" transform="rotate(45 45.5996 36.6004)" fill="#C69C6D"/>
<circle cx="69.6411" cy="60.6421" r="1.5" transform="rotate(45 69.6411 60.6421)" fill="#C69C6D"/>
<circle cx="41.3569" cy="32.3578" r="1.5" transform="rotate(45 41.3569 32.3578)" fill="#C69C6D"/>
<circle cx="65.3984" cy="56.3995" r="1.5" transform="rotate(45 65.3984 56.3995)" fill="#C69C6D"/>
</svg>
