<?xml version="1.0" encoding="UTF-8"?>
<svg id="_x32_" xmlns="http://www.w3.org/2000/svg" version="1.1" viewBox="0 0 512 512">
  <!-- Generator: Adobe Illustrator 29.6.1, SVG Export Plug-In . SVG Version: 2.1.1 Build 9)  -->
  <defs>
    <style>
      .st0 {
        fill: #c69c6d;
      }
    </style>
  </defs>
  <path class="st0" d="M0,204.9v102.2c0,21.2,17.2,38.4,38.4,38.4h71.6v-179.1H38.4c-21.2,0-38.4,17.2-38.4,38.4h0Z"/>
  <path class="st0" d="M288,94.7c-3.9-2.4-8.7-2.6-12.7-.5l-142.2,72.2v179.1l142.2,72.2c4,2.1,8.9,1.9,12.7-.5,3.9-2.4,6.2-6.6,6.2-11.1V105.8c0-4.5-2.4-8.8-6.2-11.1Z"/>
  <path class="st0" d="M453.1,253.5l54.4-54.4c6-6,6-15.7,0-21.7s-15.7-6-21.7,0l-54.4,54.4-54.4-54.4c-6-6-15.7-6-21.7,0s-6,15.7,0,21.7l54.4,54.4-54.4,54.4c-6,6-6,15.7,0,21.7s15.7,6,21.7,0l54.4-54.4,54.4,54.4c6,6,15.7,6,21.7,0s6-15.7,0-21.7l-54.4-54.4h0Z"/>
</svg>