<?xml version="1.0" encoding="UTF-8"?>
<svg id="_x32_" xmlns="http://www.w3.org/2000/svg" version="1.1" viewBox="0 0 512 512">
  <!-- Generator: Adobe Illustrator 29.6.1, SVG Export Plug-In . SVG Version: 2.1.1 Build 9)  -->
  <defs>
    <style>
      .st0 {
        fill: #c69c6d;
      }
    </style>
  </defs>
  <path class="st0" d="M0,206.3v99.5c0,20.7,16.8,37.4,37.4,37.4h69.7v-174.3H37.4c-20.7,0-37.4,16.7-37.4,37.4h0Z"/>
  <path class="st0" d="M280.3,99c-3.8-2.3-8.5-2.5-12.4-.5l-138.4,70.3v174.3l138.4,70.3c3.9,2,8.6,1.8,12.4-.5s6.1-6.4,6.1-10.8V109.9c0-4.4-2.3-8.5-6.1-10.8h0Z"/>
  <path class="st0" d="M408.5,162.7c-5.1-5.6-13.7-6.1-19.3-1-5.6,5.1-6.1,13.7-1,19.3,19.1,21.3,28.7,48.1,28.7,75s-9.6,53.8-28.7,75c-5.1,5.6-4.6,14.3,1,19.4s14.3,4.6,19.3-1c23.8-26.5,35.8-59.9,35.8-93.3s-11.9-66.9-35.8-93.3h0Z"/>
  <path class="st0" d="M458.9,117.3c-5.1-5.6-13.7-6.1-19.3-1-5.6,5.1-6.1,13.7-1,19.3,30.7,34.1,46.1,77.2,46.1,120.3s-15.4,86.2-46.1,120.3c-5.1,5.6-4.6,14.3,1,19.3,5.6,5.1,14.3,4.6,19.3-1,35.4-39.3,53.1-89,53.1-138.7s-17.7-99.4-53.1-138.7v.2Z"/>
  <path class="st0" d="M338.8,207c-5.6,5.1-6.1,13.7-1,19.3,7.6,8.4,11.4,19,11.4,29.6s-3.8,21.2-11.4,29.6c-5.1,5.6-4.6,14.3,1,19.3,5.6,5.1,14.3,4.6,19.3-1,12.3-13.6,18.4-30.8,18.4-48s-6.2-34.4-18.4-48c-5.1-5.6-13.7-6.1-19.3-1v.2Z"/>
</svg>