<svg width="111" height="111" viewBox="0 0 111 111" fill="none" xmlns="http://www.w3.org/2000/svg">
<circle cx="55.5" cy="55.5" r="55.5" fill="white"/>
<path d="M31.312 83V71.896H32.368L37.072 79.624H36.352L41.056 71.896H42.112V83H40.608V74.536L40.96 74.632L37.248 80.728H36.192L32.48 74.632L32.816 74.536V83H31.312ZM46.3339 83V71.896H47.8379V83H46.3339ZM47.3579 83V81.624H53.7259V83H47.3579ZM47.3579 77.976V76.664H53.1979V77.976H47.3579ZM47.3579 73.272V71.896H53.6459V73.272H47.3579ZM57.3714 83V71.896H58.4274L58.8754 73.64V83H57.3714ZM65.0514 83L58.2354 73.896L58.4274 71.896L65.2594 80.984L65.0514 83ZM65.0514 83L64.6034 81.352V71.896H66.1074V83H65.0514ZM74.4907 83.16C73.6694 83.16 72.9334 82.9787 72.2827 82.616C71.6427 82.2427 71.1361 81.736 70.7627 81.096C70.3894 80.4453 70.2027 79.7093 70.2027 78.888V71.896H71.7067V78.856C71.7067 79.4427 71.8294 79.9493 72.0747 80.376C72.3201 80.8027 72.6507 81.1333 73.0667 81.368C73.4934 81.6027 73.9681 81.72 74.4907 81.72C75.0347 81.72 75.5094 81.6027 75.9147 81.368C76.3307 81.1333 76.6561 80.8027 76.8907 80.376C77.1361 79.9493 77.2587 79.448 77.2587 78.872V71.896H78.7787V78.904C78.7787 79.7253 78.5921 80.456 78.2188 81.096C77.8454 81.736 77.3387 82.2427 76.6987 82.616C76.0587 82.9787 75.3227 83.16 74.4907 83.16Z" fill="#434A53"/>
<rect x="34" y="31" width="43" height="3" fill="#C69C6D"/>
<rect x="46" y="44" width="19" height="3" fill="#C69C6D"/>
<rect x="34" y="57" width="43" height="3" fill="#C69C6D"/>
<circle cx="41.5" cy="45.5" r="1.5" fill="#C69C6D"/>
<circle cx="75.5" cy="45.5" r="1.5" fill="#C69C6D"/>
<circle cx="35.5" cy="45.5" r="1.5" fill="#C69C6D"/>
<circle cx="69.5" cy="45.5" r="1.5" fill="#C69C6D"/>
</svg>
