<svg width="462" height="121" viewBox="0 0 462 121" fill="none" xmlns="http://www.w3.org/2000/svg">
<g clip-path="url(#clip0_291_77)">
<path d="M339.014 101.612C338.995 100.827 339.053 100.042 339.014 99.2569C339.014 98.9233 338.603 98.001 339.073 98.0599C340.012 98.1776 341.128 98.6682 342.067 98.8645C342.263 99.4139 341.637 99.4139 341.578 99.6298C341.461 100.14 341.676 101.043 341.578 101.612L343.32 101.573L344.553 99.8653C345.062 100.179 347.117 101.573 346.706 102.24C346.569 102.24 346.373 102.416 346.314 102.416H341.558V105.654H343.809C344.807 103.908 344.729 103.123 346.471 104.693C346.804 104.987 348.056 106.027 347.254 106.282C343.144 106.459 338.975 105.988 334.885 106.635L334.297 105.811V109.049L341.715 109.206L341.637 106.459C342.263 106.851 344.122 106.891 344.553 107.42C344.886 107.833 344.259 107.715 344.161 108.009C344.044 108.343 344.181 108.833 344.142 109.206C344.475 109.599 345.101 107.558 345.649 107.617C346.021 107.656 347.645 109.069 347.665 109.481L347.449 109.854H344.142V117.37C344.142 118.626 341.813 119.411 340.756 119.234C340.756 117.389 339.973 117.193 338.525 116.702C338.27 116.604 338.094 116.781 338.173 116.33C338.74 116.114 341.715 116.859 341.715 116.094V109.873C339.425 109.854 337.155 109.815 334.885 110.207L334.297 109.383C334.18 110.521 334.845 114.524 334.297 115.29C334.063 115.604 332.497 116.114 332.125 115.996C331.655 115.839 331.929 114.799 331.851 114.406H329.914C329.757 115.054 330.305 115.917 329.914 116.447C329.581 116.918 327.741 117.35 327.389 116.84L327.311 99.2373C328.407 99.4139 330.775 100.945 331.753 100.218C331.988 100.042 332.556 98.8841 332.967 98.9822C333.397 99.2373 335.237 100.532 335.217 100.945L334.258 101.592V105.556L338.936 105.713V102.475C337.762 102.475 336.587 102.397 335.452 102.75C335.354 102.75 334.787 101.887 334.748 101.749C334.591 101.259 335.119 101.671 335.139 101.671H338.936L339.014 101.612ZM331.929 100.964H329.992V106.773H331.929V100.964ZM331.929 107.577H329.992V113.72H331.929V107.577Z" fill="#17293A"/>
<path d="M220.079 103.711H222.663C221.978 102.279 222.349 99.7867 220.021 100.945L219.433 99.826L224.267 99.983L224.111 97.7262C224.228 97.6085 226.929 98.3149 227.105 98.5308C227.321 98.8055 226.381 99.4728 226.694 99.983L228.847 99.9437C229.395 99.7867 229.708 98.2365 230.452 98.3738C230.765 98.4327 232.468 99.9045 232.487 100.238L232.272 100.611H228.808L230.256 101.102V101.572C229.239 102.024 228.358 102.966 227.516 103.692H229.767C229.924 103.241 230.589 102.161 231.098 102.259C231.411 102.318 233.349 103.731 232.977 104.32C232.84 104.32 232.644 104.496 232.585 104.496H230.08L231.861 106.184L231.196 106.694L231.294 111.188C230.746 111.973 229.65 111.934 228.769 111.914V111.11H222.8C223.211 112.189 220.608 112.601 220.412 111.973L220.236 104.653C221.136 104.869 222.193 105.654 223.074 105.772C224.757 106.007 226.812 105.615 228.554 105.792L229.591 104.496H220.079C219.981 104.496 219.864 106.125 218.631 105.223L217.985 102.397V117.33C217.985 117.468 218.259 117.703 217.946 118.017C217.124 118.429 215.695 119.195 215.245 117.978L215.578 113.955C215.421 108.5 215.891 102.985 215.245 97.5496C215.695 97.5692 218.474 98.2561 218.474 98.5897C217.652 99.1784 218.063 100.415 218.024 101.317C218.885 101.945 219.884 102.534 220.099 103.692L220.079 103.711ZM227.164 100.631H222.976C223.191 100.945 223.68 101.003 224.013 101.278C224.913 101.985 224.992 102.828 224.248 103.692H226.499L227.144 100.631H227.164ZM228.769 106.459H222.8V108.068H228.769V106.459ZM228.769 108.716H222.8V110.501H228.769V108.716Z" fill="#17293A"/>
<path d="M145.924 106.282C145.904 103.162 146.061 100.022 145.611 96.9217L149.31 97.8833C149.466 98.2757 148.664 98.472 148.664 98.6093V106.282H153.733L155.474 104.359C155.709 104.398 157.666 106.066 157.843 106.341C158.019 106.596 158.038 107.067 157.745 107.067H151.051V115.545L151.286 115.78H155.318C155.455 115.78 155.69 115.564 155.768 115.407C156.101 114.838 156.688 111.855 156.844 111.738C156.942 111.738 157.158 111.953 157.158 111.973V115.603C157.158 115.603 157.686 115.702 157.94 116.192C158.547 117.35 157.549 118.037 156.551 118.312C155.298 118.645 151.325 118.684 149.994 118.508C149.368 118.429 148.292 117.86 148.292 117.154V107.067H145.865C145.865 112.994 142.518 117.821 136.686 119.175C136.373 118.881 138.095 117.939 138.291 117.782C141.755 114.995 142.792 111.443 142.812 107.048C140.894 106.989 138.995 107.106 137.117 107.381C137.058 107.381 136.569 106.439 136.529 106.321C136.373 105.831 136.901 106.243 136.921 106.243H145.865L145.924 106.282Z" fill="#17293A"/>
<path d="M412.758 108.029C412.758 108.284 412.758 108.46 412.758 108.735H360.562V108.029H412.778H412.758Z" fill="#17293A"/>
<path d="M244.896 108.382C246.246 108.225 247.029 108.833 247.792 109.834C248.184 107.577 252.627 104.163 254.212 106.871C256.052 109.991 250.121 111.424 248.106 111.934C248.458 113.013 248.614 115.368 246.912 115.152C245.816 115.015 245.874 113.739 246.011 112.895C242.782 114.622 243.487 116.604 247.205 116.271C248.321 116.173 251.824 114.662 251.668 116.859C251.589 117.821 250.239 118.194 249.436 118.351C247.518 118.743 243.291 118.684 243.095 116.055C242.939 113.877 244.778 113.092 246.148 111.816C246.246 110.953 245.835 108.146 244.563 109.422C243.839 110.148 242.919 113.916 241.471 113.68C240.297 113.504 240.277 111.777 240.806 110.972C241.765 109.481 244.113 108.343 244.583 106.282C242.684 106.518 241.295 106.106 240.395 104.339C241.314 104.614 244.191 104.928 244.915 104.418C245.17 104.241 245.111 103.201 244.994 102.868C244.837 102.397 243.996 102.122 243.976 101.828C243.898 100.925 246.383 101.102 246.755 101.906C246.912 102.24 246.736 102.711 247.107 102.848L249.202 103.025C249.515 104.948 247.225 105.615 245.816 106.106L244.935 108.362L244.896 108.382ZM248.282 110.658C248.399 110.796 251.335 109.108 251.589 108.873C252.47 108.029 252.607 106.694 250.963 106.949C249.652 107.146 248.301 109.383 248.301 110.658H248.282Z" fill="#17293A"/>
<path d="M124.747 107.911H70.3979V108.716H124.747V107.911Z" fill="#17293A"/>
<path d="M203.463 100.16C202.367 100.199 201.252 100.101 200.156 100.16C198.903 100.218 197.103 101.141 196.848 99.4335L203.346 99.512L204.501 98.2169C204.99 98.3346 207.201 99.8064 206.849 100.317C206.477 100.395 206.125 100.454 206.047 100.886C205.831 101.985 206.008 104.771 206.047 106.066C206.047 106.537 206.321 107.008 206.184 107.479C205.988 108.146 204.109 108.539 203.463 108.402V107.263H199.588V115.427L199.823 115.662H204.814C205.538 114.819 205.577 113.621 205.988 112.621C206.086 112.366 205.89 112.189 206.36 112.267V115.505C206.36 115.505 207.358 115.584 207.338 116.565C207.338 117.173 206.947 117.527 206.438 117.762C205.362 118.233 200.038 118.272 198.727 118.096C198.159 118.017 197.435 117.742 197.298 117.115C197.063 113.249 197.337 109.363 196.868 105.517C196.985 105.38 199.549 106.557 200.019 106.635C201.095 106.792 202.367 106.557 203.463 106.635V100.179V100.16Z" fill="#17293A"/>
<path d="M169.624 117.919L172.227 117.232C176.161 115.976 178.451 112.876 177.629 108.676C177.1 105.949 174.928 104.32 172.188 104.359C173.343 107.401 172.658 110.442 171.092 113.19C169.526 115.937 167.041 118.508 165.103 114.289C160.484 104.261 177.257 99.6298 179.977 108.107C182.189 115.015 175.574 118.645 169.624 117.919ZM171.718 104.359C168.274 104.81 165.69 107.989 166.277 111.502C166.414 112.326 167.236 113.935 168.235 113.366C170.387 112.15 172.638 106.792 171.718 104.339V104.359Z" fill="#17293A"/>
<path d="M291.299 108.873V108.637C290.966 108.225 290.477 107.734 290.242 107.263C288.754 104.222 292.003 100.964 289.361 98.3738C290.712 98.2168 292.923 98.9037 293.197 100.434C293.549 102.456 289.85 105.89 292.669 107.734C293.98 107.342 296.407 105.536 297.444 107.322C298.481 109.108 294.704 109.147 293.608 109.461C292.062 109.913 290.066 111.07 289.87 112.817C289.596 115.231 290.946 115.957 293.158 115.78C294.469 115.682 297.248 114.524 298.168 115.8C300.125 118.488 292.903 118.233 291.631 117.978C286.112 116.859 287.384 111.012 291.318 108.853L291.299 108.873Z" fill="#17293A"/>
<path d="M273.411 112.915V108.716C271.943 108.912 269.301 107.989 268.734 106.537C268.518 106.007 269.556 106.635 269.732 106.675C271.063 107.008 272.061 106.969 273.411 106.792L273.372 104.81C273.313 104.261 271.591 103.829 272.217 103.397C273.098 103.103 274.311 103.221 275.075 103.751C275.681 104.182 275.525 104.791 276.034 105.066C276.797 105.478 278.402 105.124 278.774 105.87C279.459 107.263 276.131 108.245 275.212 108.441L275.701 113.406C277.149 113.759 279.772 115.015 279.361 116.859C278.813 119.273 275.897 115.191 275.525 115.525C275.075 118.841 267.716 118.567 268.499 115.034C268.714 114.092 270.182 112.954 271.082 112.954H273.411V112.915ZM273.411 114.21C272.315 114.014 271.63 113.72 270.515 114.132C269.223 114.603 269.086 115.859 270.475 116.114C272.1 116.408 273.117 115.859 273.411 114.21Z" fill="#17293A"/>
<path d="M312.905 98.5309C314.569 98.315 317.876 99.1784 317.191 101.435C316.859 102.554 313.551 105.497 312.592 106.675C312.064 107.322 311.261 108.048 311.77 108.931C312.162 109.618 314.001 111.051 314.667 111.836C315.782 113.131 317.426 115.525 317.231 117.311C317.113 118.331 316.213 119.018 315.254 118.527C314.08 117.919 313.238 114.053 312.553 112.68C312.025 111.62 310.263 109.559 310.165 108.598C310.048 107.342 312.416 104.32 313.081 102.985C313.551 102.083 314.256 100.984 313.982 99.9241C313.806 99.2569 312.984 99.1588 312.886 98.5112L312.905 98.5309Z" fill="#17293A"/>
<path d="M263.919 112.424C264.173 112.287 264.369 111.718 264.487 111.463C264.917 110.403 265.367 108.696 265.994 107.793C266.131 107.577 266.17 107.342 266.502 107.42C266.013 109.52 265.093 112.091 265.387 114.269C265.504 115.074 266.835 117.213 265.387 117.684C264.095 118.115 263.43 116.918 262.96 115.898C261.825 113.465 262.06 110.639 262.549 108.068C262.94 106.066 264.252 102.966 263.723 101.082C263.567 100.532 263.097 100.12 263.117 99.512C270.554 101.906 262.216 107.715 263.919 112.424Z" fill="#17293A"/>
<path d="M190.898 116.938C191.544 118.233 188.726 119.195 188.432 118.351L188.334 109.677C189.841 110.246 190.918 110.874 192.621 110.658C193.384 110.56 193.501 109.795 194.206 109.54C194.519 109.579 196.183 110.972 196.241 111.227C196.339 111.659 195.478 111.679 195.439 111.895C195.184 112.915 195.948 117.115 195.439 117.684C195.106 118.056 193.912 118.331 193.423 118.253C192.679 118.115 193.247 117.487 193.188 116.958H190.937L190.898 116.938ZM193.149 111.463H190.898V116.153H193.149V111.463Z" fill="#17293A"/>
<path d="M228.299 116.133L228.905 114.72L229.258 114.524C229.258 114.976 229.179 115.505 229.356 115.937C229.512 116.29 230.041 116.153 230.08 116.859C230.138 117.939 228.729 118.174 227.888 118.233C227.046 118.292 223.347 118.331 222.819 117.978C221.821 117.311 222.662 113.602 222.173 112.405L224.913 113.209V113.445C224.208 113.936 224.267 115.466 224.678 116.114H228.299V116.133Z" fill="#17293A"/>
<path d="M156.413 100.317C155.572 100.395 155.298 101.2 154.809 101.69C153.947 102.573 152.949 103.594 151.971 104.339C151.736 104.516 150.503 105.537 150.288 105.321L152.949 98.2169C153.125 98.1776 156.1 99.7279 156.257 99.9045C156.374 100.042 156.472 100.081 156.413 100.317Z" fill="#17293A"/>
<path d="M138.839 98.5309C141.07 98.9429 144.984 102.083 143.497 104.555C143.008 105.36 141.696 105.556 141.187 104.81C140.972 104.496 140.679 102.534 140.424 101.867C140.248 101.396 138.721 98.6682 138.858 98.5112L138.839 98.5309Z" fill="#17293A"/>
<path d="M276.914 100.199C277.305 100.611 277.149 101.553 276.718 101.945C276.013 102.593 273.156 102.868 272.217 102.73C271.375 102.613 269.79 101.533 269.555 100.729C269.379 100.16 270.729 100.905 270.964 100.945C271.982 101.121 272.98 100.905 273.939 100.611C274.8 100.356 276.131 99.3746 276.933 100.218L276.914 100.199Z" fill="#17293A"/>
<path d="M193.873 102.083L195.028 100.65C195.38 100.572 197.2 102.142 197.181 102.495C197.044 102.691 196.809 102.809 196.594 102.868C194.93 103.241 191.309 102.848 189.372 102.887C188.335 102.907 187.591 103.633 187.356 102.083H193.893H193.873Z" fill="#17293A"/>
<path d="M335.784 110.482C337.272 110.541 339.835 111.993 339.816 113.641C339.816 114.406 339.131 115.211 338.309 115.133C337.076 115.015 337.291 113.896 336.978 113.072C336.645 112.169 336.156 111.365 335.784 110.482Z" fill="#17293A"/>
<path d="M229.102 112.581C230.883 112.64 233.779 114.485 232.977 116.545C232.742 117.134 232.39 117.311 231.763 117.271C230.648 117.193 230.843 116.094 230.472 115.172C230.1 114.249 229.473 113.504 229.102 112.581Z" fill="#17293A"/>
<path d="M295.507 101.435L295.585 101.121C297.112 101.003 299.832 101.435 300.361 103.142C300.713 104.261 299.695 105.066 298.619 104.555C297.934 104.241 296.896 101.514 295.526 101.435H295.507Z" fill="#17293A"/>
<path d="M195.889 108.539L189.039 108.873C188.706 108.931 188.217 107.832 188.315 107.734L192.875 107.872L194.03 106.478C194.499 106.616 196.32 108.009 195.869 108.539H195.889Z" fill="#17293A"/>
<path d="M221.038 112.581C221.547 113.072 221.528 115.407 221.273 116.133C220.51 118.331 217.946 117.703 218.494 115.917C218.651 115.427 219.766 114.858 220.138 114.348C220.51 113.837 220.49 113.366 220.706 112.817C220.764 112.64 220.784 112.346 221.038 112.601V112.581Z" fill="#17293A"/>
<path d="M195.869 105.635L189.039 105.988C188.706 106.047 188.217 104.948 188.315 104.85L192.875 104.987L194.03 103.594C194.48 103.849 196.28 105.026 195.869 105.654V105.635Z" fill="#17293A"/>
<path d="M214.579 101.945C215.088 103.437 215.44 105.066 215.01 106.616C214.383 108.794 212.015 107.734 212.916 106.145C213.053 105.89 213.346 105.752 213.503 105.438C214.031 104.379 214.188 103.103 214.109 101.926H214.579V101.945Z" fill="#17293A"/>
<path d="M188.824 100.297L188.315 99.1785L192.718 99.3158C193.58 99.0215 193.54 96.176 195.889 99.5905C195.889 99.8653 195.713 99.9438 195.478 100.003C194.46 100.179 192.738 99.9438 191.603 100.003C191.172 100.003 188.941 100.395 188.804 100.317L188.824 100.297Z" fill="#17293A"/>
<path d="M299.636 100.375C299.108 99.8849 298.384 99.7082 297.914 99.198C299.382 98.727 303.394 99.4335 302.67 101.631C302.474 102.2 301.77 102.397 301.241 102.24C300.791 102.102 300.028 100.768 299.617 100.395L299.636 100.375Z" fill="#17293A"/>
<path d="M226.224 114.642C226.224 114.642 225.833 113.739 225.676 113.504C225.265 112.895 224.737 112.464 224.326 111.934C224.209 111.777 224.013 111.738 224.091 111.443C225.442 111.384 227.986 111.914 227.966 113.621C227.966 114.544 226.851 115.074 226.205 114.642H226.224Z" fill="#17293A"/>
<path d="M31.1769 98.6486L32.5861 104.909L37.9877 101.474L34.5628 106.891L40.806 108.303L34.5628 109.716L37.9877 115.133L32.5861 111.698L31.1769 117.958L29.7678 111.698L24.3661 115.133L27.7911 109.716L21.5479 108.303L27.7911 106.891L24.3661 101.474L29.7678 104.909L31.1769 98.6486Z" fill="#C69C6D"/>
<path d="M452.351 98.6486L453.76 104.909L459.162 101.474L455.737 106.891L461.98 108.303L455.737 109.716L459.162 115.133L453.76 111.698L452.351 117.958L450.942 111.698L445.54 115.133L448.965 109.716L442.722 108.303L448.965 106.891L445.54 101.474L450.942 104.909L452.351 98.6486Z" fill="#C69C6D"/>
<path d="M47.558 109.677C48.3146 109.677 48.928 109.062 48.928 108.303C48.928 107.545 48.3146 106.93 47.558 106.93C46.8014 106.93 46.188 107.545 46.188 108.303C46.188 109.062 46.8014 109.677 47.558 109.677Z" fill="#17293A"/>
<path d="M54.8192 109.677C55.5758 109.677 56.1892 109.062 56.1892 108.303C56.1892 107.545 55.5758 106.93 54.8192 106.93C54.0626 106.93 53.4492 107.545 53.4492 108.303C53.4492 109.062 54.0626 109.677 54.8192 109.677Z" fill="#17293A"/>
<path d="M62.0995 109.677C62.8561 109.677 63.4695 109.062 63.4695 108.303C63.4695 107.545 62.8561 106.93 62.0995 106.93C61.3429 106.93 60.7295 107.545 60.7295 108.303C60.7295 109.062 61.3429 109.677 62.0995 109.677Z" fill="#17293A"/>
<path d="M452.351 118.056L450.942 111.796L445.54 115.231L448.965 109.814L442.722 108.402L448.965 106.989L445.54 101.573L450.942 105.007L452.351 98.7467L453.76 105.007L459.162 101.573L455.737 106.989L461.98 108.402L455.737 109.814L459.162 115.231L453.76 111.796L452.351 118.056Z" fill="#C69C6D"/>
<path d="M435.989 109.756C436.746 109.756 437.359 109.141 437.359 108.382C437.359 107.623 436.746 107.008 435.989 107.008C435.233 107.008 434.619 107.623 434.619 108.382C434.619 109.141 435.233 109.756 435.989 109.756Z" fill="#17293A"/>
<path d="M428.709 109.756C429.465 109.756 430.079 109.141 430.079 108.382C430.079 107.623 429.465 107.008 428.709 107.008C427.952 107.008 427.339 107.623 427.339 108.382C427.339 109.141 427.952 109.756 428.709 109.756Z" fill="#17293A"/>
<path d="M421.429 109.756C422.185 109.756 422.799 109.141 422.799 108.382C422.799 107.623 422.185 107.008 421.429 107.008C420.672 107.008 420.059 107.623 420.059 108.382C420.059 109.141 420.672 109.756 421.429 109.756Z" fill="#17293A"/>
<path d="M265.562 48.5099L279.223 56.3986C278.029 63.1884 274.154 69.2522 268.596 73.2554C267.696 73.903 266.58 74.7076 265.562 74.9823V48.5099Z" fill="#17293A"/>
<path d="M244.27 42.6228V26.963C251.648 23.941 260.514 25.0595 267.168 29.3179L244.27 42.6228Z" fill="#17293A"/>
<path d="M240.903 54.8287L227.281 46.94C228.671 39.0316 233.818 32.0456 240.903 28.3367V54.8091V54.8287Z" fill="#17293A"/>
<path d="M226.792 50.8647L249.691 64.0323L236.049 71.8425C229.982 66.6815 226.597 58.8516 226.792 50.8647Z" fill="#C69C6D"/>
<path d="M279.654 52.6309L256.756 39.2475L270.397 31.6727C276.503 36.7553 279.909 44.6833 279.654 52.6309Z" fill="#17293A"/>
<path d="M262.196 76.5326C254.759 79.535 246.07 78.338 239.298 74.2563L262.196 60.8729V76.5326Z" fill="#17293A"/>
<path d="M15.5005 43.4862V36.4805H27.2237C32.3318 36.4805 36.2461 35.205 38.9469 32.6343C41.6477 30.0047 42.9982 26.492 42.9982 22.1356C42.9982 17.7791 41.6477 14.4823 38.9469 11.8527C36.2461 9.14464 32.3318 7.7906 27.2237 7.7906H15.5005V0.549438H27.2237C32.2535 0.549438 36.5788 1.49138 40.1799 3.37526C43.781 5.18064 46.521 7.7121 48.3998 10.95C50.357 14.1879 51.3355 17.8772 51.3355 22.0178C51.3355 26.1584 50.357 30.0832 48.3998 33.3211C46.521 36.559 43.781 39.0905 40.1799 40.8959C36.5788 42.6227 32.2535 43.4862 27.2237 43.4862H15.5005Z" fill="#17293A"/>
<path d="M8.21994 0H0V121H8.21994V0Z" fill="#17293A"/>
<path d="M44.5639 79.3977L15.5005 43.4862L23.4856 40.8763L55.1519 79.3977H44.5639Z" fill="#17293A"/>
<path d="M96.9561 79.3976C91.6327 79.3976 86.8573 78.2006 82.6495 75.7869C78.4416 73.3732 75.0949 70.0567 72.629 65.8376C70.2217 61.6185 69.0278 56.8696 69.0278 51.6104C69.0278 46.3513 70.2217 41.7397 72.629 37.5991C75.0362 33.38 78.3046 30.0636 82.4342 27.6498C86.5637 25.2361 91.1825 24.0391 96.2906 24.0391C101.105 24.0391 105.333 25.138 109.012 27.3162C112.77 29.4945 115.705 32.5558 117.799 36.4609C119.972 40.3071 121.068 44.7421 121.068 49.7854C121.068 50.3938 121.029 51.1002 120.95 51.9244C120.872 52.6701 120.716 53.5728 120.5 54.6325H74.6448V47.8623H116.214L113.396 50.3545C113.474 46.4298 112.789 43.0937 111.361 40.3071C110.01 37.4421 108.014 35.2638 105.391 33.7528C102.847 32.1633 99.7156 31.3783 96.0362 31.3783C92.3568 31.3783 88.8731 32.2025 86.0157 33.8706C83.1583 35.519 80.9076 37.8542 79.2636 40.8762C77.6783 43.8198 76.8955 47.3128 76.8955 51.3749C76.8955 55.4371 77.7175 59.0282 79.381 62.1091C81.1033 65.1901 83.4714 67.6038 86.4854 69.3307C89.5581 71.0576 93.1005 71.921 97.0735 71.921C100.303 71.921 103.278 71.3519 105.978 70.2334C108.679 69.0363 110.969 67.2505 112.848 64.9153L117.917 70.1156C115.431 73.0592 112.359 75.3552 108.679 77.0035C105.078 78.5931 101.164 79.378 96.9561 79.378V79.3976Z" fill="#17293A"/>
<path d="M145.943 70.9006C144.515 70.9006 143.36 70.41 142.44 69.4484C141.579 68.4869 141.168 67.3487 141.168 66.0339C141.168 64.6014 141.599 63.4436 142.44 62.5212C143.34 61.5597 144.515 61.0691 145.943 61.0691C147.372 61.0691 148.448 61.5597 149.349 62.5212C150.308 63.4239 150.797 64.6014 150.797 66.0339C150.797 67.3487 150.308 68.4869 149.349 69.4484C148.448 70.41 147.294 70.9006 145.943 70.9006Z" fill="#17293A"/>
<path d="M145.943 43.9768C144.515 43.9768 143.36 43.4862 142.44 42.5247C141.579 41.5631 141.168 40.4249 141.168 39.1101C141.168 37.6776 141.599 36.5198 142.44 35.5975C143.34 34.6948 144.515 34.2238 145.943 34.2238C147.372 34.2238 148.448 34.6752 149.349 35.5975C150.308 36.5002 150.797 37.6776 150.797 39.1101C150.797 40.4249 150.308 41.5631 149.349 42.5247C148.448 43.4862 147.294 43.9768 145.943 43.9768Z" fill="#17293A"/>
<path d="M181.837 15.7382H173.617V78.2595H181.837V15.7382Z" fill="#17293A"/>
<path d="M210.92 31.2999H173.617V38.8746H210.92V31.2999Z" fill="#17293A"/>
<path d="M217.105 0.549438H173.617V8.1242H217.105V0.549438Z" fill="#17293A"/>
<path d="M323.709 79.3976C318.522 79.3976 313.825 78.2006 309.618 75.7869C305.488 73.2947 302.18 69.9586 299.695 65.7395C297.288 61.5204 296.094 56.8107 296.094 51.6104C296.094 46.4101 297.288 41.7397 299.695 37.5991C302.18 33.38 305.468 30.0636 309.618 27.6498C313.825 25.2361 318.522 24.0391 323.709 24.0391C327.682 24.0391 331.4 24.7848 334.865 26.2958C338.329 27.8068 341.245 29.9066 343.652 32.6146L338.466 37.9327C336.665 35.8918 334.493 34.3612 331.929 33.3015C329.385 32.1633 326.625 31.6138 323.709 31.6138C319.951 31.6138 316.604 32.4773 313.688 34.2042C310.772 35.9311 308.463 38.3055 306.819 41.3276C305.175 44.2711 304.333 47.6857 304.333 51.6104C304.333 55.5352 305.155 58.9105 306.819 62.011C308.463 65.0331 310.753 67.3879 313.688 69.1344C316.624 70.8809 319.951 71.7248 323.709 71.7248C326.723 71.7248 329.482 71.1949 332.046 70.1352C334.591 68.9971 336.782 67.4272 338.583 65.3863L343.887 70.7043C341.401 73.4909 338.407 75.6299 334.865 77.1409C331.4 78.6519 327.701 79.3976 323.709 79.3976Z" fill="#17293A"/>
<path d="M382.893 79.3976C378.607 79.3976 374.791 78.4165 371.405 76.4541C368.019 74.4132 365.357 71.6659 363.4 68.2121C361.521 64.7387 360.582 60.6766 360.582 56.0061V25.1772H368.587V55.6725C368.587 58.9105 369.154 61.7363 370.27 64.15C371.464 66.5637 373.166 68.4476 375.339 69.8016C377.511 71.1557 380.036 71.8425 382.893 71.8425C387.316 71.8425 390.82 70.3707 393.364 67.4468C395.987 64.5032 397.298 60.5981 397.298 55.6922V25.1969H405.185V56.0258C405.185 60.6177 404.246 64.6798 402.367 68.2317C400.488 71.7836 397.865 74.5113 394.48 76.4737C391.094 78.4361 387.238 79.4173 382.874 79.4173L382.893 79.3976Z" fill="#17293A"/>
<path d="M439.043 79.3976C436.185 79.3976 433.445 79.0248 430.823 78.2595C428.2 77.4353 425.793 76.2971 423.621 74.8646C421.527 73.432 419.687 71.7444 418.102 69.782L423.171 64.5817C425.265 67.1328 427.633 69.0559 430.275 70.3511C432.976 71.5481 435.99 72.1565 439.297 72.1565C442.82 72.1565 445.56 71.4696 447.517 70.1156C449.553 68.7616 450.551 66.8777 450.551 64.464C450.551 62.2072 449.846 60.4411 448.417 59.1459C446.989 57.8704 445.149 56.85 442.898 56.1043C440.726 55.3586 438.397 54.6325 435.911 53.9653C433.426 53.2196 431.058 52.3169 428.807 51.2572C426.556 50.119 424.717 48.5884 423.288 46.626C421.938 44.6636 421.253 42.1125 421.253 38.9531C421.253 35.7937 421.957 33.3407 423.386 31.1625C424.893 28.9058 426.987 27.1789 429.688 25.9622C432.467 24.6866 435.735 24.0391 439.493 24.0391C443.466 24.0391 447.087 24.7455 450.316 26.1781C453.545 27.6106 456.129 29.7103 458.086 32.4969L453.017 37.5794C451.431 35.5386 449.455 34.0079 447.047 32.9482C444.719 31.8101 442.096 31.2606 439.16 31.2606C435.774 31.2606 433.191 31.9474 431.39 33.3015C429.668 34.577 428.807 36.2843 428.807 38.384C428.807 40.4838 429.512 42.034 430.94 43.2507C432.369 44.3889 434.17 45.3308 436.342 46.0765C438.593 46.7634 440.961 47.4698 443.446 48.2155C445.932 48.9023 448.3 49.8443 450.551 51.0413C452.801 52.1795 454.602 53.7494 455.952 55.7903C457.381 57.7527 458.086 60.4215 458.086 63.8164C458.086 68.5653 456.363 72.3723 452.899 75.2178C449.513 78.0044 444.895 79.3976 439.043 79.3976Z" fill="#17293A"/>
</g>
<defs>
<clipPath id="clip0_291_77">
<rect width="462" height="121" fill="white"/>
</clipPath>
</defs>
</svg>
